<svg width="1359" height="491" viewBox="0 0 1359 491" fill="none" xmlns="http://www.w3.org/2000/svg">
<path d="M1142.19 77.2733C1142.19 92.5565 1146.72 107.496 1155.21 120.204C1163.7 132.912 1175.77 142.816 1189.89 148.664C1204.01 154.513 1219.55 156.043 1234.54 153.062C1249.53 150.08 1263.3 142.721 1274.1 131.914C1284.91 121.107 1292.27 107.338 1295.25 92.3485C1298.23 77.359 1296.7 61.8219 1290.85 47.7021C1285.01 33.5822 1275.1 21.5138 1262.39 13.0229C1249.69 4.532 1234.75 0 1219.46 0C1198.97 0 1179.31 8.14127 1164.82 22.6328C1150.33 37.1244 1142.19 56.7791 1142.19 77.2733Z" fill="#458DF4"/>
<path opacity="0.2" d="M1198.99 1.40381C1188.51 12.3152 1181.47 26.0698 1178.76 40.9532C1176.04 55.8365 1177.76 71.1902 1183.71 85.1006C1189.66 99.011 1199.57 110.863 1212.21 119.179C1224.85 127.495 1239.66 131.907 1254.79 131.865C1261.55 131.839 1268.28 131.03 1274.86 129.457C1266.61 138.071 1256.49 144.662 1245.28 148.712C1234.06 152.763 1222.06 154.163 1210.22 152.804C1198.37 151.445 1187 147.363 1177 140.878C1166.99 134.393 1158.62 125.681 1152.54 115.423C1146.47 105.165 1142.85 93.6396 1141.96 81.7492C1141.08 69.8587 1142.96 57.9255 1147.46 46.8834C1151.96 35.8412 1158.95 25.9897 1167.89 18.0997C1176.83 10.2097 1187.47 4.49538 1198.99 1.40381Z" fill="black"/>
<path d="M160.518 134.676C160.518 153.968 166.239 172.827 176.957 188.869C187.676 204.91 202.91 217.412 220.734 224.795C238.558 232.178 258.171 234.11 277.093 230.346C296.015 226.582 313.396 217.292 327.038 203.65C340.68 190.008 349.97 172.627 353.734 153.706C357.497 134.784 355.566 115.171 348.183 97.3467C340.8 79.5227 328.297 64.2882 312.256 53.5699C296.215 42.8515 277.355 37.1306 258.063 37.1306C245.246 37.1041 232.549 39.6091 220.703 44.5019C208.856 49.3946 198.092 56.5787 189.029 65.6418C179.966 74.705 172.782 85.4688 167.889 97.3154C162.996 109.162 160.491 121.858 160.518 134.676Z" fill="#458DF4"/>
<path opacity="0.2" d="M231.169 40.1416C218.041 53.993 209.255 71.3843 205.895 90.17C202.535 108.956 204.748 128.314 212.26 145.857C219.773 163.4 232.256 178.361 248.171 188.893C264.085 199.424 282.735 205.067 301.819 205.125C310.099 205.118 318.339 203.97 326.305 201.713C316.024 212.962 303.251 221.646 289.009 227.069C274.766 232.491 259.452 234.501 244.293 232.938C229.134 231.374 214.552 226.281 201.716 218.065C188.88 209.85 178.148 198.742 170.38 185.631C162.612 172.52 158.023 157.771 156.983 142.567C155.943 127.363 158.479 112.127 164.389 98.0796C170.299 84.0327 179.418 71.5658 191.015 61.6787C202.612 51.7915 216.364 44.759 231.169 41.1451V40.1416Z" fill="black"/>
<path d="M2.35861 393.392C2.35861 412.685 8.07961 431.544 18.798 447.585C29.5164 463.626 44.7508 476.129 62.5748 483.512C80.3988 490.895 100.012 492.827 118.934 489.063C137.856 485.299 155.236 476.009 168.878 462.367C182.52 448.725 191.81 431.344 195.574 412.422C199.338 393.5 197.406 373.887 190.023 356.063C182.64 338.239 170.138 323.005 154.097 312.286C138.056 301.568 119.196 295.847 99.9036 295.847C74.0331 295.847 49.2221 306.124 30.9289 324.417C12.6357 342.711 2.35861 367.522 2.35861 393.392Z" fill="#A6CAFF"/>
<path opacity="0.2" d="M74.4133 299.259C61.2857 313.111 52.4999 330.502 49.1399 349.288C45.7798 368.074 47.9925 387.432 55.5049 404.975C63.0172 422.518 75.5007 437.478 91.4152 448.01C107.33 458.542 125.979 464.185 145.063 464.243C153.306 464.497 161.545 463.62 169.55 461.634C159.269 472.883 146.495 481.567 132.253 486.989C118.011 492.412 102.696 494.422 87.5371 492.858C72.3779 491.295 57.796 486.201 44.9604 477.986C32.1248 469.771 21.3927 458.662 13.6244 445.551C5.85616 432.44 1.26796 417.691 0.227585 402.487C-0.812775 387.283 1.72362 372.047 7.63354 358C13.5435 343.953 22.6625 331.486 34.2594 321.599C45.8563 311.712 59.6084 304.68 74.4133 301.066V299.259Z" fill="black"/>
<path d="M465.598 195.894C476.524 197.167 486.914 201.323 495.704 207.936C511.962 224.395 479.246 273.368 446.731 306.083C414.015 371.314 462.988 469.461 561.135 436.746C642.824 387.772 626.366 273.368 675.54 240.652C822.46 175.221 675.54 421.291 757.229 453.003C936.864 501.776 789.744 273.368 872.035 175.221H936.864C969.58 224.395 985.837 338.598 1035.01 273.368C1047.55 264.809 1057.99 253.516 1065.53 240.34C1073.08 227.164 1077.53 212.447 1078.57 197.299C1102.38 212.478 1125.06 229.383 1146.41 247.878C1131.22 255.016 1117.77 265.374 1106.99 278.233C1096.21 291.092 1088.36 306.143 1083.98 322.341C1083.98 371.314 1149.42 436.746 1100.24 485.719C1018.55 534.893 1002.3 387.772 936.864 420.488C838.918 453.003 936.864 601.127 904.149 681.411C887.891 697.869 838.918 730.585 806.202 730.585C724.513 697.869 773.487 583.464 724.513 567.006C626.366 518.033 610.109 747.645 479.246 681.411C414.015 648.695 446.731 550.749 414.015 501.776C381.3 436.344 299.611 567.006 266.895 518.033C252.776 507.084 240.973 493.439 232.172 477.891C277.337 361.063 359.264 262.089 465.598 195.894Z" fill="#66ACFF"/>
<path d="M985.836 959.592C969.578 992.307 985.836 1057.74 953.321 1090.45C871.632 1188.4 855.174 1008.77 772.682 1025.02C723.709 1025.02 707.25 1155.69 642.02 1106.71C560.331 1041.48 527.615 1008.77 429.468 1008.77C396.752 1008.77 413.211 927.077 396.752 894.361C349.385 846.994 293.588 885.329 236.185 903.794C207.879 834.614 193.356 760.571 193.433 685.824C249.03 673.179 308.239 630.227 332.325 665.753C381.298 698.468 315.866 910.819 430.271 861.846C479.244 845.388 528.418 796.415 593.649 812.873C642.823 845.388 593.649 927.277 642.823 959.792C757.227 992.508 724.512 779.154 838.916 845.388C887.889 878.104 887.889 992.508 969.578 959.792C1132.96 894.562 969.578 714.726 1035.01 633.037C1083.98 535.091 1165.67 829.13 1247.36 698.468C1313.59 600.12 1165.67 518.432 1214.64 421.489C1219.43 412.231 1226.12 404.097 1234.29 397.626C1242.46 391.155 1251.91 386.495 1262.01 383.956C1337.22 504.815 1364.64 649.388 1338.88 789.39C1304.56 791.196 1271.45 806.852 1263.82 829.532C1247.36 927.679 1231.1 1042.08 1116.7 976.652C1083.98 959.592 1035.01 927.077 985.836 959.592Z" fill="#3C79DD"/>
<path d="M1247.36 698.27C1165.67 828.932 1083.98 534.893 1035.01 632.839C969.578 714.528 1132.96 893.762 969.578 959.595C887.89 992.31 887.89 877.906 838.916 845.19C724.512 779.959 757.227 992.31 642.823 959.595C593.649 927.08 642.823 845.19 593.649 812.675C528.418 796.217 479.244 845.19 430.271 861.648C315.867 910.621 381.298 698.27 332.325 665.555C308.24 629.628 249.03 672.58 193.434 685.626C193.51 614.983 206.643 544.964 232.171 479.095C240.972 494.644 252.775 508.288 266.893 519.237C299.609 568.21 381.298 437.548 414.014 502.98C446.729 551.953 414.014 649.899 479.244 683.619C610.107 749.05 626.365 520.241 724.512 569.214C773.485 585.672 724.512 700.077 806.201 732.792C838.916 732.792 887.89 700.077 904.147 683.619C936.863 601.93 838.916 454.809 936.863 422.696C1002.29 389.98 1018.55 537.1 1100.24 487.927C1149.41 438.953 1083.98 373.522 1083.98 324.549C1088.36 308.351 1096.21 293.3 1106.99 280.441C1117.77 267.582 1131.22 257.224 1146.4 250.085C1191.68 288.875 1230.68 334.441 1262.01 385.163C1252.01 387.566 1242.63 392.041 1234.47 398.299C1226.31 404.557 1219.56 412.458 1214.65 421.492C1165.67 518.434 1313.59 600.123 1247.36 698.27Z" fill="#458DF4"/>
<path d="M642.823 207.934C600.674 239.646 592.445 189.669 592.043 137.083C671.404 110.583 755.711 102.283 838.715 112.798C832.092 139.492 828.279 168.595 822.458 191.677C757.227 142.503 724.512 158.961 642.823 207.934Z" fill="#DCECFF"/>
<path d="M446.731 306.083C479.246 273.367 511.961 224.394 495.704 207.936C486.914 201.323 476.523 197.166 465.597 195.893C504.896 171.319 547.014 151.573 591.041 137.085C591.041 189.671 599.672 239.648 641.821 207.936C723.51 158.963 756.225 142.504 822.46 191.678C828.28 168.597 831.893 140.497 838.717 112.799C923.972 122.706 1005.93 151.579 1078.57 197.298C1077.53 212.446 1073.08 227.163 1065.53 240.339C1057.99 253.516 1047.55 264.809 1035.01 273.367C985.837 338.598 969.58 224.394 936.864 175.22H872.035C790.145 273.367 937.265 502.176 757.63 453.002C675.54 421.491 822.459 175.22 675.54 240.852C626.366 273.568 642.824 387.972 561.135 436.946C462.988 469.461 414.015 371.314 446.731 306.083Z" fill="#A6CAFF"/>
<path opacity="0.2" d="M608.902 133.674C579.813 233.074 578.003 338.469 603.662 438.809C629.321 539.149 681.503 630.738 754.737 703.972C827.971 777.206 919.56 829.388 1019.9 855.047C1120.24 880.706 1225.64 878.896 1325.03 849.807C1260.61 1070.99 1034.61 1264.47 771.678 1264.47C633.172 1263.94 499.473 1213.63 394.965 1122.73C290.457 1031.84 222.103 906.403 202.369 769.309C182.634 632.215 212.834 492.594 287.462 375.911C362.089 259.228 476.171 173.256 608.902 133.674Z" fill="url(#paint0_linear_5_2225)"/>
<path opacity="0.7" d="M999.886 294.644C982.625 317.525 1000.89 360.677 1040.03 390.583C1079.17 420.489 1126.13 426.51 1143.39 403.629C1160.65 380.748 1143.39 337.596 1103.25 307.489C1063.11 277.383 1017.35 271.763 999.886 294.644Z" fill="white"/>
<defs>
<linearGradient id="paint0_linear_5_2225" x1="1087.8" y1="438.753" x2="111.343" y2="1198.44" gradientUnits="userSpaceOnUse">
<stop/>
<stop offset="0.57"/>
<stop offset="0.61"/>
<stop offset="1" stop-color="#404040"/>
</linearGradient>
</defs>
</svg>
