<svg width="1440" height="583" viewBox="0 0 1440 583" fill="none" xmlns="http://www.w3.org/2000/svg">
<g clip-path="url(#clip0_30_226)">
<rect width="1440" height="583" fill="white"/>
<path d="M-72 -16H1512V1303H-72V-16Z" fill="url(#paint0_radial_30_226)"/>
<g opacity="0.8">
<mask id="mask0_30_226" style="mask-type:luminance" maskUnits="userSpaceOnUse" x="-23" y="121" width="1485" height="990">
<path d="M-23 1111L1462 1111L1462 121L-23 121L-23 1111Z" fill="white"/>
</mask>
<g mask="url(#mask0_30_226)">
<path d="M1042.69 196.172C1067.52 196.172 1087.64 188.549 1087.64 179.144C1087.64 169.74 1067.52 162.116 1042.69 162.116C1017.87 162.116 997.749 169.74 997.749 179.144C997.749 188.549 1017.87 196.172 1042.69 196.172Z" fill="url(#paint1_radial_30_226)"/>
<path d="M1042.69 224.09C1052.1 224.09 1059.72 203.967 1059.72 179.144C1059.72 154.321 1052.1 134.198 1042.69 134.198C1033.29 134.198 1025.67 154.321 1025.67 179.144C1025.67 203.967 1033.29 224.09 1042.69 224.09Z" fill="url(#paint2_radial_30_226)"/>
<path d="M510.471 289.035C521.757 305.667 536.409 315.369 543.141 310.617C550.071 306.063 546.507 288.837 535.221 272.205C523.935 255.573 509.283 245.871 502.551 250.623C495.621 255.177 499.185 272.403 510.471 289.035Z" fill="url(#paint3_radial_30_226)"/>
<path opacity="0.6" d="M514.431 268.244C497.799 279.53 488.097 294.182 492.849 300.914C497.403 307.844 514.629 304.28 531.261 292.994C547.893 281.708 557.595 267.056 552.843 260.324C548.289 253.394 531.063 256.958 514.431 268.244Z" fill="url(#paint4_radial_30_226)"/>
</g>
</g>
<g opacity="0.3">
<mask id="mask1_30_226" style="mask-type:luminance" maskUnits="userSpaceOnUse" x="-123" y="-155" width="1685" height="1123">
<path d="M-122 967.667L1562 967.667L1562 -155L-122 -155L-122 967.667Z" fill="white"/>
</mask>
<g mask="url(#mask1_30_226)">
<path d="M736.907 250.206C736.907 249.084 736.009 248.186 734.886 248.186C733.763 248.186 732.865 249.084 732.865 250.206C732.865 251.329 733.763 252.227 734.886 252.227C736.009 252.227 736.907 251.329 736.907 250.206Z" fill="white"/>
<path d="M1053.5 129.856C1055.23 129.856 1056.64 128.449 1056.64 126.713C1056.64 124.977 1055.23 123.569 1053.5 123.569C1051.76 123.569 1050.36 124.977 1050.36 126.713C1050.36 128.449 1051.76 129.856 1053.5 129.856Z" fill="white"/>
<path d="M874.321 75.2946C874.321 73.2738 872.525 71.4775 870.504 71.4775C868.483 71.4775 866.687 73.2738 866.687 75.2946C866.687 77.3154 868.483 79.1117 870.504 79.1117C872.749 79.3362 874.321 77.5399 874.321 75.2946Z" fill="white"/>
<path d="M1144.43 22.3044C1144.43 20.2836 1142.86 18.7119 1140.84 18.7119C1138.82 18.7119 1137.25 20.2836 1137.25 22.3044C1137.25 24.3252 1138.82 25.897 1140.84 25.897C1142.86 25.897 1144.43 24.3252 1144.43 22.3044Z" fill="white"/>
<path d="M821.331 5.9138C821.331 3.893 819.759 2.32129 817.739 2.32129C815.718 2.32129 814.146 3.893 814.146 5.9138C814.146 7.9346 815.718 9.50635 817.739 9.50635C819.759 9.50635 821.331 7.9346 821.331 5.9138Z" fill="white"/>
<path d="M877.914 365.391C877.914 363.371 876.342 361.799 874.321 361.799C872.3 361.799 870.729 363.371 870.729 365.391C870.729 367.412 872.3 368.984 874.321 368.984C876.342 368.984 877.914 367.188 877.914 365.391Z" fill="white"/>
<path d="M1039.35 45.6561C1039.35 42.2881 1036.66 39.3691 1033.07 39.3691C1029.7 39.3691 1026.78 42.0635 1026.78 45.6561C1026.78 49.0241 1029.47 51.943 1033.07 51.943C1036.66 51.943 1039.35 49.0241 1039.35 45.6561Z" fill="white"/>
<path d="M647.318 164.659C648.806 164.659 650.012 163.453 650.012 161.965C650.012 160.477 648.806 159.271 647.318 159.271C645.83 159.271 644.624 160.477 644.624 161.965C644.624 163.453 645.83 164.659 647.318 164.659Z" fill="white"/>
<path d="M299.74 507.97C299.74 505.725 297.944 503.929 295.699 503.929C293.453 503.929 291.657 505.725 291.657 507.97C291.657 510.216 293.453 512.012 295.699 512.012C297.944 512.012 299.74 510.216 299.74 507.97Z" fill="white"/>
<path d="M589.837 575.33C589.837 572.411 587.592 570.166 584.673 570.166C581.754 570.166 579.509 572.411 579.509 575.33C579.509 578.249 581.754 580.494 584.673 580.494C587.368 580.494 589.837 578.249 589.837 575.33Z" fill="white"/>
<path d="M382.818 402.44C382.818 400.419 381.021 398.623 379.001 398.623C376.98 398.623 375.184 400.419 375.184 402.44C375.184 404.461 376.98 406.257 379.001 406.257C381.021 406.482 382.818 404.685 382.818 402.44Z" fill="white"/>
<path d="M679.651 56.209C682.007 56.209 683.917 54.299 683.917 51.9429C683.917 49.5868 682.007 47.6768 679.651 47.6768C677.295 47.6768 675.385 49.5868 675.385 51.9429C675.385 54.299 677.295 56.209 679.651 56.209Z" fill="white"/>
<path d="M1066.97 212.933C1066.97 210.688 1065.17 208.667 1062.7 208.667C1060.23 208.667 1058.44 210.463 1058.44 212.933C1058.44 215.403 1060.23 217.199 1062.7 217.199C1065.17 217.199 1066.97 215.403 1066.97 212.933Z" fill="white"/>
<path d="M354.302 575.33C356.658 575.33 358.568 573.42 358.568 571.064C358.568 568.708 356.658 566.798 354.302 566.798C351.946 566.798 350.036 568.708 350.036 571.064C350.036 573.42 351.946 575.33 354.302 575.33Z" fill="white"/>
<path d="M223.848 357.308C223.848 354.838 221.827 352.817 219.357 352.817C216.888 352.817 214.867 354.838 214.867 357.308C214.867 359.778 216.888 361.799 219.357 361.799C221.827 361.799 223.848 359.778 223.848 357.308Z" fill="white"/>
<path d="M268.081 359.779C268.081 358.656 267.183 357.758 266.06 357.758C264.938 357.758 264.039 358.656 264.039 359.779C264.039 360.901 264.938 361.799 266.06 361.799C267.183 361.575 268.081 360.677 268.081 359.779Z" fill="white"/>
<path d="M1156.56 241.449C1156.56 239.653 1155.21 238.306 1153.42 238.306C1151.62 238.306 1150.27 239.653 1150.27 241.449C1150.27 243.245 1151.62 244.593 1153.42 244.593C1155.21 244.593 1156.56 243.245 1156.56 241.449Z" fill="white"/>
<path d="M941.232 226.855C941.232 225.283 939.885 224.16 938.538 224.16C936.966 224.16 935.843 225.507 935.843 226.855C935.843 228.426 937.19 229.549 938.538 229.549C939.885 229.549 941.232 228.426 941.232 226.855Z" fill="white"/>
<path d="M901.714 188.01C902.83 188.01 903.735 187.106 903.735 185.99C903.735 184.873 902.83 183.969 901.714 183.969C900.598 183.969 899.693 184.873 899.693 185.99C899.693 187.106 900.598 188.01 901.714 188.01Z" fill="white"/>
<path d="M404.822 244.593C404.822 241.449 402.352 238.979 399.209 238.979C396.065 238.979 393.595 241.449 393.595 244.593C393.595 247.736 396.065 250.206 399.209 250.206C402.352 250.206 404.822 247.736 404.822 244.593Z" fill="white"/>
<path d="M583.101 119.303C583.101 116.159 580.632 113.689 577.488 113.689C574.345 113.689 571.875 116.159 571.875 119.303C571.875 122.446 574.345 124.916 577.488 124.916C580.632 124.692 583.101 122.222 583.101 119.303Z" fill="white"/>
<path d="M782.712 151.86C782.712 148.717 780.242 146.247 777.098 146.247C773.955 146.247 771.485 148.717 771.485 151.86C771.485 155.004 773.955 157.474 777.098 157.474C780.242 157.474 782.712 155.004 782.712 151.86Z" fill="white"/>
<path d="M1240.09 429.159C1240.98 430.057 1242.11 430.057 1243 429.159C1243.9 428.261 1243.9 427.138 1243 426.24C1242.11 425.342 1240.98 425.342 1240.09 426.24C1239.19 427.138 1239.41 428.261 1240.09 429.159Z" fill="white"/>
<path d="M1170.26 493.6C1171.38 494.723 1173.4 494.723 1174.52 493.6C1175.64 492.478 1175.64 490.457 1174.52 489.334C1173.4 488.212 1171.38 488.212 1170.26 489.334C1169.13 490.457 1169.13 492.253 1170.26 493.6Z" fill="white"/>
<path d="M994.222 333.283C995.71 333.283 996.916 332.077 996.916 330.589C996.916 329.101 995.71 327.895 994.222 327.895C992.734 327.895 991.527 329.101 991.527 330.589C991.527 332.077 992.734 333.283 994.222 333.283Z" fill="white"/>
<path d="M1049.01 435.671C1051.36 435.671 1053.27 433.761 1053.27 431.405C1053.27 429.049 1051.36 427.139 1049.01 427.139C1046.65 427.139 1044.74 429.049 1044.74 431.405C1044.74 433.761 1046.65 435.671 1049.01 435.671Z" fill="white"/>
<path d="M1106.04 562.083C1106.94 562.981 1108.29 562.981 1108.96 562.083C1109.63 561.185 1109.86 559.837 1108.96 559.164C1108.06 558.266 1106.71 558.266 1106.04 559.164C1105.37 559.837 1105.37 561.185 1106.04 562.083Z" fill="white"/>
<path d="M558.178 458.348C559.301 459.471 561.097 459.471 562.22 458.348C563.342 457.226 563.342 455.43 562.22 454.307C561.097 453.184 559.301 453.184 558.178 454.307C557.055 455.43 557.055 457.226 558.178 458.348Z" fill="white"/>
<path d="M783.385 564.104C784.059 564.778 785.406 564.778 786.08 564.104C786.753 563.43 786.753 562.083 786.08 561.409C785.406 560.736 784.059 560.736 783.385 561.409C782.712 562.083 782.712 563.206 783.385 564.104Z" fill="white"/>
<path d="M1205.73 480.802C1207.34 480.802 1208.65 479.495 1208.65 477.883C1208.65 476.271 1207.34 474.964 1205.73 474.964C1204.12 474.964 1202.81 476.271 1202.81 477.883C1202.81 479.495 1204.12 480.802 1205.73 480.802Z" fill="white"/>
<path d="M1073.71 317.117C1076.81 317.117 1079.32 314.604 1079.32 311.504C1079.32 308.404 1076.81 305.891 1073.71 305.891C1070.61 305.891 1068.09 308.404 1068.09 311.504C1068.09 314.604 1070.61 317.117 1073.71 317.117Z" fill="white"/>
<path d="M909.348 435.222C912.449 435.222 914.962 432.709 914.962 429.608C914.962 426.508 912.449 423.995 909.348 423.995C906.248 423.995 903.735 426.508 903.735 429.608C903.735 432.709 906.248 435.222 909.348 435.222Z" fill="white"/>
<path d="M512.823 321.158C515.923 321.158 518.436 318.645 518.436 315.545C518.436 312.445 515.923 309.932 512.823 309.932C509.722 309.932 507.209 312.445 507.209 315.545C507.209 318.645 509.722 321.158 512.823 321.158Z" fill="white"/>
<path d="M431.317 241.899C431.317 240.327 429.97 239.204 428.623 239.204C427.051 239.204 425.928 240.551 425.928 241.899C425.928 243.246 427.275 244.593 428.623 244.593C429.97 244.593 431.317 243.47 431.317 241.899Z" fill="white"/>
<path d="M276.389 221.016C276.389 218.771 274.593 217.199 272.572 217.199C270.551 217.199 268.755 218.996 268.755 221.016C268.755 223.262 270.551 224.833 272.572 224.833C274.593 224.833 276.389 223.262 276.389 221.016Z" fill="white"/>
</g>
</g>
</g>
<defs>
<radialGradient id="paint0_radial_30_226" cx="0" cy="0" r="1" gradientUnits="userSpaceOnUse" gradientTransform="translate(2.73814 1156.58) scale(1118.22 1396.72)">
<stop stop-color="#400A46"/>
<stop offset="0.3326" stop-color="#340A41"/>
<stop offset="0.9337" stop-color="#140A35"/>
<stop offset="1" stop-color="#100A33"/>
</radialGradient>
<radialGradient id="paint1_radial_30_226" cx="0" cy="0" r="1" gradientUnits="userSpaceOnUse" gradientTransform="translate(1042.76 179.218) rotate(180) scale(26.3972 26.5476)">
<stop stop-color="#FA316D"/>
<stop offset="0.0484923" stop-color="#D92B65" stop-opacity="0.9513"/>
<stop offset="0.1186" stop-color="#B0235C" stop-opacity="0.881"/>
<stop offset="0.1951" stop-color="#8B1C53" stop-opacity="0.8042"/>
<stop offset="0.2772" stop-color="#6C174C" stop-opacity="0.7219"/>
<stop offset="0.3664" stop-color="#531246" stop-opacity="0.6323"/>
<stop offset="0.4658" stop-color="#400E42" stop-opacity="0.5326"/>
<stop offset="0.5808" stop-color="#320C3E" stop-opacity="0.4171"/>
<stop offset="0.7257" stop-color="#2A0A3D" stop-opacity="0.2718"/>
<stop offset="0.9965" stop-color="#280A3C" stop-opacity="0"/>
</radialGradient>
<radialGradient id="paint2_radial_30_226" cx="0" cy="0" r="1" gradientUnits="userSpaceOnUse" gradientTransform="translate(1042.77 179.234) rotate(-90) scale(26.3972 26.5476)">
<stop stop-color="#FA316D"/>
<stop offset="0.0484923" stop-color="#D92B65" stop-opacity="0.9513"/>
<stop offset="0.1186" stop-color="#B0235C" stop-opacity="0.881"/>
<stop offset="0.1951" stop-color="#8B1C53" stop-opacity="0.8042"/>
<stop offset="0.2772" stop-color="#6C174C" stop-opacity="0.7219"/>
<stop offset="0.3664" stop-color="#531246" stop-opacity="0.6323"/>
<stop offset="0.4658" stop-color="#400E42" stop-opacity="0.5326"/>
<stop offset="0.5808" stop-color="#320C3E" stop-opacity="0.4171"/>
<stop offset="0.7257" stop-color="#2A0A3D" stop-opacity="0.2718"/>
<stop offset="0.9965" stop-color="#280A3C" stop-opacity="0"/>
</radialGradient>
<radialGradient id="paint3_radial_30_226" cx="0" cy="0" r="1" gradientUnits="userSpaceOnUse" gradientTransform="translate(522.819 280.56) rotate(145.918) scale(14.9818 36.2526)">
<stop stop-color="#FFC66A"/>
<stop offset="0.0661016" stop-color="#D09E60" stop-opacity="0.9339"/>
<stop offset="0.1352" stop-color="#A77C57" stop-opacity="0.8648"/>
<stop offset="0.2106" stop-color="#825D4F" stop-opacity="0.7894"/>
<stop offset="0.2914" stop-color="#634348" stop-opacity="0.7086"/>
<stop offset="0.3794" stop-color="#4A2E42" stop-opacity="0.6206"/>
<stop offset="0.4773" stop-color="#371E3E" stop-opacity="0.5227"/>
<stop offset="0.5906" stop-color="#29133B" stop-opacity="0.4094"/>
<stop offset="0.7332" stop-color="#210C3A" stop-opacity="0.2668"/>
<stop offset="1" stop-color="#1F0A39" stop-opacity="0"/>
</radialGradient>
<radialGradient id="paint4_radial_30_226" cx="0" cy="0" r="1" gradientUnits="userSpaceOnUse" gradientTransform="translate(522.819 280.56) rotate(-124.082) scale(14.9819 36.2528)">
<stop stop-color="#FFC66A"/>
<stop offset="0.0661016" stop-color="#D09E60" stop-opacity="0.9339"/>
<stop offset="0.1352" stop-color="#A77C57" stop-opacity="0.8648"/>
<stop offset="0.2106" stop-color="#825D4F" stop-opacity="0.7894"/>
<stop offset="0.2914" stop-color="#634348" stop-opacity="0.7086"/>
<stop offset="0.3794" stop-color="#4A2E42" stop-opacity="0.6206"/>
<stop offset="0.4773" stop-color="#371E3E" stop-opacity="0.5227"/>
<stop offset="0.5906" stop-color="#29133B" stop-opacity="0.4094"/>
<stop offset="0.7332" stop-color="#210C3A" stop-opacity="0.2668"/>
<stop offset="1" stop-color="#1F0A39" stop-opacity="0"/>
</radialGradient>
<clipPath id="clip0_30_226">
<rect width="1440" height="583" fill="white"/>
</clipPath>
</defs>
</svg>
