<svg width="33" height="80" viewBox="0 0 33 80" fill="none" xmlns="http://www.w3.org/2000/svg">
<path d="M16.5 73.8984C16.1068 73.8984 15.7 73.8713 15.3068 73.8306C10.5746 73.3018 6.66953 69.3425 6.19496 64.5967C5.78818 60.4882 7.75428 56.6645 11.3068 54.5899L13.3272 53.4103V9.27469C13.3272 7.52554 14.7509 6.10181 16.5 6.10181C18.2492 6.10181 19.6729 7.52554 19.6729 9.27469V53.4103L21.6933 54.5899C24.8797 56.4476 26.8594 59.8781 26.8594 63.5391C26.8594 66.3052 25.7882 68.9086 23.8221 70.8611C22.8646 71.8285 21.724 72.5953 20.4668 73.1168C19.2096 73.6383 17.8611 73.904 16.5 73.8984Z" fill="#37B5A5"/>
<path d="M32.4729 59.566C32.7983 60.8542 32.961 62.1965 32.961 63.5389C32.961 64.6643 32.0525 65.5728 30.9271 65.5728C29.8017 65.5728 28.8932 64.6643 28.8932 63.5389C28.8932 62.5219 28.7712 61.5186 28.5271 60.5423C28.2559 59.4575 28.9203 58.3457 30.0051 58.0745C31.0898 57.8033 32.2017 58.4677 32.4729 59.566Z" fill="white"/>
<path d="M28.595 71.6746C29.4222 72.4203 29.49 73.7085 28.7442 74.5492C25.5713 78.0746 21.2052 80 16.5272 80C15.9035 80 15.2662 79.9729 14.6289 79.8915C6.98148 79.0508 0.879785 72.8678 0.120463 65.1932C-0.476147 59.1864 2.28995 53.3288 7.22555 49.9525V9.27458C7.22555 4.16271 11.3883 0 16.5001 0C21.612 0 25.7747 4.16271 25.7747 9.27458V49.9525C26.5069 50.4542 27.1984 51.0237 27.8493 51.6339C28.2232 52.0098 28.4355 52.5168 28.441 53.047C28.4466 53.5771 28.2449 54.0885 27.879 54.4721C27.513 54.8557 27.0117 55.0813 26.4819 55.1008C25.9521 55.1202 25.4356 54.932 25.0425 54.5763C24.3374 53.9119 23.551 53.3153 22.7239 52.8407C22.0866 52.4746 21.7069 51.7966 21.7069 51.078V50.4271H16.5001C15.3747 50.4271 14.4662 49.5186 14.4662 48.3932C14.4662 47.2678 15.3747 46.3593 16.5001 46.3593H21.7069V38.5898H16.5001C15.3747 38.5898 14.4662 37.6814 14.4662 36.5559C14.4662 35.4305 15.3747 34.522 16.5001 34.522H21.7069V26.7525H16.5001C15.3747 26.7525 14.4662 25.8441 14.4662 24.7186C14.4662 23.5932 15.3747 22.6847 16.5001 22.6847H21.7069V14.9153H16.5001C15.3747 14.9153 14.4662 14.0068 14.4662 12.8814C14.4662 11.7559 15.3747 10.8475 16.5001 10.8475H21.7069V9.27458C21.6759 7.91423 21.1137 6.62005 20.1406 5.66893C19.1675 4.7178 17.8608 4.18528 16.5001 4.18528C15.1394 4.18528 13.8328 4.7178 12.8597 5.66893C11.8866 6.62005 11.3244 7.91423 11.2933 9.27458V51.078C11.2933 51.7966 10.9137 52.4746 10.29 52.8271C6.03233 55.3085 3.68656 59.8915 4.1747 64.8C4.73063 70.4814 9.42216 75.2271 15.0764 75.8508C19.1442 76.3119 23.0086 74.8339 25.7205 71.8237C26.4662 70.9966 27.7544 70.9153 28.595 71.6746Z" fill="white"/>
<path d="M21.5034 58.617C22.161 59.2737 22.6827 60.0537 23.0387 60.9122C23.3946 61.7707 23.5778 62.691 23.5778 63.6204C23.5778 64.5498 23.3946 65.47 23.0387 66.3286C22.6827 67.1871 22.161 67.967 21.5034 68.6238C20.1204 70.0068 18.317 70.6984 16.5 70.6984C14.6831 70.6984 12.8797 70.0068 11.4966 68.6238C10.839 67.967 10.3173 67.1871 9.96138 66.3286C9.60543 65.47 9.42222 64.5498 9.42222 63.6204C9.42222 62.691 9.60543 61.7707 9.96138 60.9122C10.3173 60.0537 10.839 59.2737 11.4966 58.617C12.2831 57.817 13.5712 57.817 14.3712 58.617C15.1712 59.417 15.1712 60.6916 14.3712 61.4916C13.1915 62.6712 13.1915 64.5695 14.3712 65.7492C15.5509 66.9289 17.4627 66.9289 18.6288 65.7492C19.8085 64.5695 19.8085 62.6712 18.6288 61.4916C17.8288 60.6916 17.8288 59.417 18.6288 58.617C19.4288 57.817 20.717 57.817 21.5034 58.617ZM4.1068 16.1899V40C4.1068 41.1255 3.19832 42.0339 2.0729 42.0339C0.947476 42.0339 0.0390015 41.1255 0.0390015 40V16.1899C0.0390015 15.0645 0.947476 14.156 2.0729 14.156C3.19832 14.156 4.1068 15.0645 4.1068 16.1899ZM4.1068 8.74581V10.0882C4.1068 11.2136 3.19832 12.1221 2.0729 12.1221C0.947476 12.1221 0.0390015 11.2136 0.0390015 10.0882V8.74581C0.0390015 7.62039 0.947476 6.71191 2.0729 6.71191C3.19832 6.71191 4.1068 7.62039 4.1068 8.74581Z" fill="white"/>
</svg>
