<svg width="1440" height="1024" viewBox="0 0 1440 1024" fill="none" xmlns="http://www.w3.org/2000/svg">
<ellipse opacity="0.1" cx="461.946" cy="464.841" rx="461.946" ry="464.841" transform="matrix(0.936718 -0.350084 -0.350084 -0.936718 450.628 1120.62)" fill="#8D58B7"/>
<ellipse opacity="0.2" cx="442.268" cy="445.04" rx="442.268" ry="445.04" transform="matrix(0.936718 -0.350084 -0.350084 -0.936718 462.128 1095.19)" fill="#8D58B7"/>
<path d="M1036.15 230.792C976.278 167.227 899.063 122.851 814.268 103.277C729.474 83.7039 640.91 89.8125 559.777 120.83C659.46 139.823 750.525 190.574 819.458 265.552C873.254 324.416 959.496 291.655 1036.15 230.792Z" fill="#ECE4F9"/>
<path d="M1125.47 371.172C1104.67 319.257 1074.37 271.69 1036.13 230.947C959.48 291.809 873.238 324.57 819.442 265.707C750.509 190.728 659.445 139.977 559.761 120.985C524.594 134.523 491.335 152.579 460.812 174.706C591.09 198.63 704.448 325.653 815.886 416.171C929.871 517.323 1038.5 466.544 1125.47 371.172Z" fill="#D6C3ED"/>
<path d="M345.902 767.703C381.186 824.2 428.72 871.981 484.935 907.458C541.15 942.935 604.583 965.185 670.469 972.536C677.458 973.322 684.446 974.109 691.435 974.895C592.923 868.536 476.888 780.742 345.902 767.703Z" fill="#65377F"/>
<path d="M320.513 599.003C307.988 591.109 294.584 584.728 280.579 579.994C287.831 646.694 310.176 710.903 345.903 767.702C476.889 780.742 593.38 868.587 691.485 974.437C792.498 981.242 892.586 952.605 974.649 893.419C709.333 972.894 515.359 731.797 320.513 599.003Z" fill="#794899"/>
<path d="M1006.59 739.204C737.309 796.923 544.406 611.691 362.227 439.71C343.517 422.99 319.512 413.5 294.527 412.945C287.882 436.376 283.199 460.332 280.529 484.563C277.171 516.273 277.188 548.265 280.578 579.998C294.583 584.732 307.987 591.113 320.512 599.007C515.358 731.801 709.332 972.898 974.647 893.424C1047.84 840.628 1102.95 766.38 1132.49 680.795C1095.99 710.402 1052.75 730.466 1006.59 739.204Z" fill="#8D58B7"/>
<path d="M362.228 439.709C543.713 610.994 736.919 796.26 1006.66 738.593C1052.73 730.024 1095.95 710.172 1132.49 680.793C1143.63 648.995 1151.1 616.002 1154.74 582.463C1156.05 570.257 1157.35 558.204 1156.95 546.115C1093.97 569.912 1023.56 581.291 959.343 595.066C727.282 656.973 637.128 445.625 476.255 314.336C461.622 299.121 443.76 287.421 424.012 280.118C404.264 272.814 383.143 270.096 362.237 272.168C331.405 314.584 308.468 362.273 294.528 412.944C319.513 413.498 343.518 422.989 362.228 439.709Z" fill="#A177C9"/>
<path d="M476.205 314.795C637.382 446.117 727.231 657.431 959.293 595.525C1023.51 581.75 1093.87 570.828 1156.9 546.574C1158.46 486.612 1147.76 426.915 1125.47 371.172C1038.33 466.679 929.853 517.475 815.884 416.171C704.463 325.5 591.088 198.629 460.729 175.469C422.858 202.676 389.562 235.781 362.088 273.542C382.939 271.338 404.036 273.904 423.798 281.048C443.561 288.192 461.477 299.729 476.205 314.795Z" fill="#BA9CDB"/>
<path opacity="0.2" d="M885.469 126.282C892.904 167.787 894.362 210.127 889.798 252C882.345 320.08 859.228 385.421 822.273 442.858C785.318 500.296 735.538 548.255 676.868 582.948C618.198 617.64 552.245 638.114 484.222 642.751C416.198 647.388 347.969 636.062 284.925 609.667C298.336 685.23 331.085 756.062 379.949 815.191C428.814 874.321 492.109 919.71 563.604 946.89C635.1 974.07 712.332 982.106 787.698 970.205C863.064 958.304 933.966 926.877 993.425 879.017C1052.88 831.158 1098.85 768.515 1126.8 697.256C1154.75 625.997 1163.72 548.577 1152.83 472.618C1141.93 396.658 1111.55 324.777 1064.67 264.049C1017.79 203.322 956.031 155.841 885.469 126.282Z" fill="url(#paint0_linear_30_344)"/>
<path opacity="0.7" d="M652.667 183.631C663.847 202.647 647.274 233.828 614.431 253.295C581.588 272.762 546.338 273.119 534.99 254.239C523.641 235.358 541.278 204.298 574.039 185.594C606.8 166.889 641.47 164.768 652.667 183.631Z" fill="white"/>
<path d="M1372.7 87.2736C1371.12 101.939 1365.25 115.788 1355.83 127.069C1346.41 138.35 1333.85 146.557 1319.76 150.651C1305.67 154.745 1290.66 154.543 1276.65 150.07C1262.63 145.598 1250.23 137.055 1241.02 125.524C1231.81 113.992 1226.2 99.9881 1224.9 85.2839C1223.59 70.5796 1226.66 55.8351 1233.7 42.9147C1240.74 29.9944 1251.45 19.4785 1264.47 12.697C1277.49 5.91548 1292.23 3.17286 1306.83 4.81596C1326.4 7.05821 1344.31 16.9938 1356.66 32.4479C1369 47.902 1374.77 67.6157 1372.7 87.2736Z" fill="#ECE4F9"/>
<path opacity="0.2" d="M1324.93 9.47703C1334.81 22.3627 1340.23 38.1189 1340.38 54.3478C1340.54 70.5767 1335.41 86.3895 1325.78 99.3795C1316.15 112.37 1302.55 121.825 1287.04 126.308C1271.53 130.791 1254.97 130.055 1239.88 124.212C1246.74 133.654 1255.71 141.357 1266.05 146.701C1276.4 152.046 1287.83 154.883 1299.45 154.985C1311.06 155.088 1322.53 152.452 1332.92 147.29C1343.31 142.128 1352.35 134.584 1359.3 125.264C1366.25 115.943 1370.92 105.107 1372.93 93.6237C1374.95 82.1408 1374.25 70.332 1370.9 59.1459C1367.55 47.9598 1361.64 37.7082 1353.64 29.2145C1345.65 20.7209 1335.78 14.222 1324.85 10.2399L1324.93 9.47703Z" fill="black"/>
<path d="M1128.47 126.772C1133.04 132.492 1135.81 139.436 1136.46 146.726C1137.1 154.016 1135.58 161.325 1132.09 167.73C1128.59 174.135 1123.28 179.347 1116.83 182.709C1110.38 186.07 1103.07 187.429 1095.83 186.614C1088.59 185.8 1081.74 182.848 1076.15 178.132C1070.57 173.416 1066.49 167.147 1064.44 160.119C1062.39 153.09 1062.46 145.617 1064.63 138.644C1066.81 131.671 1071 125.511 1076.67 120.943C1080.43 117.907 1084.76 115.65 1089.41 114.3C1094.05 112.95 1098.92 112.533 1103.73 113.075C1108.54 113.616 1113.2 115.104 1117.45 117.455C1121.69 119.805 1125.44 122.971 1128.47 126.772Z" fill="#D6C3ED"/>
<path opacity="0.2" d="M1085 116.324C1094.43 117.48 1103.03 122.333 1108.92 129.824C1115.02 137.537 1117.86 147.346 1116.81 157.117C1115.76 166.888 1110.91 175.832 1103.32 182.004C1100.9 183.946 1098.25 185.568 1095.42 186.829C1100.35 187.484 1105.36 187.143 1110.14 185.826C1114.93 184.508 1119.41 182.241 1123.3 179.157C1130.46 173.595 1135.3 165.569 1136.92 156.617C1138.54 147.664 1136.81 138.413 1132.07 130.634C1127.33 122.855 1119.91 117.094 1111.22 114.454C1102.54 111.814 1093.2 112.48 1085 116.324Z" fill="black"/>
<defs>
<linearGradient id="paint0_linear_30_344" x1="497.024" y1="318.523" x2="1177.13" y2="975.712" gradientUnits="userSpaceOnUse">
<stop/>
<stop offset="0.57"/>
<stop offset="0.61"/>
<stop offset="1" stop-color="#404040"/>
</linearGradient>
</defs>
</svg>
