<svg width="1440" height="1024" viewBox="0 0 1440 1024" fill="none" xmlns="http://www.w3.org/2000/svg">
<circle opacity="0.1" cx="690.5" cy="690.5" r="690.5" transform="matrix(0.936718 -0.350084 -0.350084 -0.936718 -19.8175 2081.95)" fill="#8D58B7"/>
<circle opacity="0.2" cx="661.086" cy="661.086" r="661.086" transform="matrix(0.936718 -0.350084 -0.350084 -0.936718 -2.56207 2044.1)" fill="#8D58B7"/>
<path d="M857.446 757.34C768.216 663.026 653.021 597.293 526.43 568.454C399.839 539.615 267.539 548.967 146.263 595.325C295.094 623.255 430.955 698.423 533.686 809.675C613.857 897.017 742.77 848.052 857.446 757.34Z" fill="#ECE4F9"/>
<path d="M990.431 965.754C959.524 888.642 914.405 818.022 857.422 757.57C742.746 848.281 613.833 897.247 533.662 809.905C430.931 698.652 295.07 623.484 146.239 595.555C93.671 615.787 43.9397 642.732 -1.71792 675.719C192.795 710.886 361.722 899.371 527.891 1033.6C697.833 1183.62 860.237 1107.8 990.431 965.754Z" fill="#D6C3ED"/>
<path d="M-149.775 1069.97C120.773 1324.05 408.785 1598.87 811.848 1512.32C880.693 1499.44 945.306 1469.8 999.972 1426.01C1016.71 1378.71 1027.96 1329.64 1033.51 1279.77C1035.5 1261.62 1037.47 1243.7 1036.92 1225.73C942.776 1261.3 837.569 1278.43 741.616 1299.1C394.815 1391.84 260.805 1077.93 20.922 883.245C-0.887957 860.67 -27.5312 843.333 -57.0053 832.535C-86.4793 821.738 -118.017 817.762 -149.249 820.906C-195.43 884.056 -229.835 955.021 -250.811 1030.39C-213.495 1031.14 -177.669 1045.17 -149.775 1069.97Z" fill="#A177C9"/>
<path d="M20.8453 883.927C261.182 1078.66 394.738 1392.52 741.539 1299.78C837.492 1279.11 942.624 1262.66 1036.85 1226.41C1039.35 1137.27 1023.55 1048.55 990.429 965.754C859.983 1108 697.806 1183.84 527.889 1033.59C361.744 899.143 192.792 710.885 -1.84494 676.852C-58.4919 717.413 -108.325 766.729 -149.475 822.949C-118.325 819.609 -86.8227 823.359 -57.327 833.919C-27.8314 844.479 -1.10695 861.575 20.8453 883.927Z" fill="#BA9CDB"/>
<path opacity="0.2" d="M632.706 602.435C643.685 664.114 645.734 727.052 638.79 789.314C627.45 890.544 592.721 987.75 537.349 1073.25C481.977 1158.75 407.479 1230.2 319.742 1281.95C232.005 1333.7 133.434 1364.34 31.8184 1371.44C-69.7969 1378.54 -171.671 1361.91 -265.754 1322.87C-245.955 1435.16 -197.256 1540.35 -124.452 1628.11C-51.6473 1715.86 42.7531 1783.14 149.458 1823.33C256.162 1863.52 371.493 1875.23 484.097 1857.3C596.702 1839.38 702.698 1792.45 791.654 1721.12C880.609 1649.79 949.458 1556.52 991.421 1450.51C1033.39 1344.49 1047.02 1229.37 1030.98 1116.48C1014.94 1003.59 969.78 896.826 899.945 806.692C830.111 716.558 738.01 646.163 632.706 602.435Z" fill="url(#paint0_linear_30_344)"/>
<path opacity="0.7" d="M284.813 688.401C301.454 716.636 276.605 763.039 227.491 792.079C178.376 821.119 125.726 821.758 108.833 793.725C91.9398 765.692 118.377 719.464 167.367 691.558C216.357 663.653 268.147 660.393 284.813 688.401Z" fill="white"/>
<path d="M1360.56 542.957C1358.17 564.764 1349.36 585.369 1335.25 602.168C1321.14 618.968 1302.36 631.206 1281.3 637.335C1260.24 643.465 1237.83 643.21 1216.91 636.604C1195.99 629.998 1177.5 617.337 1163.77 600.221C1150.05 583.106 1141.71 562.306 1139.81 540.451C1137.9 518.595 1142.53 496.667 1153.09 477.438C1163.65 458.209 1179.67 442.544 1199.14 432.423C1218.6 422.301 1240.63 418.179 1262.43 420.577C1291.65 423.851 1318.38 438.566 1336.77 461.503C1355.16 484.439 1363.72 513.728 1360.56 542.957Z" fill="#ECE4F9"/>
<path opacity="0.2" d="M1289.46 427.451C1304.17 446.576 1312.22 469.983 1312.4 494.108C1312.58 518.234 1304.87 541.756 1290.44 561.097C1276.02 580.437 1255.67 594.536 1232.5 601.247C1209.33 607.958 1184.6 606.915 1162.07 598.275C1172.29 612.29 1185.65 623.714 1201.09 631.627C1216.53 639.541 1233.6 643.724 1250.95 643.84C1268.29 643.957 1285.42 640.004 1300.96 632.299C1316.51 624.593 1330.02 613.351 1340.43 599.474C1350.84 585.597 1357.84 569.473 1360.89 552.396C1363.94 535.32 1362.93 517.767 1357.96 501.148C1353 484.529 1344.2 469.307 1332.28 456.705C1320.36 444.103 1305.65 434.471 1289.33 428.585L1289.46 427.451Z" fill="black"/>
<path d="M995.659 602.422C1002.46 610.91 1006.59 621.224 1007.53 632.06C1008.47 642.896 1006.17 653.767 1000.93 663.298C995.696 672.83 987.75 680.595 978.099 685.612C968.449 690.628 957.528 692.671 946.717 691.482C935.906 690.293 925.69 685.926 917.361 678.932C909.031 671.939 902.962 662.632 899.92 652.19C896.879 641.748 897.002 630.638 900.273 620.265C903.544 609.893 909.817 600.723 918.299 593.914C923.935 589.39 930.408 586.021 937.348 583.999C944.288 581.978 951.557 581.344 958.742 582.135C965.927 582.925 972.885 585.123 979.219 588.604C985.554 592.085 991.14 596.78 995.659 602.422Z" fill="#D6C3ED"/>
<path opacity="0.2" d="M930.766 587.021C944.836 588.711 957.665 595.9 966.452 607.018C975.541 618.465 979.743 633.038 978.146 647.567C976.548 662.096 969.279 675.407 957.92 684.605C954.306 687.5 950.336 689.918 946.107 691.802C953.469 692.761 960.948 692.239 968.105 690.266C975.261 688.293 981.952 684.908 987.781 680.312C998.481 672.021 1005.75 660.076 1008.19 646.762C1010.63 633.448 1008.08 619.701 1001.02 608.152C993.964 596.602 982.894 588.06 969.932 584.162C956.969 580.263 943.025 581.282 930.766 587.021Z" fill="black"/>
<defs>
<linearGradient id="paint0_linear_30_344" x1="51.9303" y1="889.405" x2="1060.99" y2="1869.2" gradientUnits="userSpaceOnUse">
<stop/>
<stop offset="0.57"/>
<stop offset="0.61"/>
<stop offset="1" stop-color="#404040"/>
</linearGradient>
</defs>
</svg>
