<svg width="80" height="80" viewBox="0 0 80 80" fill="none" xmlns="http://www.w3.org/2000/svg">
<g clip-path="url(#clip0_5_1824)">
<path d="M46.9 17.7334C54.2 20 60 25.8 62.2667 33.1C62.9 35.2 64.8 36.6667 66.9667 36.6667H67.1C70.4333 36.6667 72.8333 33.4667 71.8667 30.3C68.6333 19.7 60.2667 11.3334 49.6667 8.10003C46.5333 7.13336 43.3333 9.53336 43.3333 12.8667V13C43.3333 15.2 44.8 17.1 46.9 17.7334ZM62.2667 46.9C60 54.2334 54.2 60 46.9 62.2667C44.8 62.9 43.3333 64.8 43.3333 66.9667V67.1C43.3333 70.4334 46.5333 72.8334 49.7 71.8667C60.3 68.6334 68.6667 60.2667 71.9 49.6667C72.8667 46.5 70.4667 43.3 67.1667 43.3H67C64.8 43.3334 62.9 44.8 62.2667 46.9ZM36.6667 67.0334C36.6667 64.8 35.1667 62.9 33.0333 62.2334C23.5667 59.2667 16.6667 50.4334 16.6667 40C16.6667 29.5667 23.5667 20.7334 33.0333 17.7667C35.1667 17.1 36.6667 15.2 36.6667 12.9667V12.9334C36.6667 9.60003 33.4333 7.13336 30.2333 8.13336C16.6 12.3 6.66667 25 6.66667 40C6.66667 55 16.6 67.7 30.2333 71.8667C33.4333 72.8667 36.6667 70.4 36.6667 67.0334Z" fill="white"/>
</g>
<defs>
<clipPath id="clip0_5_1824">
<rect width="80" height="80" fill="white"/>
</clipPath>
</defs>
</svg>
