<svg width="200" height="211" viewBox="0 0 200 211" fill="none" xmlns="http://www.w3.org/2000/svg">
<path d="M89.1746 0.438188C91.002 0.438188 92.8294 0.438188 94.6567 0.438188C115.489 0.438188 135.224 6.66202 151.67 17.2792C149.112 18.3775 146.919 19.4758 144.726 20.5741C124.26 27.8963 104.159 18.3775 89.1746 0.438188Z" fill="#FCFCFC"/>
<path d="M89.1747 0.438188C103.794 18.3775 124.26 27.8963 144.361 20.208C146.554 19.1097 148.747 18.0114 151.305 16.9131C160.807 23.1369 168.847 30.4591 175.791 38.8795C170.309 36.3168 164.462 34.1201 158.98 31.9235C138.148 26.0658 114.392 52.7917 102.697 34.8524C90.2712 19.1097 74.1904 9.957 57.7442 6.66203C67.9774 3.36705 78.2106 1.1704 89.1747 0.438188Z" fill="#EFEFEF"/>
<path d="M58.1095 7.02799C74.5557 10.323 90.6364 19.8418 103.062 35.2183C115.123 53.1576 138.879 26.4317 159.345 32.2895C164.827 34.4861 170.675 36.6828 176.157 39.2455C177.984 41.8083 180.177 44.371 181.639 46.9338C172.867 43.2727 162.269 45.8355 156.421 50.2288C141.437 59.0154 123.894 76.9547 103.062 68.1681C85.1543 59.3815 79.3068 35.5844 64.3225 26.7978C50.0691 18.0112 36.1812 26.0656 21.9278 30.0928C32.161 19.8418 44.587 12.1535 58.1095 7.02799Z" fill="#E5E5E5"/>
<path d="M21.9281 29.7268C36.1814 25.6996 50.0693 17.6452 64.3227 26.4318C79.307 35.2184 85.1546 59.0154 103.063 67.802C123.895 76.5886 141.803 59.0154 156.421 49.8627C162.634 46.2017 172.868 43.2728 181.639 46.9339C186.39 54.256 190.41 62.3104 193.334 70.7309C178.35 63.4087 162.269 79.1514 150.208 88.6702C120.605 109.538 73.094 103.681 58.1097 64.8732C49.3384 44.005 25.5828 67.802 10.5984 61.9443C7.3092 60.4799 4.38545 58.2832 1.82714 55.7205C7.30921 46.2017 13.8877 37.4151 21.9281 29.7268Z" fill="#DBDBDB"/>
<path d="M129.011 204.36C118.047 208.021 106.717 210.218 94.6566 210.218C92.0983 210.218 89.1746 210.218 86.6163 209.852C100.87 206.191 115.854 199.967 129.011 204.36Z" fill="#8C8C8C"/>
<path d="M64.3225 186.787C82.2306 186.787 96.8495 207.655 114.758 195.574C126.818 188.252 142.899 184.957 157.883 188.618C149.112 195.208 139.61 200.333 129.011 203.994C115.488 199.967 100.87 205.825 86.2508 209.486C72.7284 208.388 59.9369 204.726 48.2418 199.235C53.3584 193.377 57.744 186.787 64.3225 186.787Z" fill="#9B9B9B"/>
<path d="M1.09612 152.739C17.5423 158.231 33.9885 179.831 49.3383 183.492C67.2464 186.421 85.1545 168.482 96.8496 171.777C126.453 174.706 153.132 183.492 176.888 156.766C178.715 156.766 182.37 155.668 185.659 156.766C178.715 169.214 169.213 180.197 157.518 188.618C142.533 184.957 126.453 188.252 114.392 195.574C96.4841 207.289 81.8653 186.787 63.9572 186.787C57.3787 186.787 52.993 193.377 47.8764 199.601C28.141 189.35 11.3293 172.875 1.09612 152.739Z" fill="#AAAAAA"/>
<path d="M25.9481 130.407C34.7194 145.417 38.0087 160.061 52.6275 165.919C70.5356 171.777 79.3069 154.204 91.3675 150.909C120.971 145.051 153.863 174.706 177.619 135.898C179.811 133.701 188.948 127.844 195.892 133.335C193.334 141.756 190.045 149.444 186.025 156.766C182.735 156.034 179.081 156.766 177.253 156.766C153.498 183.492 126.818 174.706 97.215 171.777C85.1545 168.848 67.6118 186.787 49.7037 183.492C34.354 179.465 17.5423 158.231 1.46155 152.739C-3.28958 143.586 -6.57883 133.335 -8.40618 122.718C3.65437 124.183 15.7149 117.593 25.9481 130.407Z" fill="#B7B7B7"/>
<path d="M-7.67515 81.348C2.19257 83.5447 13.1567 85.0091 19.7352 91.599C31.7957 103.315 37.6433 121.254 55.5513 127.112C73.4594 132.969 88.0783 112.101 103.063 112.101C123.894 112.101 138.879 135.898 165.558 127.112C184.563 119.057 181.273 93.4296 198.816 91.599C199.182 95.9923 199.547 100.752 199.547 105.145C199.547 115.03 198.085 124.549 195.527 133.335C188.583 127.844 179.446 133.701 177.253 135.898C153.498 174.339 120.971 144.685 91.002 150.909C78.9415 153.837 70.1702 171.777 52.2621 165.919C37.2778 160.061 34.354 145.051 25.5827 130.407C15.715 117.959 3.28899 124.183 -9.13704 123.084C-10.2335 117.227 -10.5989 111.369 -10.5989 105.511C-10.2335 97.0907 -9.50251 89.0363 -7.67515 81.348Z" fill="#C1C1C1"/>
<path d="M165.558 127.112C138.879 135.898 123.894 112.101 103.062 112.101C88.0781 112.101 73.4592 132.969 55.5512 127.112C37.6431 121.254 31.7955 103.315 19.735 91.5991C13.1565 85.0091 2.19237 83.5447 -7.67535 81.348C-5.48253 72.1953 -2.19328 63.7748 1.82691 55.7205C4.38521 58.2832 7.30896 60.1138 10.5982 61.9443C25.5825 67.802 49.3382 44.005 58.1095 64.8732C73.0938 103.315 120.605 109.538 150.208 88.6702C162.269 79.1514 178.349 63.4087 193.334 70.7309C195.527 77.3208 197.354 84.2769 198.45 91.5991C180.908 93.4296 184.562 119.057 165.558 127.112Z" fill="#CCCCCC"/>
<path opacity="0.2" d="M65.3193 4.95752C62.761 14.1102 60.9336 23.9952 60.9336 34.2462C60.9336 92.0913 108.079 138.953 165.824 138.953C176.057 138.953 185.925 137.489 195.427 134.56C182.635 178.127 142.434 209.978 94.5569 209.978C36.447 209.978 -10.3333 163.116 -10.3333 105.271C-10.3333 58.0432 21.4627 17.7713 65.3193 4.95752Z" fill="url(#paint0_linear_5_455)"/>
<path opacity="0.7" d="M125.722 28.6285C122.433 32.6556 125.722 40.71 133.031 46.2017C140.341 51.6933 148.747 52.7916 152.036 48.3983C155.325 44.3711 152.036 36.3167 144.726 30.8251C137.051 25.3335 128.646 24.2352 125.722 28.6285Z" fill="white"/>
<defs>
<linearGradient id="paint0_linear_5_455" x1="152.494" y1="60.5554" x2="-25.1082" y2="198.488" gradientUnits="userSpaceOnUse">
<stop/>
<stop offset="0.5688"/>
<stop offset="0.6061"/>
<stop offset="1" stop-color="#404040"/>
</linearGradient>
</defs>
</svg>
