<svg width="1440" height="1024" viewBox="0 0 1440 1024" fill="none" xmlns="http://www.w3.org/2000/svg">
<path d="M540.889 26.3667C542.005 26.3667 542.91 25.4619 542.91 24.3459C542.91 23.2298 542.005 22.3251 540.889 22.3251C539.773 22.3251 538.868 23.2298 538.868 24.3459C538.868 25.4619 539.773 26.3667 540.889 26.3667Z" fill="white"/>
<path d="M736.907 356.206C736.907 355.083 736.009 354.185 734.886 354.185C733.763 354.185 732.865 355.083 732.865 356.206C732.865 357.329 733.763 358.227 734.886 358.227C736.009 358.227 736.907 357.329 736.907 356.206Z" fill="white"/>
<path d="M637.887 28.163C637.887 26.3667 636.54 25.0195 634.744 25.0195C632.948 25.0195 631.6 26.3667 631.6 28.163C631.6 29.9592 632.948 31.3064 634.744 31.3064C636.54 31.3064 637.887 29.9592 637.887 28.163Z" fill="white"/>
<path d="M1053.5 235.856C1055.23 235.856 1056.64 234.449 1056.64 232.713C1056.64 230.977 1055.23 229.569 1053.5 229.569C1051.76 229.569 1050.36 230.977 1050.36 232.713C1050.36 234.449 1051.76 235.856 1053.5 235.856Z" fill="white"/>
<path d="M874.321 181.295C874.321 179.274 872.525 177.478 870.504 177.478C868.483 177.478 866.687 179.274 866.687 181.295C866.687 183.315 868.483 185.112 870.504 185.112C872.749 185.336 874.321 183.54 874.321 181.295Z" fill="white"/>
<path d="M1144.43 128.305C1144.43 126.284 1142.86 124.712 1140.84 124.712C1138.82 124.712 1137.25 126.284 1137.25 128.305C1137.25 130.326 1138.82 131.897 1140.84 131.897C1142.86 131.897 1144.43 130.326 1144.43 128.305Z" fill="white"/>
<path d="M821.331 111.914C821.331 109.893 819.759 108.321 817.739 108.321C815.718 108.321 814.146 109.893 814.146 111.914C814.146 113.935 815.718 115.506 817.739 115.506C819.759 115.506 821.331 113.935 821.331 111.914Z" fill="white"/>
<path d="M877.914 471.392C877.914 469.371 876.342 467.799 874.321 467.799C872.3 467.799 870.729 469.371 870.729 471.392C870.729 473.413 872.3 474.984 874.321 474.984C876.342 474.984 877.914 473.188 877.914 471.392Z" fill="white"/>
<path d="M339.707 1005.56C339.707 1003.31 337.911 1001.74 335.89 1001.74C333.645 1001.74 332.073 1003.54 332.073 1005.56C332.073 1007.8 333.869 1009.37 335.89 1009.37C337.911 1009.37 339.707 1007.8 339.707 1005.56Z" fill="white"/>
<path d="M1039.35 151.656C1039.35 148.288 1036.66 145.369 1033.07 145.369C1029.7 145.369 1026.78 148.064 1026.78 151.656C1026.78 155.024 1029.47 157.943 1033.07 157.943C1036.66 157.943 1039.35 155.024 1039.35 151.656Z" fill="white"/>
<path d="M69.8181 822.786C69.8181 821.439 68.6955 820.317 67.3483 820.317C66.0011 820.317 64.8785 821.439 64.8785 822.786C64.8785 824.134 66.0011 825.256 67.3483 825.256C68.6955 825.256 69.8181 824.134 69.8181 822.786Z" fill="white"/>
<path d="M647.318 270.659C648.806 270.659 650.012 269.453 650.012 267.965C650.012 266.476 648.806 265.27 647.318 265.27C645.83 265.27 644.624 266.476 644.624 267.965C644.624 269.453 645.83 270.659 647.318 270.659Z" fill="white"/>
<path d="M398.31 14.0174C401.287 14.0174 403.699 11.6047 403.699 8.62853C403.699 5.65238 401.287 3.23975 398.31 3.23975C395.334 3.23975 392.922 5.65238 392.922 8.62853C392.922 11.6047 395.334 14.0174 398.31 14.0174Z" fill="white"/>
<path d="M299.74 613.97C299.74 611.725 297.944 609.929 295.699 609.929C293.453 609.929 291.657 611.725 291.657 613.97C291.657 616.216 293.453 618.012 295.699 618.012C297.944 618.012 299.74 616.216 299.74 613.97Z" fill="white"/>
<path d="M589.837 681.33C589.837 678.411 587.592 676.166 584.673 676.166C581.754 676.166 579.509 678.411 579.509 681.33C579.509 684.249 581.754 686.495 584.673 686.495C587.368 686.495 589.837 684.249 589.837 681.33Z" fill="white"/>
<path d="M620.823 703.784C622.683 703.784 624.191 702.276 624.191 700.416C624.191 698.556 622.683 697.048 620.823 697.048C618.963 697.048 617.455 698.556 617.455 700.416C617.455 702.276 618.963 703.784 620.823 703.784Z" fill="white"/>
<path d="M382.818 508.44C382.818 506.419 381.021 504.623 379.001 504.623C376.98 504.623 375.183 506.419 375.183 508.44C375.183 510.461 376.98 512.257 379.001 512.257C381.021 512.481 382.818 510.685 382.818 508.44Z" fill="white"/>
<path d="M679.651 162.209C682.007 162.209 683.917 160.299 683.917 157.943C683.917 155.587 682.007 153.677 679.651 153.677C677.295 153.677 675.385 155.587 675.385 157.943C675.385 160.299 677.295 162.209 679.651 162.209Z" fill="white"/>
<path d="M1066.97 318.934C1066.97 316.688 1065.17 314.667 1062.7 314.667C1060.23 314.667 1058.44 316.464 1058.44 318.934C1058.44 321.403 1060.23 323.2 1062.7 323.2C1065.17 323.2 1066.97 321.403 1066.97 318.934Z" fill="white"/>
<path d="M354.302 681.33C356.658 681.33 358.568 679.42 358.568 677.064C358.568 674.708 356.658 672.798 354.302 672.798C351.946 672.798 350.036 674.708 350.036 677.064C350.036 679.42 351.946 681.33 354.302 681.33Z" fill="white"/>
<path d="M1188.67 713.439C1190.9 713.439 1192.71 711.629 1192.71 709.397C1192.71 707.165 1190.9 705.355 1188.67 705.355C1186.44 705.355 1184.63 707.165 1184.63 709.397C1184.63 711.629 1186.44 713.439 1188.67 713.439Z" fill="white"/>
<path d="M223.848 463.309C223.848 460.839 221.827 458.818 219.357 458.818C216.888 458.818 214.867 460.839 214.867 463.309C214.867 465.778 216.888 467.799 219.357 467.799C221.827 467.799 223.848 465.778 223.848 463.309Z" fill="white"/>
<path d="M160.305 63.6392C160.305 61.1693 158.284 59.1485 155.814 59.1485C153.345 59.1485 151.324 61.1693 151.324 63.6392C151.324 66.1091 153.345 68.1299 155.814 68.1299C158.284 68.1299 160.305 66.1091 160.305 63.6392Z" fill="white"/>
<path d="M1028.35 79.5811C1028.35 78.4584 1027.45 77.5603 1026.33 77.5603C1025.21 77.5603 1024.31 78.4584 1024.31 79.5811C1024.31 80.7037 1025.21 81.6019 1026.33 81.6019C1027.45 81.6019 1028.35 80.7037 1028.35 79.5811Z" fill="white"/>
<path d="M268.081 465.778C268.081 464.656 267.183 463.758 266.06 463.758C264.938 463.758 264.039 464.656 264.039 465.778C264.039 466.901 264.938 467.799 266.06 467.799C267.183 467.575 268.081 466.677 268.081 465.778Z" fill="white"/>
<path d="M1157.46 100.238C1157.46 99.1155 1156.56 98.2173 1155.44 98.2173C1154.31 98.2173 1153.42 99.1155 1153.42 100.238C1153.42 101.361 1154.31 102.259 1155.44 102.259C1156.56 102.259 1157.46 101.361 1157.46 100.238Z" fill="white"/>
<path d="M841.764 94.4003C841.764 93.2776 840.866 92.3795 839.743 92.3795C838.62 92.3795 837.722 93.2776 837.722 94.4003C837.722 95.523 838.62 96.4211 839.743 96.4211C840.866 96.4211 841.764 95.523 841.764 94.4003Z" fill="white"/>
<path d="M1245.7 705.805C1245.7 703.559 1243.9 701.763 1241.66 701.763C1239.41 701.763 1237.62 703.559 1237.62 705.805C1237.62 708.05 1239.41 709.846 1241.66 709.846C1243.9 709.846 1245.7 708.05 1245.7 705.805Z" fill="white"/>
<path d="M1156.56 347.449C1156.56 345.653 1155.21 344.306 1153.42 344.306C1151.62 344.306 1150.27 345.653 1150.27 347.449C1150.27 349.246 1151.62 350.593 1153.42 350.593C1155.21 350.593 1156.56 349.246 1156.56 347.449Z" fill="white"/>
<path d="M729.497 27.2648C730.613 27.2648 731.518 26.3601 731.518 25.244C731.518 24.128 730.613 23.2232 729.497 23.2232C728.381 23.2232 727.476 24.128 727.476 25.244C727.476 26.3601 728.381 27.2648 729.497 27.2648Z" fill="white"/>
<path d="M941.232 332.855C941.232 331.283 939.885 330.16 938.538 330.16C936.966 330.16 935.843 331.507 935.843 332.855C935.843 334.426 937.19 335.549 938.538 335.549C939.885 335.549 941.232 334.426 941.232 332.855Z" fill="white"/>
<path d="M901.714 294.01C902.83 294.01 903.735 293.106 903.735 291.99C903.735 290.874 902.83 289.969 901.714 289.969C900.598 289.969 899.693 290.874 899.693 291.99C899.693 293.106 900.598 294.01 901.714 294.01Z" fill="white"/>
<path d="M604.657 14.0173C604.657 12.4456 603.309 11.0984 601.738 11.0984C600.166 11.0984 598.819 12.4456 598.819 14.0173C598.819 15.5891 600.166 16.9363 601.738 16.9363C603.309 16.9363 604.657 15.8136 604.657 14.0173Z" fill="white"/>
<path d="M404.822 350.593C404.822 347.449 402.352 344.98 399.209 344.98C396.065 344.98 393.595 347.449 393.595 350.593C393.595 353.736 396.065 356.206 399.209 356.206C402.352 356.206 404.822 353.736 404.822 350.593Z" fill="white"/>
<path d="M583.101 225.303C583.101 222.16 580.632 219.69 577.488 219.69C574.345 219.69 571.875 222.16 571.875 225.303C571.875 228.447 574.345 230.917 577.488 230.917C580.632 230.692 583.101 228.222 583.101 225.303Z" fill="white"/>
<path d="M782.712 257.861C782.712 254.717 780.242 252.247 777.098 252.247C773.955 252.247 771.485 254.717 771.485 257.861C771.485 261.004 773.955 263.474 777.098 263.474C780.242 263.474 782.712 261.004 782.712 257.861Z" fill="white"/>
<path d="M1240.09 535.159C1240.98 536.057 1242.11 536.057 1243 535.159C1243.9 534.261 1243.9 533.138 1243 532.24C1242.11 531.342 1240.98 531.342 1240.09 532.24C1239.19 533.138 1239.41 534.261 1240.09 535.159Z" fill="white"/>
<path d="M1170.26 599.6C1171.38 600.723 1173.4 600.723 1174.52 599.6C1175.64 598.478 1175.64 596.457 1174.52 595.334C1173.4 594.211 1171.38 594.211 1170.26 595.334C1169.13 596.457 1169.13 598.253 1170.26 599.6Z" fill="white"/>
<path d="M729.497 750.936C730.62 752.058 732.641 752.058 733.763 750.936C734.886 749.813 734.886 747.792 733.763 746.67C732.641 745.547 730.62 745.547 729.497 746.67C728.374 747.792 728.374 749.589 729.497 750.936Z" fill="white"/>
<path d="M855.909 697.048C857.481 698.62 859.951 698.62 861.298 697.048C862.645 695.476 862.87 693.006 861.298 691.659C859.726 690.312 857.256 690.087 855.909 691.659C854.338 693.231 854.338 695.701 855.909 697.048Z" fill="white"/>
<path d="M942.579 708.723C943.927 710.071 946.172 710.071 947.519 708.723C948.866 707.376 948.866 705.131 947.519 703.784C946.172 702.436 943.927 702.436 942.579 703.784C941.232 705.131 941.232 707.376 942.579 708.723Z" fill="white"/>
<path d="M877.914 804.375C881.386 804.375 884.201 801.56 884.201 798.088C884.201 794.616 881.386 791.801 877.914 791.801C874.441 791.801 871.627 794.616 871.627 798.088C871.627 801.56 874.441 804.375 877.914 804.375Z" fill="white"/>
<path d="M585.347 1010.05C587.817 1012.52 591.634 1012.52 594.103 1010.05C596.573 1007.58 596.573 1003.76 594.103 1001.29C591.634 998.82 587.817 998.82 585.347 1001.29C583.101 1003.54 583.101 1007.58 585.347 1010.05Z" fill="white"/>
<path d="M977.157 1029.13C979.627 1031.6 983.444 1031.6 985.914 1029.13C988.384 1026.66 988.384 1022.85 985.914 1020.38C983.444 1017.91 979.627 1017.91 977.157 1020.38C974.688 1022.85 974.688 1026.66 977.157 1029.13Z" fill="white"/>
<path d="M994.222 439.284C995.71 439.284 996.916 438.077 996.916 436.589C996.916 435.101 995.71 433.895 994.222 433.895C992.734 433.895 991.527 435.101 991.527 436.589C991.527 438.077 992.734 439.284 994.222 439.284Z" fill="white"/>
<path d="M1064.5 758.345C1066.86 758.345 1068.77 756.435 1068.77 754.079C1068.77 751.723 1066.86 749.813 1064.5 749.813C1062.14 749.813 1060.23 751.723 1060.23 754.079C1060.23 756.435 1062.14 758.345 1064.5 758.345Z" fill="white"/>
<path d="M1049.01 541.671C1051.36 541.671 1053.27 539.761 1053.27 537.404C1053.27 535.048 1051.36 533.138 1049.01 533.138C1046.65 533.138 1044.74 535.048 1044.74 537.404C1044.74 539.761 1046.65 541.671 1049.01 541.671Z" fill="white"/>
<path d="M739.601 894.637C741.957 894.637 743.867 892.727 743.867 890.371C743.867 888.015 741.957 886.105 739.601 886.105C737.245 886.105 735.335 888.015 735.335 890.371C735.335 892.727 737.245 894.637 739.601 894.637Z" fill="white"/>
<path d="M859.277 839.851C860.393 839.851 861.298 838.946 861.298 837.83C861.298 836.714 860.393 835.809 859.277 835.809C858.161 835.809 857.257 836.714 857.257 837.83C857.257 838.946 858.161 839.851 859.277 839.851Z" fill="white"/>
<path d="M940.559 735.443C941.232 736.117 942.579 736.117 943.253 735.443C943.927 734.769 943.927 733.422 943.253 732.748C942.579 732.075 941.232 732.075 940.559 732.748C939.885 733.647 939.885 734.769 940.559 735.443Z" fill="white"/>
<path d="M1106.04 668.083C1106.94 668.981 1108.29 668.981 1108.96 668.083C1109.63 667.185 1109.86 665.838 1108.96 665.164C1108.06 664.266 1106.71 664.266 1106.04 665.164C1105.37 665.838 1105.37 667.185 1106.04 668.083Z" fill="white"/>
<path d="M558.178 564.349C559.301 565.471 561.097 565.471 562.22 564.349C563.342 563.226 563.342 561.43 562.22 560.307C561.097 559.184 559.301 559.184 558.178 560.307C557.055 561.43 557.055 563.226 558.178 564.349Z" fill="white"/>
<path d="M783.385 670.104C784.059 670.777 785.406 670.777 786.079 670.104C786.753 669.43 786.753 668.083 786.079 667.409C785.406 666.736 784.059 666.736 783.385 667.409C782.712 668.083 782.712 669.206 783.385 670.104Z" fill="white"/>
<path d="M1205.73 586.802C1207.34 586.802 1208.65 585.495 1208.65 583.883C1208.65 582.271 1207.34 580.964 1205.73 580.964C1204.12 580.964 1202.81 582.271 1202.81 583.883C1202.81 585.495 1204.12 586.802 1205.73 586.802Z" fill="white"/>
<path d="M1073.71 423.117C1076.81 423.117 1079.32 420.604 1079.32 417.504C1079.32 414.404 1076.81 411.89 1073.71 411.89C1070.61 411.89 1068.09 414.404 1068.09 417.504C1068.09 420.604 1070.61 423.117 1073.71 423.117Z" fill="white"/>
<path d="M909.348 541.222C912.448 541.222 914.962 538.708 914.962 535.608C914.962 532.508 912.448 529.995 909.348 529.995C906.248 529.995 903.735 532.508 903.735 535.608C903.735 538.708 906.248 541.222 909.348 541.222Z" fill="white"/>
<path d="M512.823 427.159C515.923 427.159 518.436 424.645 518.436 421.545C518.436 418.445 515.923 415.932 512.823 415.932C509.722 415.932 507.209 418.445 507.209 421.545C507.209 424.645 509.722 427.159 512.823 427.159Z" fill="white"/>
<path d="M431.317 347.898C431.317 346.327 429.97 345.204 428.622 345.204C427.051 345.204 425.928 346.551 425.928 347.898C425.928 349.246 427.275 350.593 428.622 350.593C429.97 350.593 431.317 349.47 431.317 347.898Z" fill="white"/>
<path d="M276.389 327.017C276.389 324.772 274.593 323.2 272.572 323.2C270.551 323.2 268.755 324.996 268.755 327.017C268.755 329.262 270.551 330.834 272.572 330.834C274.593 330.834 276.389 329.262 276.389 327.017Z" fill="white"/>
<path d="M905.531 988.717C903.062 986.247 903.062 982.43 905.531 979.96C908.001 977.49 911.818 977.49 914.288 979.96C916.758 982.43 916.758 986.247 914.288 988.717C911.818 991.186 907.777 991.186 905.531 988.717Z" fill="white"/>
</svg>
