<svg width="21" height="129" viewBox="0 0 21 129" fill="none" xmlns="http://www.w3.org/2000/svg">
<path d="M-68.3434 67.0931C-85.1551 69.2897 -97.2157 85.0324 -94.6574 102.239C-92.4645 119.08 -76.7493 131.162 -59.5721 128.599C-44.2223 126.403 -33.6237 113.955 -33.2582 99.3106C-33.2582 98.9445 -0.365786 69.2897 -1.4622 67.0931C-2.55861 65.2625 -32.8927 95.2834 -32.8927 94.5512C-32.8927 93.819 -32.8927 94.1851 -32.8927 93.4529C-33.2582 90.524 23.3898 35.9739 20.4661 31.2145C16.8114 25.3567 -35.8165 83.934 -35.8165 83.2018C-36.182 82.4696 -38.0093 79.9068 -38.7402 78.8085C-39.8367 78.8085 2.19252 37.0722 -0.731253 33.7772C-4.38597 29.75 -44.9533 73.683 -45.3187 72.9508C-46.0497 72.5847 -46.7806 71.8525 -47.5116 71.4864C-48.2425 71.1203 12.7912 8.14964 8.77099 3.39023C5.84722 0.0952568 -54.821 68.1914 -56.2829 68.1914C-56.2829 68.1914 -60.3031 67.8253 -59.5721 67.0931C-55.9174 60.5031 -33.6237 33.4111 -35.8165 31.5806C-39.8367 28.6517 -65.7851 67.0931 -68.3434 67.0931Z" fill="#FFD400"/>
<path d="M4.01989 29.0179C2.19254 30.1162 0.365176 27.9196 0.730647 25.7229C0.730647 23.8924 2.558 22.0619 4.38536 21.6958C6.21271 21.3296 8.77101 22.0619 8.04007 24.2585C8.04007 23.8924 5.84725 27.9196 4.01989 29.0179Z" fill="#FF8500"/>
<path opacity="0.5" d="M3.2887 27.5535C5.11605 26.4551 7.30889 22.428 7.30889 22.428C7.30889 22.0618 7.67435 22.0618 7.67435 21.6957C8.4053 22.0618 8.77077 22.7941 8.4053 23.8924C8.4053 23.8924 6.21246 27.5535 4.38511 29.0179C2.92322 30.1162 1.82682 28.6518 1.09588 27.1874C1.46135 27.9196 2.55776 27.9196 3.2887 27.5535Z" fill="#FFFA94"/>
<path d="M0.365209 77.7101C-1.46215 78.8085 -2.92403 75.8796 -2.55856 74.0491C-2.19309 72.2185 -0.365736 70.388 1.46162 70.388C3.28898 70.0219 5.84728 71.1202 4.75087 73.3168C4.75087 73.3168 2.19256 76.6118 0.365209 77.7101Z" fill="#FF8500"/>
<path opacity="0.5" d="M-0.000305653 76.2457C1.82705 75.1474 4.38534 71.8525 4.38534 71.8525C4.38534 71.4863 4.75082 71.4863 4.75082 71.1202C5.48176 71.4863 5.84722 72.5847 5.11628 73.683C5.11628 73.683 2.55798 77.3441 0.730626 78.0763C-0.731259 78.8085 -1.82767 77.3441 -2.19314 75.8796C-1.82767 76.2457 -1.09672 76.6119 -0.000305653 76.2457Z" fill="#FFFA94"/>
<path d="M2.19282 4.12243C1.0964 4.85464 0.36546 3.39021 0.36546 2.29188C0.36546 1.19356 1.46187 0.0952356 2.55828 0.0952356C3.6547 -0.270873 5.11658 0.461344 4.38564 1.55967C4.38564 1.19356 3.28923 3.39021 2.19282 4.12243Z" fill="#FF8500"/>
<path opacity="0.5" d="M1.82713 3.39014C2.92355 2.65792 4.01995 0.46127 4.01995 0.46127V0.0951614C4.38543 0.46127 4.75089 0.827378 4.38542 1.55959C4.38542 1.55959 3.28901 3.75624 2.1926 4.48846C1.46166 4.85457 0.730714 4.12235 0.365243 3.39014C0.730714 3.39014 1.46166 3.39014 1.82713 3.39014Z" fill="#FFFA94"/>
<path d="M14.984 26.4551C13.8876 27.1873 13.1567 25.7229 13.1567 24.6246C13.1567 23.5263 14.2531 22.4279 15.3495 22.4279C16.4459 22.0618 17.9078 22.4279 17.1769 23.8924C17.1769 23.5262 15.715 25.7229 14.984 26.4551Z" fill="#FF8500"/>
<path opacity="0.5" d="M14.2532 25.3566C15.3496 24.6244 16.4461 22.4278 16.4461 22.4278V22.0617C16.8115 22.4278 17.177 22.7939 16.8115 23.5261C16.8115 23.5261 15.7151 25.7227 14.6187 26.455C13.8878 26.8211 13.1568 26.0889 12.7913 25.3566C13.5223 25.7227 13.8877 25.7227 14.2532 25.3566Z" fill="#FFFA94"/>
<path d="M7.30918 63.066C6.21277 63.7982 5.48182 62.3338 5.48182 61.2354C5.48182 60.1371 6.57823 59.0388 7.67465 59.0388C8.77106 58.6727 10.2329 59.0388 9.502 60.5032C9.502 60.1371 8.40559 62.3338 7.30918 63.066Z" fill="#FF8500"/>
<path opacity="0.5" d="M6.94357 61.9675C8.03999 61.2353 9.13641 59.0386 9.13641 59.0386V58.6725C9.50188 59.0386 9.86735 59.4047 9.50188 60.137C9.50188 60.137 8.40547 62.3336 7.30905 63.0658C6.57811 63.4319 5.84717 62.6997 5.4817 61.9675C5.84717 62.3336 6.21263 62.3336 6.94357 61.9675Z" fill="#FFFA94"/>
</svg>
