<svg width="1001" height="977" viewBox="0 0 1001 977" fill="none" xmlns="http://www.w3.org/2000/svg">
<path d="M70.7489 602.317C109.569 602.317 141.039 590.349 141.039 575.587C141.039 560.824 109.569 548.857 70.7489 548.857C31.9288 548.857 0.458862 560.824 0.458862 575.587C0.458862 590.349 31.9288 602.317 70.7489 602.317Z" fill="url(#paint0_radial_3_71)"/>
<path d="M70.7489 645.877C85.5114 645.877 97.4789 614.407 97.4789 575.587C97.4789 536.766 85.5114 505.297 70.7489 505.297C55.9863 505.297 44.0189 536.766 44.0189 575.587C44.0189 614.407 55.9863 645.877 70.7489 645.877Z" fill="url(#paint1_radial_3_71)"/>
<path d="M63.6208 952.183C88.4438 952.183 108.567 944.559 108.567 935.154C108.567 925.75 88.4438 918.127 63.6208 918.127C38.7978 918.127 18.6749 925.75 18.6749 935.154C18.6749 944.559 38.7978 952.183 63.6208 952.183Z" fill="url(#paint2_radial_3_71)"/>
<path d="M63.6208 980.101C73.0251 980.101 80.6489 959.978 80.6489 935.155C80.6489 910.332 73.0251 890.209 63.6208 890.209C54.2165 890.209 46.5928 910.332 46.5928 935.155C46.5928 959.978 54.2165 980.101 63.6208 980.101Z" fill="url(#paint3_radial_3_71)"/>
<path d="M610.695 62.1725C635.518 62.1725 655.641 54.5489 655.641 45.1446C655.641 35.7402 635.518 28.1165 610.695 28.1165C585.872 28.1165 565.749 35.7402 565.749 45.1446C565.749 54.5489 585.872 62.1725 610.695 62.1725Z" fill="url(#paint4_radial_3_71)"/>
<path d="M610.695 90.0906C620.099 90.0906 627.723 69.9675 627.723 45.1446C627.723 20.3216 620.099 0.198532 610.695 0.198532C601.291 0.198532 593.667 20.3216 593.667 45.1446C593.667 69.9675 601.291 90.0906 610.695 90.0906Z" fill="url(#paint5_radial_3_71)"/>
<path d="M957.393 921.889C968.679 938.521 983.331 948.223 990.063 943.471C996.993 938.917 993.429 921.691 982.143 905.059C970.857 888.427 956.205 878.725 949.473 883.477C942.543 888.229 946.107 905.257 957.393 921.889Z" fill="url(#paint6_radial_3_71)"/>
<path opacity="0.6" d="M961.353 901.099C944.721 912.385 935.019 927.037 939.771 933.769C944.325 940.699 961.551 937.135 978.183 925.849C994.815 914.563 1004.52 899.911 999.765 893.179C995.013 886.447 977.985 889.813 961.353 901.099Z" fill="url(#paint7_radial_3_71)"/>
<path d="M505.557 595.189C516.843 611.821 531.495 621.523 538.227 616.771C545.157 612.217 541.593 594.991 530.307 578.359C519.021 561.727 504.369 552.025 497.637 556.777C490.905 561.529 494.469 578.755 505.557 595.189Z" fill="url(#paint8_radial_3_71)"/>
<path opacity="0.6" d="M509.715 574.399C493.083 585.685 483.381 600.337 488.133 607.069C492.687 613.999 509.913 610.435 526.545 599.149C543.177 587.863 552.879 573.211 548.127 566.479C543.375 559.747 526.149 563.311 509.715 574.399Z" fill="url(#paint9_radial_3_71)"/>
<path d="M78.4708 155.035C89.7568 171.667 104.409 181.369 111.141 176.617C118.071 172.063 114.507 154.837 103.221 138.205C91.9348 121.573 77.2828 111.871 70.5508 116.623C63.6208 121.177 67.1848 138.403 78.4708 155.035Z" fill="url(#paint10_radial_3_71)"/>
<path opacity="0.6" d="M82.4308 134.245C65.7988 145.531 56.0968 160.183 60.8488 166.915C65.4028 173.845 82.6288 170.281 99.2608 158.995C115.893 147.709 125.595 133.057 120.843 126.325C116.289 119.395 99.0628 122.959 82.4308 134.245Z" fill="url(#paint11_radial_3_71)"/>
<defs>
<radialGradient id="paint0_radial_3_71" cx="0" cy="0" r="1" gradientUnits="userSpaceOnUse" gradientTransform="translate(70.7558 575.524) rotate(180) scale(41.3545 41.5902)">
<stop stop-color="#FA316D"/>
<stop offset="0.0484923" stop-color="#D92B65" stop-opacity="0.9513"/>
<stop offset="0.1186" stop-color="#B0235C" stop-opacity="0.881"/>
<stop offset="0.1951" stop-color="#8B1C53" stop-opacity="0.8042"/>
<stop offset="0.2772" stop-color="#6C174C" stop-opacity="0.7219"/>
<stop offset="0.3664" stop-color="#531246" stop-opacity="0.6323"/>
<stop offset="0.4658" stop-color="#400E42" stop-opacity="0.5326"/>
<stop offset="0.5808" stop-color="#320C3E" stop-opacity="0.4171"/>
<stop offset="0.7257" stop-color="#2A0A3D" stop-opacity="0.2718"/>
<stop offset="0.9965" stop-color="#280A3C" stop-opacity="0"/>
</radialGradient>
<radialGradient id="paint1_radial_3_71" cx="0" cy="0" r="1" gradientUnits="userSpaceOnUse" gradientTransform="translate(70.7803 575.528) rotate(-90) scale(41.3545 41.5902)">
<stop stop-color="#FA316D"/>
<stop offset="0.0484923" stop-color="#D92B65" stop-opacity="0.9513"/>
<stop offset="0.1186" stop-color="#B0235C" stop-opacity="0.881"/>
<stop offset="0.1951" stop-color="#8B1C53" stop-opacity="0.8042"/>
<stop offset="0.2772" stop-color="#6C174C" stop-opacity="0.7219"/>
<stop offset="0.3664" stop-color="#531246" stop-opacity="0.6323"/>
<stop offset="0.4658" stop-color="#400E42" stop-opacity="0.5326"/>
<stop offset="0.5808" stop-color="#320C3E" stop-opacity="0.4171"/>
<stop offset="0.7257" stop-color="#2A0A3D" stop-opacity="0.2718"/>
<stop offset="0.9965" stop-color="#280A3C" stop-opacity="0"/>
</radialGradient>
<radialGradient id="paint2_radial_3_71" cx="0" cy="0" r="1" gradientUnits="userSpaceOnUse" gradientTransform="translate(63.704 935.121) rotate(180) scale(26.3971 26.5476)">
<stop stop-color="#FFC66A"/>
<stop offset="0.0661016" stop-color="#D09E60" stop-opacity="0.9339"/>
<stop offset="0.1352" stop-color="#A77C57" stop-opacity="0.8648"/>
<stop offset="0.2106" stop-color="#825D4F" stop-opacity="0.7894"/>
<stop offset="0.2914" stop-color="#634348" stop-opacity="0.7086"/>
<stop offset="0.3794" stop-color="#4A2E42" stop-opacity="0.6206"/>
<stop offset="0.4773" stop-color="#371E3E" stop-opacity="0.5227"/>
<stop offset="0.5906" stop-color="#29133B" stop-opacity="0.4094"/>
<stop offset="0.7332" stop-color="#210C3A" stop-opacity="0.2668"/>
<stop offset="1" stop-color="#1F0A39" stop-opacity="0"/>
</radialGradient>
<radialGradient id="paint3_radial_3_71" cx="0" cy="0" r="1" gradientUnits="userSpaceOnUse" gradientTransform="translate(63.7362 935.125) rotate(-90) scale(26.3971 26.5476)">
<stop stop-color="#FFC66A"/>
<stop offset="0.0661016" stop-color="#D09E60" stop-opacity="0.9339"/>
<stop offset="0.1352" stop-color="#A77C57" stop-opacity="0.8648"/>
<stop offset="0.2106" stop-color="#825D4F" stop-opacity="0.7894"/>
<stop offset="0.2914" stop-color="#634348" stop-opacity="0.7086"/>
<stop offset="0.3794" stop-color="#4A2E42" stop-opacity="0.6206"/>
<stop offset="0.4773" stop-color="#371E3E" stop-opacity="0.5227"/>
<stop offset="0.5906" stop-color="#29133B" stop-opacity="0.4094"/>
<stop offset="0.7332" stop-color="#210C3A" stop-opacity="0.2668"/>
<stop offset="1" stop-color="#1F0A39" stop-opacity="0"/>
</radialGradient>
<radialGradient id="paint4_radial_3_71" cx="0" cy="0" r="1" gradientUnits="userSpaceOnUse" gradientTransform="translate(610.757 45.2187) rotate(180) scale(26.3972 26.5476)">
<stop stop-color="#FA316D"/>
<stop offset="0.0484923" stop-color="#D92B65" stop-opacity="0.9513"/>
<stop offset="0.1186" stop-color="#B0235C" stop-opacity="0.881"/>
<stop offset="0.1951" stop-color="#8B1C53" stop-opacity="0.8042"/>
<stop offset="0.2772" stop-color="#6C174C" stop-opacity="0.7219"/>
<stop offset="0.3664" stop-color="#531246" stop-opacity="0.6323"/>
<stop offset="0.4658" stop-color="#400E42" stop-opacity="0.5326"/>
<stop offset="0.5808" stop-color="#320C3E" stop-opacity="0.4171"/>
<stop offset="0.7257" stop-color="#2A0A3D" stop-opacity="0.2718"/>
<stop offset="0.9965" stop-color="#280A3C" stop-opacity="0"/>
</radialGradient>
<radialGradient id="paint5_radial_3_71" cx="0" cy="0" r="1" gradientUnits="userSpaceOnUse" gradientTransform="translate(610.771 45.234) rotate(-90) scale(26.3972 26.5476)">
<stop stop-color="#FA316D"/>
<stop offset="0.0484923" stop-color="#D92B65" stop-opacity="0.9513"/>
<stop offset="0.1186" stop-color="#B0235C" stop-opacity="0.881"/>
<stop offset="0.1951" stop-color="#8B1C53" stop-opacity="0.8042"/>
<stop offset="0.2772" stop-color="#6C174C" stop-opacity="0.7219"/>
<stop offset="0.3664" stop-color="#531246" stop-opacity="0.6323"/>
<stop offset="0.4658" stop-color="#400E42" stop-opacity="0.5326"/>
<stop offset="0.5808" stop-color="#320C3E" stop-opacity="0.4171"/>
<stop offset="0.7257" stop-color="#2A0A3D" stop-opacity="0.2718"/>
<stop offset="0.9965" stop-color="#280A3C" stop-opacity="0"/>
</radialGradient>
<radialGradient id="paint6_radial_3_71" cx="0" cy="0" r="1" gradientUnits="userSpaceOnUse" gradientTransform="translate(969.706 913.529) rotate(145.918) scale(14.9818 36.2526)">
<stop stop-color="#FFC66A"/>
<stop offset="0.1172" stop-color="#FFDA81" stop-opacity="0.8828"/>
<stop offset="0.2557" stop-color="#FFEA94" stop-opacity="0.7443"/>
<stop offset="0.4169" stop-color="#FFF6A2" stop-opacity="0.5831"/>
<stop offset="0.62" stop-color="#FFFDAA" stop-opacity="0.38"/>
<stop offset="1" stop-color="#FFFFAC" stop-opacity="0"/>
</radialGradient>
<radialGradient id="paint7_radial_3_71" cx="0" cy="0" r="1" gradientUnits="userSpaceOnUse" gradientTransform="translate(969.706 913.529) rotate(-124.082) scale(14.9819 36.2528)">
<stop stop-color="#FFC66A"/>
<stop offset="0.1172" stop-color="#FFDA81" stop-opacity="0.8828"/>
<stop offset="0.2557" stop-color="#FFEA94" stop-opacity="0.7443"/>
<stop offset="0.4169" stop-color="#FFF6A2" stop-opacity="0.5831"/>
<stop offset="0.62" stop-color="#FFFDAA" stop-opacity="0.38"/>
<stop offset="1" stop-color="#FFFFAC" stop-opacity="0"/>
</radialGradient>
<radialGradient id="paint8_radial_3_71" cx="0" cy="0" r="1" gradientUnits="userSpaceOnUse" gradientTransform="translate(518.052 586.884) rotate(145.918) scale(14.9818 36.2526)">
<stop stop-color="#FFC66A"/>
<stop offset="0.1172" stop-color="#FFDA81" stop-opacity="0.8828"/>
<stop offset="0.2557" stop-color="#FFEA94" stop-opacity="0.7443"/>
<stop offset="0.4169" stop-color="#FFF6A2" stop-opacity="0.5831"/>
<stop offset="0.62" stop-color="#FFFDAA" stop-opacity="0.38"/>
<stop offset="1" stop-color="#FFFFAC" stop-opacity="0"/>
</radialGradient>
<radialGradient id="paint9_radial_3_71" cx="0" cy="0" r="1" gradientUnits="userSpaceOnUse" gradientTransform="translate(518.052 586.884) rotate(-124.082) scale(14.9819 36.2528)">
<stop stop-color="#FFC66A"/>
<stop offset="0.1172" stop-color="#FFDA81" stop-opacity="0.8828"/>
<stop offset="0.2557" stop-color="#FFEA94" stop-opacity="0.7443"/>
<stop offset="0.4169" stop-color="#FFF6A2" stop-opacity="0.5831"/>
<stop offset="0.62" stop-color="#FFFDAA" stop-opacity="0.38"/>
<stop offset="1" stop-color="#FFFFAC" stop-opacity="0"/>
</radialGradient>
<radialGradient id="paint10_radial_3_71" cx="0" cy="0" r="1" gradientUnits="userSpaceOnUse" gradientTransform="translate(90.819 146.56) rotate(145.918) scale(14.9818 36.2526)">
<stop stop-color="#FFC66A"/>
<stop offset="0.0661016" stop-color="#D09E60" stop-opacity="0.9339"/>
<stop offset="0.1352" stop-color="#A77C57" stop-opacity="0.8648"/>
<stop offset="0.2106" stop-color="#825D4F" stop-opacity="0.7894"/>
<stop offset="0.2914" stop-color="#634348" stop-opacity="0.7086"/>
<stop offset="0.3794" stop-color="#4A2E42" stop-opacity="0.6206"/>
<stop offset="0.4773" stop-color="#371E3E" stop-opacity="0.5227"/>
<stop offset="0.5906" stop-color="#29133B" stop-opacity="0.4094"/>
<stop offset="0.7332" stop-color="#210C3A" stop-opacity="0.2668"/>
<stop offset="1" stop-color="#1F0A39" stop-opacity="0"/>
</radialGradient>
<radialGradient id="paint11_radial_3_71" cx="0" cy="0" r="1" gradientUnits="userSpaceOnUse" gradientTransform="translate(90.8189 146.56) rotate(-124.082) scale(14.9819 36.2528)">
<stop stop-color="#FFC66A"/>
<stop offset="0.0661016" stop-color="#D09E60" stop-opacity="0.9339"/>
<stop offset="0.1352" stop-color="#A77C57" stop-opacity="0.8648"/>
<stop offset="0.2106" stop-color="#825D4F" stop-opacity="0.7894"/>
<stop offset="0.2914" stop-color="#634348" stop-opacity="0.7086"/>
<stop offset="0.3794" stop-color="#4A2E42" stop-opacity="0.6206"/>
<stop offset="0.4773" stop-color="#371E3E" stop-opacity="0.5227"/>
<stop offset="0.5906" stop-color="#29133B" stop-opacity="0.4094"/>
<stop offset="0.7332" stop-color="#210C3A" stop-opacity="0.2668"/>
<stop offset="1" stop-color="#1F0A39" stop-opacity="0"/>
</radialGradient>
</defs>
</svg>
