<svg width="63" height="64" viewBox="0 0 63 64" fill="none" xmlns="http://www.w3.org/2000/svg">
<path d="M4.86288 40.9599C3.6908 40.179 2.40504 39.5838 1.05115 39.1956C1.86662 42.8825 3.34249 46.3914 5.40742 49.5527C7.03013 46.1548 8.4677 43.2143 4.86288 40.9599Z" fill="#37B5A5"/>
<path d="M34.1261 47.1676C16.3961 56.0326 11.9527 35.6344 1.36698 26.7694C1.22444 26.6372 1.06292 26.5271 0.887794 26.4427C0.502045 28.3761 0.297864 30.3413 0.277916 32.3128C0.278976 34.6287 0.538325 36.9372 1.05115 39.1957C2.40505 39.5839 3.6908 40.179 4.86289 40.96C8.4677 43.2143 7.04102 46.1548 5.45099 49.5527C8.45668 54.0842 12.5837 57.7609 17.4307 60.2256C26.8512 51.6219 38.8527 51.8397 50.1027 54.2575C51.1445 54.2996 52.1576 54.6111 53.0432 55.1614C57.1207 51.339 60.1024 46.4961 61.6795 41.1342C58.9332 38.2976 55.5831 36.1163 51.8779 34.7523C42.109 31.2019 41.216 43.6173 34.1261 47.1676Z" fill="#4DCEBB"/>
<path d="M17.398 60.2255C23.1358 63.1554 29.6385 64.2414 36.0169 63.3349C42.3953 62.4284 48.338 59.5738 53.0323 55.1613C52.1467 54.611 51.1336 54.2996 50.0918 54.2574C38.82 51.8397 26.8185 51.6219 17.398 60.2255Z" fill="#37B5A5"/>
<path d="M14.6209 23.23C17.605 19.0479 12.5517 15.6718 7.30239 12.5571C5.35588 14.9543 3.77418 17.626 2.60851 20.4855C7.79247 24.2319 11.6151 29.8406 14.6209 23.23Z" fill="#37B5A5"/>
<path d="M62.529 27.2268C56.354 29.2089 50.1245 28.5772 46.5415 24.9942C43.1545 20.932 51.1373 17.9044 56.6916 13.5372C55.3853 11.7997 53.9036 10.2012 52.27 8.7671C50.477 8.84271 48.721 9.30177 47.1204 10.1133C45.5198 10.9249 44.1117 12.0702 42.9911 13.4719C38.5586 21.4547 40.3338 31.2019 33.244 35.6344C28.8006 38.3026 25.2611 34.7522 22.6038 32.0949C17.2782 24.9942 21.7107 12.5897 12.8022 8.13544L12.018 7.81961C10.2679 9.22123 8.67247 10.8057 7.25883 12.5462C12.5081 15.6609 17.5614 19.0806 14.5774 23.219C11.5715 29.8297 7.74891 24.221 2.59762 20.4746C1.81148 22.3999 1.22042 24.3993 0.833328 26.4427C1.00846 26.5271 1.16997 26.6372 1.31252 26.7694C11.9527 35.6344 16.3961 56.0326 34.1261 47.1676C41.2159 43.6173 42.109 31.2019 51.8561 34.7522C55.5613 36.1162 58.9114 38.2976 61.6577 41.1342C62.4989 38.2691 62.928 35.2988 62.9319 32.3127C62.9307 30.6095 62.796 28.909 62.529 27.2268Z" fill="#36EAC7"/>
<path d="M46.5415 24.9942C50.1245 28.5772 56.3431 29.2089 62.529 27.2268C61.7076 22.262 59.7056 17.5671 56.6916 13.5372C51.1374 17.9044 43.1545 20.932 46.5415 24.9942Z" fill="#37B5A5"/>
<path d="M25.2611 14.354C25.2611 17.0222 28.8006 19.6796 32.351 18.7974C38.5369 15.356 37.3062 8.17901 36.7944 1.4159C33.2702 0.806312 29.6675 0.806312 26.1433 1.4159C26.7423 5.33655 24.7275 10.6294 25.2611 14.354Z" fill="#92FFEA"/>
<path d="M36.7943 1.41592C37.2626 8.17903 38.5368 15.356 32.3509 18.841C28.8006 19.7231 25.2611 17.0658 25.2611 14.3976C24.7275 10.6294 26.7422 5.33657 26.1432 1.45949C20.9896 2.3695 16.1474 4.5603 12.0616 7.83053L12.8457 8.14636C21.7107 12.5898 17.2782 24.9942 22.6473 32.1058C25.3047 34.7632 28.8441 38.3135 33.2875 35.6453C40.3773 31.2128 38.6022 21.4874 43.0891 13.4828C44.2097 12.0811 45.6178 10.9358 47.2184 10.1243C48.819 9.31269 50.575 8.85363 52.368 8.77802C47.9701 4.91171 42.5734 2.3605 36.7943 1.41592Z" fill="#55FFDE"/>
<path d="M26.7204 44.14C26.2195 45.436 23.9107 45.7519 21.5583 44.8479C19.2059 43.944 17.703 42.1579 18.2039 40.8619C18.7049 39.566 20.9702 39.2501 23.3661 40.1867C25.7621 41.1233 27.2214 42.8441 26.7204 44.14Z" fill="#4DCEBB"/>
<path d="M33.9519 28.2614C34.3657 30.0693 32.7212 31.9969 30.2599 32.5632C27.7986 33.1296 25.4789 32.1167 25.0651 30.3089C24.6512 28.501 26.2957 26.5734 28.7461 26.0288C31.1965 25.4843 33.538 26.4536 33.9519 28.2614Z" fill="#36EAC7"/>
<path d="M51.3116 43.7588C51.0056 44.3252 50.5391 44.7886 49.9707 45.0908C49.4023 45.3929 48.7572 45.5205 48.1166 45.4573C47.4759 45.3942 46.8682 45.1432 46.3697 44.7358C45.8712 44.3285 45.5042 43.783 45.3147 43.1678C45.1251 42.5526 45.1216 41.8951 45.3044 41.2778C45.4873 40.6606 45.8484 40.1111 46.3425 39.6984C46.8365 39.2857 47.4415 39.0282 48.0814 38.9581C48.7213 38.888 49.3677 39.0085 49.9394 39.3045C50.3246 39.504 50.6663 39.7783 50.9445 40.1113C51.2227 40.4443 51.4317 40.8293 51.5594 41.244C51.6872 41.6586 51.7311 42.0945 51.6885 42.5263C51.6459 42.9581 51.5178 43.3771 51.3116 43.7588Z" fill="#37B5A5"/>
<path d="M36.5003 56.8603C36.5656 57.786 35.1716 58.6246 33.3856 58.7553C31.5995 58.886 30.1184 58.2325 30.0312 57.3177C29.9441 56.4029 31.3599 55.5534 33.146 55.4336C34.932 55.3138 36.435 55.9455 36.5003 56.8603Z" fill="#228778"/>
<path d="M23.3335 5.69596C23.7473 6.51276 22.7998 7.8741 21.1553 8.65822C19.5108 9.44235 17.8881 9.47503 17.507 8.65822C17.1258 7.84142 18.0406 6.48009 19.6851 5.69596C21.3296 4.91183 22.9087 4.87916 23.3335 5.69596Z" fill="#92FFEA"/>
<path d="M55.6025 22.3042C55.6678 23.219 54.2847 24.0685 52.4986 24.2101C50.7126 24.3517 49.2314 23.7091 49.1334 22.7943C49.0354 21.8795 50.4621 21.0191 52.2482 20.8884C54.0342 20.7577 55.5263 21.3894 55.6025 22.3042Z" fill="#36EAC7"/>
<path opacity="0.2" d="M40.3991 2.24362C41.2375 5.09791 41.6629 8.05753 41.6624 11.0324C41.6639 15.1474 40.8544 19.2224 39.2803 23.0245C37.7062 26.8266 35.3983 30.2812 32.4886 33.191C29.5788 36.1008 26.1242 38.4086 22.3221 39.9827C18.52 41.5568 14.445 42.3663 10.33 42.3649C7.35564 42.3689 4.39604 41.9471 1.54121 41.1124C3.06792 46.334 5.92787 51.0681 9.83961 54.8489C13.7514 58.6296 18.5801 61.3267 23.8506 62.6747C29.1211 64.0228 34.6519 63.9753 39.8985 62.537C45.1451 61.0987 49.9268 58.3191 53.7731 54.4717C57.6193 50.6244 60.3976 45.8419 61.8344 40.5949C63.2713 35.3479 63.3172 29.8171 61.9677 24.547C60.6182 19.2768 57.9197 14.4489 54.1379 10.5382C50.356 6.62749 45.6211 3.76887 40.3991 2.24362Z" fill="url(#paint0_linear_5_550)"/>
<path opacity="0.7" d="M24.1176 9.69283C25.0542 10.9344 24.0631 13.265 21.9394 14.8986C19.8158 16.5322 17.2673 16.848 16.3307 15.5956C15.3941 14.3431 16.3307 12.0234 18.5089 10.3898C20.687 8.75623 23.1483 8.40773 24.1176 9.69283Z" fill="white"/>
<defs>
<linearGradient id="paint0_linear_5_550" x1="14.3486" y1="18.8846" x2="67.3209" y2="60.0949" gradientUnits="userSpaceOnUse">
<stop/>
<stop offset="0.57"/>
<stop offset="0.61"/>
<stop offset="1" stop-color="#404040"/>
</linearGradient>
</defs>
</svg>
