<svg width="144" height="143" viewBox="0 0 144 143" fill="none" xmlns="http://www.w3.org/2000/svg">
<path d="M11.7819 8.94503C11.7819 10.7142 11.2573 12.4436 10.2744 13.9146C9.29154 15.3856 7.89451 16.5321 6.26002 17.2092C4.62553 17.8862 2.82699 18.0633 1.09182 17.7182C-0.643346 17.373 -2.2372 16.5211 -3.48818 15.2701C-4.73917 14.0191 -5.5911 12.4253 -5.93624 10.6901C-6.28139 8.95495 -6.10425 7.1564 -5.42722 5.52191C-4.75019 3.88742 -3.60368 2.4904 -2.13268 1.50751C-0.66168 0.524617 1.06775 0 2.83691 0C5.20928 0 7.48448 0.94242 9.162 2.61994C10.8395 4.29746 11.7819 6.57266 11.7819 8.94503Z" fill="#458DF4"/>
<path opacity="0.2" d="M5.20695 0.162659C6.42013 1.42575 7.23472 3.01796 7.5492 4.74083C7.86369 6.4637 7.66415 8.24102 6.97546 9.85127C6.28677 11.4615 5.13939 12.8335 3.67634 13.7961C2.21329 14.7587 0.499276 15.2695 -1.25205 15.2647C-2.03467 15.2616 -2.81431 15.168 -3.57544 14.9858C-2.62125 15.9831 -1.44923 16.746 -0.151109 17.2148C1.14701 17.6837 2.53602 17.8458 3.90723 17.6885C5.27843 17.5312 6.59463 17.0586 7.75282 16.308C8.91101 15.5573 9.87977 14.5487 10.5833 13.3613C11.2868 12.1739 11.706 10.8397 11.8081 9.46331C11.9102 8.08689 11.6924 6.70552 11.1717 5.4273C10.651 4.14907 9.84162 3.00868 8.80683 2.09535C7.77205 1.18202 6.53995 0.520534 5.20695 0.162659Z" fill="black"/>
<path d="M125.419 15.5899C125.419 17.8232 124.756 20.0063 123.516 21.8632C122.275 23.7201 120.511 25.1674 118.448 26.022C116.385 26.8766 114.115 27.1003 111.924 26.6646C109.734 26.2289 107.722 25.1534 106.143 23.5743C104.563 21.9951 103.488 19.9831 103.052 17.7928C102.617 15.6024 102.84 13.332 103.695 11.2688C104.55 9.20548 105.997 7.44197 107.854 6.20123C109.711 4.96048 111.894 4.29824 114.127 4.29824C115.611 4.29518 117.08 4.58516 118.452 5.15153C119.823 5.7179 121.069 6.54952 122.118 7.59866C123.167 8.6478 123.999 9.89379 124.565 11.2651C125.132 12.6365 125.422 14.1062 125.419 15.5899Z" fill="#458DF4"/>
<path opacity="0.2" d="M117.24 4.64673C118.76 6.25014 119.777 8.26333 120.166 10.4379C120.555 12.6125 120.299 14.8535 119.429 16.8842C118.559 18.915 117.114 20.6467 115.272 21.8659C113.43 23.0851 111.271 23.7383 109.062 23.7449C108.103 23.7441 107.15 23.6112 106.227 23.35C107.418 24.6522 108.896 25.6574 110.545 26.2851C112.193 26.9128 113.966 27.1455 115.721 26.9645C117.476 26.7835 119.164 26.1939 120.65 25.2429C122.136 24.2919 123.378 23.006 124.277 21.4883C125.176 19.9706 125.707 18.2633 125.828 16.5033C125.948 14.7433 125.655 12.9796 124.971 11.3535C124.286 9.72749 123.231 8.28435 121.888 7.13982C120.546 5.9953 118.954 5.18124 117.24 4.7629V4.64673Z" fill="black"/>
<path d="M143.727 45.5383C143.727 47.7716 143.065 49.9547 141.824 51.8116C140.583 53.6685 138.82 55.1158 136.756 55.9704C134.693 56.8251 132.423 57.0487 130.232 56.613C128.042 56.1773 126.03 55.1019 124.451 53.5227C122.872 51.9435 121.796 49.9315 121.361 47.7412C120.925 45.5508 121.149 43.2804 122.003 41.2172C122.858 39.1539 124.305 37.3904 126.162 36.1496C128.019 34.9089 130.202 34.2466 132.435 34.2466C135.43 34.2466 138.302 35.4363 140.42 37.5539C142.537 39.6715 143.727 42.5436 143.727 45.5383Z" fill="#A6CAFF"/>
<path opacity="0.2" d="M135.386 34.6417C136.906 36.2451 137.923 38.2583 138.312 40.4329C138.701 42.6075 138.444 44.8484 137.575 46.8791C136.705 48.9099 135.26 50.6417 133.418 51.8608C131.576 53.08 129.417 53.7332 127.208 53.7399C126.254 53.7694 125.3 53.6677 124.373 53.4378C125.563 54.7401 127.042 55.7453 128.691 56.373C130.339 57.0007 132.112 57.2334 133.867 57.0524C135.622 56.8714 137.31 56.2818 138.795 55.3308C140.281 54.3798 141.524 53.0939 142.423 51.5762C143.322 50.0585 143.853 48.3512 143.974 46.5912C144.094 44.8312 143.8 43.0675 143.116 41.4414C142.432 39.8154 141.377 38.3722 140.034 37.2277C138.692 36.0832 137.1 35.2691 135.386 34.8508V34.6417Z" fill="black"/>
<path d="M0.583309 145.328C0.583309 147.561 -0.0789356 149.744 -1.31968 151.601C-2.56042 153.458 -4.32393 154.905 -6.38721 155.76C-8.45049 156.614 -10.7209 156.838 -12.9112 156.402C-15.1016 155.967 -17.1136 154.891 -18.6927 153.312C-20.2719 151.733 -21.3473 149.721 -21.783 147.531C-22.2187 145.34 -21.9951 143.07 -21.1405 141.007C-20.2858 138.943 -18.8385 137.18 -16.9816 135.939C-15.1247 134.698 -12.9416 134.036 -10.7083 134.036C-9.22464 134.033 -7.75494 134.323 -6.38359 134.889C-5.01224 135.456 -3.76624 136.287 -2.71711 137.336C-1.66797 138.386 -0.836353 139.632 -0.269979 141.003C0.296394 142.374 0.58637 143.844 0.583309 145.328Z" fill="#A6CAFF"/>
<path opacity="0.2" d="M-7.92038 134.431C-6.39123 136.029 -5.36508 138.041 -4.96932 140.217C-4.57356 142.393 -4.82562 144.638 -5.6942 146.672C-6.56279 148.706 -8.00966 150.44 -9.85519 151.659C-11.7007 152.878 -13.8636 153.529 -16.0755 153.529C-17.0341 153.53 -17.9881 153.397 -18.91 153.134C-17.7199 154.439 -16.2404 155.446 -14.5904 156.075C-12.9404 156.704 -11.1659 156.937 -9.40941 156.756C-7.65291 156.575 -5.9634 155.984 -4.47659 155.031C-2.98977 154.079 -1.7471 152.791 -0.848394 151.271C0.050312 149.751 0.580004 148.041 0.698132 146.279C0.816257 144.517 0.519527 142.752 -0.168224 141.126C-0.855978 139.5 -1.91558 138.057 -3.26192 136.915C-4.60826 135.772 -6.2038 134.961 -7.92038 134.547V134.431Z" fill="black"/>
<path d="M90.1032 22.6762C88.8384 22.8236 87.6356 23.3047 86.6181 24.0703C84.7362 25.9754 88.5233 31.6445 92.2872 35.4316C96.0743 42.9826 90.4052 54.344 79.0439 50.5568C69.5877 44.8878 71.4929 31.6445 65.8006 27.8574C48.7934 20.2831 65.8006 48.7678 56.3444 52.4388C35.5501 58.0846 52.5805 31.6445 43.0547 20.2831H35.5501C31.763 25.9754 29.8811 39.1955 24.1888 31.6445C22.737 30.6538 21.529 29.3465 20.6557 27.8212C19.7824 26.296 19.2665 24.5924 19.147 22.8389C16.3898 24.596 13.7651 26.5529 11.294 28.6938C13.0518 29.5201 14.6086 30.7192 15.8564 32.2077C17.1042 33.6962 18.013 35.4385 18.5197 37.3135C18.5197 42.9826 10.9455 50.5568 16.6378 56.2259C26.094 61.9182 27.9759 44.8878 35.5501 48.6749C46.8883 52.4388 35.5501 69.5854 39.3373 78.8789C41.2192 80.7841 46.8883 84.5712 50.6754 84.5712C60.1315 80.7841 54.4625 67.5408 60.1315 65.6356C71.4929 59.9665 73.3748 86.5461 88.5233 78.8789C96.0743 75.0918 92.2872 63.7537 96.0743 58.0846C99.8614 50.5104 109.318 65.6356 113.105 59.9665C114.739 58.6991 116.105 57.1196 117.124 55.3198C111.896 41.796 102.412 30.3388 90.1032 22.6762Z" fill="#66ACFF"/>
<path d="M27.4648 140.402C24.9544 138.113 21.924 136.47 18.636 135.616C21.4475 137.443 24.3997 139.043 27.4648 140.402Z" fill="#2B5DC1"/>
<path d="M94.1693 126.229C84.7131 130.017 77.1389 131.898 67.6827 137.568C62.0137 143.237 54.4394 128.111 44.9833 135.686C43.652 139.017 41.531 141.975 38.8031 144.305C51.8374 147.511 65.5352 146.714 78.1098 142.018C90.6843 137.322 101.552 128.946 109.295 117.981C102.696 116.471 97.6544 124.487 94.1693 126.229Z" fill="#2146A3"/>
<path d="M97.9794 103.53C96.0743 107.317 97.9794 116.773 94.1923 116.773C82.831 116.773 79.0439 120.56 69.5877 128.111C62.0367 133.78 60.1315 118.655 54.4625 118.655C45.0063 116.773 43.1011 137.568 33.552 126.229C29.7881 122.442 31.6701 114.868 29.7881 111.081C24.0958 107.317 18.4268 111.081 14.6397 112.986C1.39637 120.56 -0.485571 107.317 -2.39075 95.9557C-3.27363 93.2838 -7.03751 91.4716 -11.0802 91.309C-9.43436 100.339 -5.94652 108.933 -0.834004 116.556C4.27851 124.178 10.9061 130.667 18.6359 135.616C21.9239 136.47 24.9543 138.113 27.4647 140.402C31.1271 142.041 34.9295 143.348 38.8261 144.305C41.5541 141.975 43.675 139.017 45.0063 135.686C54.4625 128.111 62.0367 143.237 67.7057 137.568C77.1619 131.898 84.7361 130.109 94.1691 126.229C97.6309 124.487 102.673 116.471 109.271 117.981C112.254 113.812 114.734 109.304 116.659 104.552C109.922 102.484 103.463 98.0468 97.9794 103.53Z" fill="#2B5DC1"/>
<path d="M29.8812 111.081C31.7632 114.868 29.8812 122.442 33.6451 126.229C43.1013 137.568 45.0065 116.773 54.5556 118.655C60.2246 118.655 62.1298 133.78 69.6808 128.111C79.137 120.56 82.9241 116.773 94.2854 116.773C98.0725 116.773 96.1674 107.317 98.0725 103.53C103.556 98.0468 110.015 102.484 116.66 104.622C119.936 96.6138 121.617 88.0427 121.608 79.39C115.173 77.9263 108.319 72.9543 105.531 77.0667C99.8615 80.8538 107.436 105.435 94.1925 99.7661C88.5234 97.8609 82.8311 92.1919 75.2801 94.0971C69.5879 97.861 75.2801 107.34 69.5879 111.104C56.3446 114.891 60.1317 90.1938 46.8884 97.861C41.2193 101.648 41.2193 114.891 31.7632 111.104C12.8508 103.553 31.7632 82.7357 24.1889 73.2796C18.5199 61.9414 9.0637 95.979 -0.392475 80.8538C-8.05964 69.4692 9.0637 60.013 3.39464 48.7911C2.84109 47.7194 2.0659 46.7778 1.12054 46.0287C0.175173 45.2796 -0.918734 44.7402 -2.08855 44.4464C-10.795 58.4367 -13.9682 75.1723 -10.9871 91.3787C-7.01412 91.5878 -3.18054 93.4001 -2.29765 96.0255C-0.392476 107.387 1.48947 120.63 14.7328 113.056C18.5199 111.081 24.1889 107.317 29.8812 111.081Z" fill="#3C79DD"/>
<path d="M-0.392454 80.8305C9.06372 95.9557 18.5199 61.9182 24.1889 73.2563C31.7632 82.7124 12.8508 103.46 31.7632 111.081C41.2193 114.868 41.2193 101.625 46.8884 97.8377C60.1317 90.2867 56.3446 114.868 69.5879 111.081C75.2802 107.317 69.5879 97.8377 75.2802 94.0738C82.8312 92.1686 88.5234 97.8377 94.1925 99.7429C107.436 105.412 99.8616 80.8305 105.531 77.0434C108.319 72.8845 115.173 77.8566 121.608 79.3668C121.6 71.1893 120.079 63.084 117.124 55.4592C116.105 57.259 114.739 58.8385 113.105 60.1059C109.318 65.775 99.8616 50.6497 96.0744 58.224C92.2873 63.893 96.0744 75.2312 88.5234 79.1344C73.375 86.7087 71.493 60.2221 60.1317 65.8911C54.4626 67.7963 60.1317 81.0396 50.6755 84.8267C46.8884 84.8267 41.2193 81.0396 39.3374 79.1344C35.5503 69.6783 46.8884 52.6479 35.5503 48.9304C27.9761 45.1433 26.0941 62.1737 16.6379 56.4814C10.9457 50.8124 18.5199 43.2382 18.5199 37.5691C18.0132 35.694 17.1043 33.9518 15.8566 32.4632C14.6088 30.9747 13.0519 29.7757 11.2942 28.9493C6.05306 33.4396 1.5387 38.7142 -2.08853 44.5857C-0.93114 44.8639 0.154956 45.3819 1.09949 46.1063C2.04402 46.8307 2.82594 47.7454 3.39466 48.791C9.06372 60.013 -8.05962 69.4692 -0.392454 80.8305Z" fill="#458DF4"/>
<path d="M69.5879 24.0703C74.467 27.7412 75.4196 21.956 75.4661 15.8687C66.2794 12.8011 56.5202 11.8403 46.9117 13.0574C47.6784 16.1475 48.1198 19.5165 48.7936 22.1883C56.3446 16.4961 60.1317 18.4012 69.5879 24.0703Z" fill="#DCECFF"/>
<path d="M92.2872 35.4316C88.5233 31.6444 84.7362 25.9754 86.6181 24.0702C87.6356 23.3047 88.8384 22.8236 90.1032 22.6762C85.5541 19.8315 80.6785 17.5458 75.582 15.8687C75.582 21.9559 74.583 27.7412 69.7039 24.0702C60.2477 18.4012 56.4606 16.496 48.7934 22.1883C48.1196 19.5164 47.7014 16.2636 46.9115 13.0574C37.0425 14.2042 27.5556 17.5465 19.147 22.8388C19.2665 24.5924 19.7824 26.2959 20.6557 27.8212C21.529 29.3465 22.737 30.6537 24.1888 31.6444C29.8811 39.1954 31.763 25.9754 35.5501 20.2831H43.0547C52.5341 31.6444 35.5037 58.131 56.298 52.4387C65.8006 48.791 48.7934 20.2831 65.8006 27.8806C71.4929 31.6677 69.5877 44.911 79.0439 50.58C90.4052 54.3439 96.0743 42.9826 92.2872 35.4316Z" fill="#A6CAFF"/>
<path opacity="0.2" d="M73.5145 15.4737C76.8817 26.9801 77.0913 39.1804 74.1211 50.7956C71.1509 62.4108 65.1104 73.013 56.6329 81.4905C48.1554 89.9679 37.5533 96.0084 25.9381 98.9786C14.3229 101.949 2.12248 101.739 -9.38388 98.372C-1.92582 123.976 24.2355 146.373 54.6718 146.373C70.7051 146.311 86.1818 140.488 98.2795 129.966C110.377 119.443 118.29 104.924 120.574 89.0537C122.859 73.1839 119.363 57.0217 110.724 43.5146C102.085 30.0076 88.8792 20.0556 73.5145 15.4737Z" fill="url(#paint0_linear_5_634)"/>
<path opacity="0.7" d="M28.2548 34.1073C30.253 36.7559 28.1387 41.7512 23.6081 45.213C19.0775 48.6749 13.6408 49.3719 11.6427 46.7233C9.64454 44.0746 11.6427 39.0793 16.2894 35.5942C20.9362 32.1092 26.2335 31.4586 28.2548 34.1073Z" fill="white"/>
<defs>
<linearGradient id="paint0_linear_5_634" x1="18.0785" y1="50.7891" x2="131.111" y2="138.729" gradientUnits="userSpaceOnUse">
<stop/>
<stop offset="0.57"/>
<stop offset="0.61"/>
<stop offset="1" stop-color="#404040"/>
</linearGradient>
</defs>
</svg>
