<svg width="255" height="436" viewBox="0 0 255 436" fill="none" xmlns="http://www.w3.org/2000/svg">
<path d="M55.9455 27.8734C55.9456 33.3893 57.5822 38.7812 60.6481 43.3665C63.7141 47.9517 68.0716 51.5243 73.169 53.6318C78.2664 55.7393 83.8745 56.2871 89.2833 55.2057C94.6922 54.1243 99.6586 51.4624 103.554 47.557C107.449 43.6516 110.098 38.6783 111.165 33.2667C112.233 27.855 111.67 22.2484 109.55 17.1565C107.429 12.0646 103.845 7.71639 99.2517 4.66235C94.6584 1.60832 89.2623 -0.0142329 83.7464 9.40663e-05C80.0895 8.16661e-05 76.4684 0.721565 73.0908 2.12322C69.7131 3.52487 66.6451 5.57914 64.0626 8.16837C61.4801 10.7576 59.4338 13.8309 58.041 17.2122C56.6481 20.5935 55.936 24.2164 55.9455 27.8734Z" fill="#F41111"/>
<path opacity="0.5" d="M86.7143 14.8417C86.7 15.5923 86.9104 16.33 87.3185 16.96C87.7266 17.5901 88.3138 18.0838 89.0046 18.3777C89.6954 18.6716 90.4582 18.7522 91.1952 18.6092C91.9322 18.4663 92.6096 18.1063 93.1404 17.5755C93.6712 17.0447 94.0312 16.3673 94.1742 15.6303C94.3171 14.8933 94.2365 14.1305 93.9426 13.4397C93.6487 12.7489 93.155 12.1617 92.525 11.7536C91.8949 11.3455 91.1572 11.1351 90.4066 11.1494C89.4274 11.1494 88.4882 11.5384 87.7958 12.2309C87.1033 12.9233 86.7143 13.8625 86.7143 14.8417Z" fill="white"/>
<path opacity="0.2" d="M76.1439 1.01367C72.3934 4.96631 69.8837 9.93151 68.925 15.2953C67.9664 20.6591 68.6009 26.1863 70.7501 31.1933C72.8993 36.2003 76.4688 40.4676 81.0174 43.4676C85.566 46.4675 90.8942 48.0684 96.3429 48.0725C98.7872 48.0792 101.222 47.7627 103.583 47.1313C100.612 50.2001 96.9732 52.543 92.9501 53.9782C88.9269 55.4133 84.6272 55.9021 80.3846 55.4067C76.1419 54.9112 72.0705 53.4448 68.4864 51.1212C64.9022 48.7976 61.9016 45.6794 59.7175 42.0085C57.5334 38.3377 56.2246 34.2129 55.8926 29.9544C55.5606 25.6958 56.2143 21.418 57.803 17.453C59.3918 13.488 61.8728 9.94243 65.0536 7.09143C68.2343 4.24043 72.0293 2.16071 76.1439 1.01367Z" fill="black"/>
<path d="M0.342705 109.683C0.357018 116.639 2.43276 123.435 6.30769 129.212C10.1826 134.988 15.6828 139.487 22.1134 142.139C28.5439 144.791 35.6163 145.477 42.4368 144.112C49.2574 142.746 55.52 139.389 60.4336 134.465C65.3471 129.542 68.691 123.272 70.0428 116.449C71.3946 109.625 70.6936 102.555 68.0284 96.1294C65.3631 89.7043 60.8533 84.2134 55.0687 80.3504C49.284 76.4873 42.4841 74.4255 35.5282 74.4255C26.1898 74.4447 17.2404 78.1678 10.6439 84.7779C4.0474 91.3879 0.34269 100.345 0.342705 109.683Z" fill="#FF9F36"/>
<path opacity="0.2" d="M26.8416 75.7286C22.0622 80.7035 18.8542 86.976 17.6181 93.763C16.382 100.55 17.1724 107.551 19.8909 113.891C22.6093 120.232 27.1353 125.631 32.9036 129.415C38.672 133.199 45.4272 135.2 52.3257 135.168C55.3068 135.153 58.2742 134.763 61.1583 134.009C57.4499 138.067 52.8423 141.199 47.705 143.155C42.5677 145.111 37.0436 145.836 31.5755 145.272C26.1074 144.708 20.8476 142.871 16.2177 139.908C11.5877 136.944 7.71649 132.937 4.91439 128.208C2.1123 123.479 0.457287 118.159 0.082016 112.675C-0.293259 107.19 0.621647 101.694 2.75342 96.6275C4.88519 91.5606 8.17452 87.0637 12.3576 83.4973C16.5408 79.9309 21.5013 77.3942 26.8416 76.0906V75.7286Z" fill="black"/>
<path d="M190.823 39.3849C203.19 33.7007 216.092 29.2625 229.339 26.136C257.863 38.5885 290.949 35.403 322.877 25.4845C343.192 30.0059 362.715 37.5467 380.796 47.8555C316.361 59.222 248.09 65.3758 190.823 39.3849Z" fill="#FFB727"/>
<path d="M229.339 26.1357C260.054 18.7374 292.061 18.5144 322.877 25.4841C290.949 35.4027 257.864 38.5882 229.339 26.1357Z" fill="#FFC215"/>
<path d="M193.066 74.6138C180.471 70.5598 168.241 65.4497 156.505 59.3378C167.298 51.6245 178.787 44.9349 190.822 39.3559C248.089 65.4916 316.361 59.3378 380.867 47.9713C394.314 55.7434 406.866 64.9691 418.297 75.4826C345.977 104.562 265.16 104.25 193.066 74.6138Z" fill="#FF9F36"/>
<path d="M113.211 100.547C117.338 95.1891 121.754 90.1213 126.388 85.1982C145.976 104.77 171.376 117.47 198.786 121.397C279.365 143.117 369.79 144.782 429.736 86.8634C439.753 97.6339 448.61 109.427 456.161 122.049C351.256 169.47 189.012 192.13 113.211 100.547Z" fill="#F9832B"/>
<path d="M76.7227 172.525C78.1707 167.095 79.9082 161.81 81.7905 156.525C99.1647 168.317 118.952 176.084 139.709 179.258C254.171 207.71 373.266 208.651 466.225 139.656C473.103 154.378 478.23 169.856 481.501 185.773C358.351 244.054 189.736 244.633 76.7227 172.525Z" fill="#FF6A17"/>
<path d="M81.7184 298.136C76.7294 284.33 73.2107 270.037 71.2207 255.493C183.148 337.81 362.406 324.923 481.935 267.873C478.026 288.102 471.095 307.626 461.374 325.792C340.397 368.796 196.976 356.706 81.7184 298.136Z" fill="#EA1111"/>
<path d="M449.646 344.832C442.35 355.379 434.111 365.242 425.031 374.299C349.664 384.941 274.443 368.289 204.868 391.457C190.139 397.043 174.41 399.508 158.678 398.697C142.937 387.703 128.784 374.597 116.615 359.746C216.09 392.253 344.597 351.203 449.646 344.832Z" fill="#CE0B0B"/>
<path d="M185.466 414.19C176.147 409.539 167.192 404.19 158.679 398.19C174.411 399.001 190.14 396.536 204.869 390.95C274.443 367.783 349.665 384.434 425.032 373.792C415.873 382.939 405.915 391.25 395.276 398.624C333.81 375.964 252.941 390.081 185.466 414.19Z" fill="#BF0C0C"/>
<path d="M349.374 422.733C336.502 427.494 323.187 430.962 309.627 433.086C293.265 423.167 275.456 426.425 258.442 434.751C241.834 433.247 225.472 429.722 209.718 424.253C251.419 404.778 305.79 405.43 349.374 422.733Z" fill="#871108"/>
<path d="M395.275 399.131C381.02 408.884 365.6 416.813 349.375 422.733C305.936 405.285 251.42 404.778 209.719 424.253C201.414 421.456 193.311 418.093 185.465 414.19C252.94 390.081 333.809 375.964 395.275 399.131Z" fill="#A3130C"/>
<path d="M116.616 359.746C101.43 341.387 89.5265 320.544 81.4301 298.136C196.978 356.706 340.398 368.796 461.376 325.357C457.827 332.06 453.912 338.561 449.647 344.832C344.597 351.203 216.091 392.253 116.616 359.746Z" fill="#E01212"/>
<path d="M71.2211 255.493C69.9453 246.184 69.2923 236.799 69.2664 227.403C69.2664 222.19 69.2664 217.05 69.918 211.982C191.692 282.353 368.922 323.33 485.845 237.538C485.327 247.736 484.02 257.878 481.936 267.873C362.406 324.923 183.149 337.81 71.2211 255.493Z" fill="#F41111"/>
<path d="M69.9179 211.982C70.2799 207.493 70.7144 203.077 71.2935 198.733C186.117 275.113 373.194 272.507 483.529 196.995C485.037 207.061 485.811 217.224 485.845 227.403C485.845 230.805 485.845 234.136 485.845 237.538C368.922 323.33 191.692 282.353 69.9179 211.982Z" fill="#FF1212"/>
<path d="M71.2932 198.733C72.5374 189.889 74.3511 181.135 76.723 172.525C189.737 244.633 358.352 244.054 481.501 185.774C482.297 189.466 482.949 193.013 483.528 196.995C373.193 272.507 186.117 275.113 71.2932 198.733Z" fill="#FF4715"/>
<path d="M140 179.967C119.242 176.794 99.4553 169.027 82.0811 157.234C89.5063 136.803 100.11 117.671 113.502 100.547C189.013 192.13 351.257 169.47 456.38 121.687C459.989 127.735 463.276 133.97 466.226 140.366C373.266 209.361 254.172 208.42 140 179.967Z" fill="#FC6F29"/>
<path d="M199.004 121.745C171.594 117.818 146.194 105.117 126.606 85.546C135.736 75.8986 145.746 67.1245 156.506 59.3379C168.247 65.4001 180.477 70.4618 193.067 74.4691C265.161 104.105 345.978 104.417 418.298 75.3379C422.352 79.1026 426.19 83.0121 429.954 87.0664C370.009 145.13 279.583 143.247 199.004 121.745Z" fill="#FF9A22"/>
<path opacity="0.2" d="M219.131 27.5112C213.564 46.487 210.736 66.1609 210.733 85.9365C210.733 113.289 216.121 140.375 226.588 165.645C237.056 190.916 252.398 213.878 271.74 233.219C310.802 272.281 363.781 294.226 419.023 294.226C438.799 294.229 458.473 291.401 477.448 285.828C467.311 320.548 448.308 352.03 422.309 377.175C396.31 402.32 364.211 420.261 329.172 429.233C294.133 438.205 257.362 437.898 222.477 428.343C187.593 418.787 155.798 400.312 130.223 374.737C104.647 349.161 86.172 317.366 76.6164 282.482C67.0608 247.597 66.7538 210.826 75.7257 175.787C84.6976 140.748 102.639 108.649 127.784 82.6501C152.929 56.651 184.411 37.6479 219.131 27.5112Z" fill="url(#paint0_linear_5_605)"/>
<path opacity="0.5" d="M39.655 96.0001C39.6549 96.5767 39.7696 97.1475 39.9924 97.6793C40.2152 98.2111 40.5417 98.6932 40.9527 99.0975C41.3638 99.5019 41.8513 99.8203 42.3867 100.034C42.9221 100.248 43.4947 100.354 44.0712 100.344C44.9478 100.344 45.8044 100.083 46.5322 99.5943C47.2599 99.1058 47.8258 98.4118 48.1578 97.6006C48.4899 96.7894 48.573 95.8977 48.3966 95.0391C48.2203 94.1805 47.7924 93.3938 47.1675 92.7792C46.5426 92.1645 45.749 91.7497 44.8876 91.5876C44.0262 91.4254 43.136 91.5233 42.3304 91.8687C41.5248 92.2141 40.8402 92.7914 40.3638 93.5271C39.8873 94.2628 39.6406 95.1237 39.655 96.0001Z" fill="white"/>
<defs>
<linearGradient id="paint0_linear_5_605" x1="392.308" y1="138.136" x2="40.163" y2="412.163" gradientUnits="userSpaceOnUse">
<stop/>
<stop offset="0.14" stop-color="#030001"/>
<stop offset="0.27" stop-color="#0E0103"/>
<stop offset="0.39" stop-color="#200206"/>
<stop offset="0.51" stop-color="#3A040B"/>
<stop offset="0.62" stop-color="#5A0611"/>
<stop offset="0.73" stop-color="#820919"/>
<stop offset="0.84" stop-color="#B20C22"/>
<stop offset="0.95" stop-color="#E80F2D"/>
<stop offset="0.99" stop-color="#FF1131"/>
</linearGradient>
</defs>
</svg>
