<svg width="326" height="548" viewBox="0 0 326 548" fill="none" xmlns="http://www.w3.org/2000/svg">
<path d="M21.0004 132.538L26.0869 133.651C34.0631 135.799 41.8942 138.454 49.5324 141.599C53.9831 143.506 58.5132 145.572 62.8049 147.877C67.0966 150.182 71.3089 152.566 75.4416 155.189C55.1752 155.825 32.0476 148.195 21.0004 132.538Z" fill="#FFF871"/>
<path d="M-8.88194 127.929C-5.14655 127.929 -1.49064 128.565 2.08579 128.962C8.44877 129.825 14.7625 131.018 21.0011 132.538C32.0483 148.434 55.4938 155.825 75.4423 155.348L78.224 157.017C85.9077 162.12 93.1879 167.806 100.001 174.025C60.2624 192.384 10.5103 167.27 -8.88194 127.929Z" fill="#FFA727"/>
<path d="M-27.2416 127.77H-19.2939C-15.7175 127.77 -12.1411 127.77 -8.64413 127.77C10.7481 167.11 60.5002 192.225 100.238 173.866C106.645 179.82 112.62 186.22 118.12 193.02C65.984 216.545 -2.92185 181.893 -27.2416 127.77Z" fill="#9E713B"/>
<path d="M-4.51088 201.524C-26.2874 183.324 -48.1434 158.924 -57.9984 131.903C-54.1835 131.028 -50.0508 130.234 -46.3949 129.598L-38.4472 128.565C-34.7913 128.565 -31.056 127.929 -27.3206 127.77C-3.00085 181.893 65.905 216.545 117.803 193.179C120.505 196.517 123.128 200.014 125.751 203.511C86.9662 232.122 30.6176 224.969 -4.51088 201.524Z" fill="#B75F00"/>
<path d="M-65.1517 133.572C-62.7674 133.015 -60.3831 132.379 -57.9988 131.903C-48.0643 158.925 -26.2083 183.324 -4.51132 201.524C30.6172 224.969 87.1248 232.122 125.671 203.511C126.942 205.259 128.214 207.087 129.327 208.915C132.347 213.525 135.049 218.373 137.672 223.38C139.42 226.797 141.089 230.374 142.679 233.95L144.109 237.526C60.6592 267.41 -35.1097 218.214 -65.1517 133.572Z" fill="#FFA727"/>
<path d="M-91.8557 143.029C-83.6836 139.393 -75.2646 136.338 -66.6618 133.889L-65.1517 133.492C-35.1097 218.214 60.6591 267.409 144.109 237.526C146.442 242.996 148.459 248.595 150.149 254.296C150.865 256.521 151.421 258.905 151.977 261.21C55.1753 288.471 -60.86 236.652 -91.8557 143.029Z" fill="#FFF871"/>
<path d="M-113.712 154.871C-107.222 150.697 -100.45 146.979 -93.4451 143.745L-91.8556 143.029C-60.8598 236.652 55.1755 288.471 151.977 261.528C152.454 263.197 152.931 264.866 153.329 266.535C154.521 272.019 155.395 277.662 156.11 283.305C50.9632 310.883 -54.9786 245.792 -113.712 154.871Z" fill="#FFA727"/>
<path d="M-134.376 170.051C-130.879 167.111 -127.382 164.249 -123.646 161.547C-119.911 158.845 -117.129 157.017 -113.712 154.871C-54.9788 245.792 50.963 310.883 156.11 283.305C156.587 287.12 157.064 291.252 157.302 294.829C157.541 298.405 157.302 301.425 157.302 304.684C157.302 306.591 157.302 308.419 157.302 310.247C157.302 312.075 157.302 313.108 157.302 314.539C47.2276 342.117 -78.4243 272.734 -134.376 170.051Z" fill="#9E713B"/>
<path d="M-148.443 183.483C-147.886 182.926 -147.489 182.37 -147.012 181.814C-142.959 177.681 -139.064 173.866 -134.375 170.051C-78.4241 272.734 47.2278 342.117 157.143 314.539C157.143 316.923 157.143 319.228 156.667 321.612C156.19 326.222 155.554 330.752 154.759 335.282C154.282 338.302 153.646 341.322 152.931 344.263C35.4653 362.94 -91.8555 287.279 -148.443 183.483Z" fill="#B75F00"/>
<path d="M-163.623 202.08C-158.982 195.55 -153.911 189.337 -148.443 183.483C-91.8559 287.279 35.465 362.94 152.931 344.263C152.375 346.647 151.818 348.952 151.182 351.257C149.323 358.173 147.04 364.967 144.347 371.603C144.103 372.064 143.89 372.542 143.712 373.033C50.8039 391.71 -35.3483 349.191 -99.9625 284.259C-123.629 258.851 -144.936 231.345 -163.623 202.08Z" fill="#FFF871"/>
<path d="M-186.75 246.984C-184.223 239.53 -181.196 232.254 -177.69 225.208C-174.346 218.576 -170.603 212.154 -166.483 205.974L-163.622 202.08C-144.961 231.342 -123.68 258.848 -100.041 284.259C-35.4271 348.793 50.9636 391.71 143.633 373.033C141.646 377.723 139.421 382.412 137.036 386.942C133.913 392.876 130.463 398.634 126.704 404.188C-1.72916 423.183 -115.062 350.303 -186.75 246.984Z" fill="#FFA727"/>
<path d="M-196.605 303.174C-196.523 291.715 -195.299 280.294 -192.949 269.078C-192.393 266.376 -191.757 263.595 -191.042 261.131C-144.23 369.616 -9.91548 434.945 107.709 428.031C104.769 431.13 101.669 434.151 98.4901 437.012C93.7674 441.216 88.805 445.144 83.628 448.774C-25.5723 452.827 -123.01 400.453 -195.81 321.612C-196.287 316.208 -196.685 310.803 -196.685 305.24C-196.685 304.207 -196.605 303.651 -196.605 303.174Z" fill="#FFA727"/>
<path d="M83.6278 448.138C81.323 449.887 79.0182 451.556 76.6339 453.145C69.2809 457.956 61.5765 462.207 53.5858 465.862L49.4531 467.61C-40.673 460.457 -137.396 419.924 -190.406 351.098C-193.068 341.258 -194.876 331.207 -195.811 321.056C-123.01 399.817 -25.5725 452.192 83.6278 448.138Z" fill="#FFF871"/>
<path d="M-172.524 393.856C-113.295 438.963 -42.739 466.8 31.3329 474.286C24.8152 476.286 18.1793 477.879 11.4639 479.055C1.34311 480.908 -8.92493 481.839 -19.214 481.836H-22.3135C-62.6874 463.875 -108.625 454.258 -144.627 429.7C-155.346 419.066 -164.618 407.069 -172.206 394.015L-172.524 393.856Z" fill="#9E713B"/>
<path d="M49.4529 467.61C43.4264 470.153 37.272 472.382 31.0144 474.286C-42.9468 466.743 -113.385 438.909 -172.524 393.856C-179.82 381.357 -185.559 368.012 -189.612 354.118C-189.612 353.085 -190.168 352.052 -190.406 350.939C-137.396 420.163 -40.6732 460.457 49.4529 467.61Z" fill="#FFA727"/>
<path d="M-191.201 260.892C-190.327 257.475 -189.373 253.978 -188.26 250.64C-188.26 249.368 -187.386 248.176 -186.909 246.984C-115.381 350.303 -1.88858 423.183 126.386 404.188L123.763 408.162C120.294 412.933 116.58 417.523 112.637 421.911C111.047 423.819 109.299 425.567 107.55 427.395C-9.91568 434.707 -144.23 369.377 -191.201 260.892Z" fill="#9E713B"/>
<path opacity="0.2" d="M-69.284 135.082C-73.9503 151.255 -76.3311 168.001 -76.3574 184.834C-76.2312 231.721 -57.5222 276.646 -24.3305 309.763C8.86118 342.88 53.8281 361.488 100.716 361.509C117.575 361.497 134.35 359.116 150.547 354.436C141.981 383.996 125.861 410.814 103.777 432.248C81.6922 453.683 54.4046 468.994 24.6022 476.674C-5.20015 484.354 -36.4891 484.137 -66.1823 476.045C-95.8754 467.953 -122.948 452.265 -144.734 430.527C-166.519 408.789 -182.266 381.75 -190.422 352.075C-198.578 322.399 -198.863 291.111 -191.248 261.292C-183.633 231.473 -168.381 204.152 -146.994 182.021C-125.608 159.89 -98.8251 143.712 -69.284 135.082Z" fill="url(#paint0_linear_5_658)"/>
<path d="M-48.7795 128.326C-60.5414 130.46 -72.0483 133.816 -83.1132 138.34C-185.081 85.1706 -268.134 66.8116 -289.751 97.5689C-311.369 128.326 -269.008 196.199 -189.929 271.622C-151.558 307.918 -110.628 341.411 -67.4564 371.841C-24.4716 402.497 20.6839 429.988 67.6532 454.099C165.171 503.454 243.852 520.065 265.072 490.022C286.292 459.98 241.229 386.703 157.541 308.658C158.047 296.697 157.354 284.716 155.474 272.893C279.219 379.233 349.237 483.744 318.162 527.297C288.438 569.34 173.674 542 38.247 467.213C-3.00822 444.251 -42.9903 419.074 -81.5237 391.79C-120.188 364.711 -157.333 335.526 -192.79 304.366C-308.349 201.444 -372.486 102.417 -342.762 60.2946C-312.005 16.8211 -190.247 47.6579 -48.7795 128.326Z" fill="#FFA727"/>
<path d="M-83.113 138.34C-89.3557 140.812 -95.4347 143.679 -101.313 146.923C-103.538 148.116 -105.684 149.387 -107.83 150.659C-176.259 118.868 -229.111 109.172 -243.893 130.154C-258.676 151.136 -233.641 194.768 -184.048 246.348C-144.684 286.507 -101.66 322.906 -55.5347 355.072C-9.88013 387.799 38.7321 416.189 89.6684 439.873C154.998 469.358 204.988 477.703 219.374 457.437C233.759 437.171 207.373 389.962 154.521 336.077C155.104 333.587 155.581 331.123 155.952 328.686C156.968 322.049 157.631 315.364 157.938 308.658C242.024 386.942 287.326 459.106 265.47 490.022C243.614 520.939 165.568 503.454 68.0508 454.099C21.0814 429.988 -24.074 402.497 -67.0588 371.841C-110.477 341.438 -151.646 307.945 -190.247 271.622C-269.723 196.199 -311.21 127.531 -290.069 97.5687C-268.928 67.6062 -185.081 85.1704 -83.113 138.34Z" fill="#FFF871"/>
<path d="M-107.83 150.977C-111.407 153.123 -114.983 155.428 -118.401 157.812C-123.09 161.15 -127.699 164.726 -132.071 168.541C-169.742 152.646 -196.605 148.036 -204.076 158.607C-211.547 169.177 -199.069 191.669 -173.001 220.598C-132.83 262.882 -88.3164 300.817 -40.196 333.772C6.92121 368.148 57.5368 397.451 110.809 421.196C146.812 436.058 172.244 440.032 179.556 429.78C186.868 419.527 173.754 395.366 146.176 365.245C148.242 359.84 150.15 354.277 151.66 348.714C152.852 344.66 153.805 340.766 154.6 336.554C207.452 390.439 234.076 437.012 219.453 457.914C204.829 478.816 155.077 469.836 89.7476 440.35C38.7655 416.519 -9.87412 387.968 -55.535 355.072C-101.66 322.906 -144.684 286.507 -184.048 246.348C-233.641 194.609 -258.279 150.262 -243.894 129.995C-229.508 109.729 -176.259 119.186 -107.83 150.977Z" fill="#B75F00"/>
<path opacity="0.7" d="M83.707 210.743C75.7594 215.829 76.7926 230.93 85.6939 244.52C94.5953 258.111 108.186 264.787 115.974 259.621C123.763 254.455 122.809 239.434 113.908 225.923C105.007 212.412 91.4957 205.577 83.707 210.743Z" fill="white"/>
<path opacity="0.5" d="M10.4306 75.3155C12.8302 73.7882 14.8128 71.6887 16.2001 69.2055C17.5873 66.7223 18.3358 63.9333 18.3782 61.0892C20.0472 61.0892 21.0805 61.0892 21.8752 62.2019C22.67 63.3146 20.6831 73.726 14.4839 77.3819C6.47983 81.3597 -2.32846 83.453 -11.2664 83.5015C-13.3328 83.5015 -14.1275 82.3889 -14.2865 81.5941C-5.71311 81.1577 2.68834 79.0236 10.4306 75.3155Z" fill="#FFFA94"/>
<path d="M-38.6069 63.553C-28.5134 85.091 -10.2339 91.2902 11.3042 81.2762C24.8152 74.9181 49.3733 66.732 51.5192 53.0621C52.7908 45.1145 40.3925 29.2193 36.6571 21.2716C30.9348 8.95284 15.437 3.3895 3.43607 0.369402C-5.78317 -1.93541 -13.7308 7.12488 -22.9501 11.4961C-33.7588 16.5031 -50.6873 21.669 -54.7406 32.0804C-58.7938 42.4918 -43.6139 52.5853 -38.6069 63.553Z" fill="#FFB208"/>
<path d="M17.583 7.91971C22.3516 11.0193 17.583 17.6158 12.417 19.2848C9.91583 19.8555 7.30518 19.7192 4.87703 18.8911C2.44887 18.063 0.298939 16.5758 -1.33236 14.5957C-4.5114 10.304 -4.98827 3.23061 1.60826 3.46904C7.14077 4.06874 12.5374 5.57227 17.583 7.91971Z" fill="#FFD00B"/>
<path opacity="0.5" d="M14.404 10.8602C9.38326 8.52113 4.01417 7.01778 -1.49123 6.40957C-2.17432 6.28418 -2.87452 6.28418 -3.5576 6.40957C-3.46149 5.82888 -3.25115 5.27303 -2.93876 4.77418C-2.62637 4.27533 -2.21814 3.8434 -1.73769 3.50338C-1.25724 3.16337 -0.714108 2.92204 -0.139759 2.79335C0.434591 2.66466 1.02874 2.65117 1.60833 2.75367C7.11185 3.37158 12.4794 4.8745 17.5036 7.20434C21.239 9.58862 19.3316 14.1188 15.7551 16.821C16.3534 15.8479 16.547 14.6793 16.2945 13.5652C16.042 12.4512 15.3634 11.4803 14.404 10.8602Z" fill="#FFFA94"/>
<path d="M-0.457464 23.0996C-3.71599 25.8813 -13.8095 27.2324 -15.7964 28.8219C-17.7833 30.4114 -19.1344 30.4909 -17.068 33.3521C-15.0016 36.2132 -12.4584 36.2927 -11.902 40.4254C-11.6523 43.936 -12.5748 47.4301 -14.5248 50.36C-15.7964 52.6648 -16.4322 54.1748 -14.5248 59.0229C-12.6173 63.8709 9.87445 60.7714 14.3251 57.3539C18.7758 53.9364 25.5313 42.8097 23.3854 37.008C21.2395 31.2062 22.5112 21.1127 17.1068 21.5101C11.7024 21.9075 4.39058 18.649 -0.457464 23.0996Z" fill="#FFD00B"/>
<path opacity="0.5" d="M15.4377 46.7041C13.6097 40.9818 14.5634 30.8088 9.15903 30.8088C3.75464 30.8088 -3.87506 28.0272 -8.96154 32.4778C-10.8723 33.7712 -12.9985 34.7132 -15.2402 35.2595C-16.0329 34.5965 -16.7523 33.8505 -17.386 33.0342C-19.4524 30.173 -18.1808 30.0141 -16.1144 28.504C-14.048 26.994 -3.95455 25.8813 -0.457592 23.0996C4.62889 18.649 11.7023 21.9075 17.663 21.5101C23.6237 21.1127 22.1137 31.2857 23.9416 37.4053C25.7696 43.525 18.6962 54.4133 14.2455 57.7513L13.0534 58.4665C15.3084 54.9889 16.1604 50.7853 15.4377 46.7041Z" fill="#FFFA94"/>
<path d="M9.31736 62.6788C1.76711 63.871 -0.935066 60.8509 -6.10102 66.6526C-9.1844 70.3764 -11.8496 74.4275 -14.0486 78.733C-15.3997 80.7994 -16.0356 82.5479 -11.9823 83.4221C-3.04902 83.335 5.75075 81.2437 13.768 77.3024C19.9672 73.6465 22.8283 64.4273 21.1593 62.1225C19.4903 59.8177 16.7881 61.4867 9.31736 62.6788Z" fill="#FFD00B"/>
<path d="M28.948 14.9136C28.948 14.9136 25.2127 10.7808 22.0336 12.8472C18.8546 14.9136 20.762 16.1057 21.4773 18.8079C22.1926 21.5101 22.5105 21.0332 23.941 25.8813C25.4362 30.0936 26.4233 34.4692 26.8816 38.9154C26.8816 42.6508 24.4179 44.8761 24.3384 46.863C24.2589 48.8499 19.5699 55.6849 26.8022 54.8106C34.0345 53.9364 45.8765 50.201 46.5917 46.3067C47.307 42.4123 45.9559 40.0281 42.6179 35.5774C39.8575 31.9573 37.5613 28.0057 35.783 23.8149C33.863 20.5891 31.5688 17.6013 28.948 14.9136Z" fill="#FFD00B"/>
<path opacity="0.5" d="M39.28 47.6577C39.9952 43.8429 38.7236 41.3791 35.3061 36.9285C32.5083 33.0756 30.2116 28.8827 28.4712 24.4507C26.6053 21.3484 24.3922 18.4687 21.8747 15.8673C21.4506 15.4105 20.9698 15.0099 20.4441 14.6751C20.8151 13.9866 21.364 13.4102 22.0336 13.0061C25.2127 10.9397 28.948 15.0725 28.948 15.0725C31.5588 17.7107 33.8527 20.6447 35.783 23.8149C37.5065 28.2548 39.8044 32.4498 42.6179 36.2926C45.9559 40.7433 47.307 43.2071 46.5917 47.0219C45.8765 50.8368 34.114 55.6054 26.8022 55.6054H25.0537C31.3323 54.0953 39.28 50.9163 39.28 47.6577Z" fill="#FFFA94"/>
<path d="M46.7509 58.228C43.6012 61.9764 39.8716 65.1962 35.7037 67.7652C33.081 69.5136 24.6565 74.2822 23.8618 71.2621C23.067 68.242 23.8618 68.0036 23.8618 64.7451C23.8618 61.4865 20.6827 60.7713 21.4775 58.387C22.2722 56.0027 23.067 57.5922 26.7229 57.0359C31.0955 57.0982 35.4476 56.4266 39.5981 55.049C41.7693 53.471 44.0244 52.0118 46.3535 50.6778C49.2942 49.0883 48.1815 55.6053 46.7509 58.228Z" fill="#FFD00B"/>
<g opacity="0.5">
<path d="M23.3846 67.7652C27.307 67.2851 31.0486 65.8376 34.2729 63.553C38.4138 60.9157 42.1373 57.6743 45.3201 53.9363C45.8374 52.9898 46.2124 51.9722 46.4328 50.9162C49.0555 49.4857 48.0223 56.0822 46.4328 58.387C43.3099 62.1837 39.5764 65.4337 35.3855 68.0036C32.7628 69.7521 24.3384 74.4412 23.5436 71.5006C23.1074 70.3015 23.0519 68.997 23.3846 67.7652Z" fill="#FFFA94"/>
</g>
<path opacity="0.7" d="M27.4385 48.6114C27.8359 50.042 30.1407 50.6778 32.6839 50.042C35.2272 49.4062 36.8962 47.7372 36.4988 46.3066C36.1014 44.876 33.7966 44.1608 31.3328 44.7966C28.8691 45.4324 27.1206 47.1809 27.4385 48.6114Z" fill="white"/>
<path opacity="0.7" d="M7.48981 15.8672C8.12562 16.8209 10.0331 16.7415 11.7815 15.8672C13.53 14.993 14.4042 13.0856 13.7684 12.1318C13.1326 11.1781 11.2252 11.1781 9.47671 12.1318C7.72824 13.0856 7.48981 15.0725 7.48981 15.8672Z" fill="white"/>
<path opacity="0.7" d="M7.48934 74.1233C8.04567 75.1564 9.95311 75.2359 11.7811 74.1233C13.609 73.0106 14.6422 71.58 14.0859 70.5468C13.5295 69.5136 11.6221 69.4342 9.79415 70.5468C7.9662 71.6595 7.48934 73.0901 7.48934 74.1233Z" fill="white"/>
<path opacity="0.7" d="M25.61 69.2752C25.61 69.9905 27.279 69.9905 28.5506 69.2752C29.8222 68.5599 30.3786 67.5267 30.0607 66.8114C29.7428 66.0961 28.3917 66.0961 27.1995 66.8114C26.0074 67.5267 25.2921 68.5599 25.61 69.2752Z" fill="white"/>
<defs>
<linearGradient id="paint0_linear_5_658" x1="77.9854" y1="228.784" x2="-221.481" y2="461.808" gradientUnits="userSpaceOnUse">
<stop/>
<stop offset="0.57"/>
<stop offset="0.61"/>
<stop offset="1" stop-color="#404040"/>
</linearGradient>
</defs>
</svg>
