<svg width="131" height="145" viewBox="0 0 131 145" fill="none" xmlns="http://www.w3.org/2000/svg">
<path d="M21.7807 10.8904C21.7807 13.0443 21.142 15.1498 19.9453 16.9407C18.7487 18.7316 17.0478 20.1275 15.0579 20.9517C13.0679 21.776 10.8783 21.9916 8.76574 21.5714C6.65322 21.1512 4.71275 20.114 3.18971 18.591C1.66667 17.0679 0.629466 15.1275 0.20926 13.015C-0.210946 10.9024 0.00471857 8.71276 0.828982 6.72281C1.65325 4.73286 3.04909 3.03202 4.83999 1.83538C6.6309 0.63873 8.73644 2.3151e-05 10.8903 2.3151e-05C12.3213 -0.00293035 13.7388 0.276741 15.0614 0.822985C16.384 1.36923 17.5857 2.17129 18.5976 3.18314C19.6094 4.19499 20.4115 5.39671 20.9577 6.71932C21.504 8.04193 21.7836 9.45939 21.7807 10.8904Z" fill="#FFDF4F"/>
<path d="M9.74771 5.80375C9.74768 6.09277 9.66166 6.37525 9.5006 6.61523C9.33954 6.85522 9.11073 7.04186 8.84327 7.15141C8.57582 7.26096 8.28182 7.28847 7.99869 7.23043C7.71555 7.17239 7.45609 7.03143 7.25331 6.82548C7.05053 6.61953 6.91361 6.35791 6.85996 6.07392C6.80632 5.78992 6.83838 5.49638 6.95207 5.23066C7.06575 4.96493 7.25592 4.73904 7.49837 4.58172C7.74083 4.4244 8.0246 4.34277 8.31359 4.34722C8.69599 4.3531 9.06073 4.50915 9.32906 4.78167C9.59738 5.05419 9.74775 5.4213 9.74771 5.80375Z" fill="#D3B94F"/>
<path d="M6.87941 12.9295C6.87499 13.3141 6.75691 13.6888 6.54002 14.0064C6.32314 14.3241 6.01715 14.5704 5.66055 14.7146C5.30396 14.8587 4.91271 14.8941 4.53603 14.8164C4.15935 14.7386 3.81408 14.5512 3.54367 14.2777C3.27327 14.0042 3.08981 13.6568 3.01638 13.2793C2.94296 12.9017 2.98285 12.5109 3.13104 12.156C3.27923 11.8011 3.52909 11.4979 3.84919 11.2847C4.16928 11.0714 4.54529 10.9576 4.92991 10.9576C5.18782 10.9576 5.44316 11.0087 5.68116 11.1081C5.91916 11.2075 6.13507 11.3531 6.3164 11.5365C6.49772 11.7199 6.64085 11.9375 6.7375 12.1766C6.83414 12.4157 6.88238 12.6716 6.87941 12.9295Z" fill="#D3B94F"/>
<path d="M19.1814 13.0864C19.1755 13.4926 19.01 13.8801 18.7207 14.1652C18.4314 14.4504 18.0415 14.6102 17.6353 14.6101C17.2601 14.5647 16.9146 14.3835 16.6639 14.1007C16.4133 13.8179 16.2749 13.4531 16.2749 13.0752C16.2749 12.6973 16.4133 12.3325 16.6639 12.0497C16.9146 11.7669 17.2601 11.5856 17.6353 11.5402C18.0453 11.5402 18.4386 11.7031 18.7286 11.9931C19.0185 12.2831 19.1814 12.6763 19.1814 13.0864Z" fill="#D3B94F"/>
<path d="M13.9829 18.0609C13.986 18.2619 13.9486 18.4614 13.8731 18.6476C13.7976 18.8338 13.6855 19.003 13.5434 19.1451C13.4013 19.2872 13.2321 19.3993 13.0459 19.4749C12.8596 19.5504 12.6601 19.5877 12.4592 19.5847C12.2572 19.5877 12.0567 19.5504 11.8692 19.4752C11.6817 19.3999 11.5111 19.2882 11.3672 19.1464C11.2233 19.0046 11.1091 18.8356 11.0311 18.6493C10.9531 18.4629 10.913 18.2629 10.913 18.0609C10.913 17.6509 11.0759 17.2576 11.3659 16.9676C11.6558 16.6777 12.0491 16.5148 12.4592 16.5148C12.6612 16.5148 12.8612 16.5549 13.0475 16.6329C13.2339 16.7108 13.4028 16.8251 13.5446 16.969C13.6864 17.1128 13.7982 17.2835 13.8734 17.4709C13.9487 17.6584 13.9859 17.859 13.9829 18.0609Z" fill="#D3B94F"/>
<path d="M16.1115 6.54323C16.0784 6.74816 15.9734 6.93461 15.8153 7.06918C15.6572 7.20375 15.4564 7.27765 15.2488 7.27765C15.0412 7.27765 14.8404 7.20375 14.6823 7.06918C14.5242 6.93461 14.4192 6.74816 14.3861 6.54323C14.3659 6.41829 14.3731 6.29045 14.4071 6.16855C14.4412 6.04666 14.5013 5.93362 14.5833 5.83724C14.6654 5.74087 14.7674 5.66347 14.8823 5.61039C14.9972 5.55731 15.1222 5.52982 15.2488 5.52982C15.3754 5.52982 15.5004 5.55731 15.6153 5.61039C15.7302 5.66347 15.8322 5.74087 15.9142 5.83724C15.9963 5.93362 16.0564 6.04666 16.0905 6.16855C16.1245 6.29045 16.1317 6.41829 16.1115 6.54323Z" fill="#D3B94F"/>
<path d="M11.6297 10.8007C11.6297 10.9735 11.5784 11.1425 11.4824 11.2862C11.3864 11.4299 11.2499 11.5419 11.0902 11.6081C10.9305 11.6742 10.7548 11.6915 10.5853 11.6578C10.4157 11.6241 10.26 11.5409 10.1378 11.4187C10.0156 11.2964 9.93235 11.1407 9.89863 10.9712C9.86491 10.8017 9.88221 10.626 9.94836 10.4663C10.0145 10.3066 10.1265 10.1701 10.2702 10.0741C10.4139 9.97804 10.5829 9.92678 10.7558 9.92678C10.9875 9.92678 11.2098 10.0189 11.3737 10.1827C11.5376 10.3466 11.6297 10.5689 11.6297 10.8007Z" fill="#D3B94F"/>
<path opacity="0.2" d="M13.602 0.380911C15.0676 1.92734 16.0485 3.86898 16.4236 5.9663C16.7987 8.06362 16.5517 10.2249 15.713 12.1835C14.8743 14.1421 13.4806 15.8123 11.7038 16.9881C9.92703 18.1639 7.84492 18.7939 5.71432 18.8004C4.79164 18.7957 3.8732 18.6753 2.98053 18.4418C4.48126 20.0183 6.41992 21.1088 8.54641 21.5728C10.6729 22.0369 12.8896 21.8531 14.9107 21.0451C16.9317 20.2372 18.6643 18.8422 19.8849 17.0402C21.1054 15.2381 21.7581 13.1117 21.7585 10.9351C21.7575 8.52158 20.9563 6.17648 19.4805 4.26677C18.0046 2.35706 15.9373 0.990491 13.602 0.380911Z" fill="black"/>
<path d="M13.6467 117.777C19.5856 126.147 27.4435 132.973 36.5625 137.683C45.6814 142.392 55.796 144.849 66.0593 144.846C69.0591 144.834 72.0544 144.609 75.0225 144.174C64.1404 138.429 53.8825 131.573 44.4131 123.715C37.0408 117.172 24.2906 114.954 13.6467 117.777Z" fill="#007E93"/>
<path d="M126.068 103.749C108.276 116.522 91.0441 132.208 68.2102 116.522C53.6225 107.402 42.6874 92.8143 24.4696 90.9992C17.2061 90.0881 9.84599 90.2921 2.6441 91.6043C4.31454 101.04 8.07372 109.982 13.6465 117.777C24.2903 114.954 37.0405 117.172 44.5024 123.715C53.9719 131.573 64.2298 138.429 75.1119 144.174C86.4279 142.562 97.1114 137.968 106.066 130.864C115.021 123.761 121.924 114.402 126.068 103.749Z" fill="#11AABA"/>
<path d="M24.4696 90.8873C42.6874 92.7024 53.6001 107.29 68.2102 116.41C91.0441 132.096 108.276 116.41 126.068 103.75C131.095 90.9418 131.88 76.8591 128.309 63.5718C127.726 64.132 127.143 64.7146 126.606 65.3421C93.8002 101.822 55.5272 83.5823 19.0468 59.8521C15.1484 57.4801 10.5381 56.5596 6.02772 57.2527C1.81553 68.1479 0.645917 79.9835 2.6441 91.4923C9.84598 90.1802 17.2061 89.9762 24.4696 90.8873Z" fill="#20CBD3"/>
<path d="M59.09 56.2219C48.1548 48.9169 42.6873 36.0546 33.5672 32.4917C31.0899 31.3956 28.4964 30.5837 25.8364 30.0716C16.9306 37.2162 10.0797 46.5956 5.98279 57.2527C10.4932 56.5596 15.1035 57.48 19.0019 59.852C55.4375 83.5822 93.7105 101.822 126.561 65.342C127.099 64.7146 127.681 64.132 128.264 63.5718C125.303 52.5774 119.481 42.5644 111.39 34.5533C96.4891 49.0737 79.9071 67.4259 59.09 56.2219Z" fill="#3EE5E5"/>
<path d="M93.7106 27.0242C95.055 26.1279 96.3547 25.1867 97.6544 24.2232C88.8042 19.2134 78.887 16.3865 68.7255 15.977C69.1961 17.187 69.6443 18.4195 70.0252 19.7191C71.8403 25.2091 84.5905 30.6767 93.7106 27.0242Z" fill="#A6F2FF"/>
<path d="M93.7107 27.0241C84.5906 30.6767 71.8404 25.2091 70.0253 19.7191C69.6444 18.4194 69.1962 17.187 68.7256 15.9769C67.8517 15.9769 66.9554 15.9769 66.0591 15.9769C51.389 15.9385 37.1505 20.9379 25.7245 30.1389C28.4353 30.6177 31.082 31.4072 33.6121 32.4917C42.7322 36.1442 48.1998 48.9168 59.135 56.2219C79.9521 67.4259 96.5341 49.0737 111.391 34.5533C107.309 30.5136 102.704 27.0393 97.6993 24.2231C96.3548 25.1867 95.0551 26.1278 93.7107 27.0241Z" fill="#84ECF7"/>
<path d="M73.5884 111.077C73.6905 113.07 74.0443 115.043 74.6416 116.948C75.4931 118.203 74.2383 124.208 76.3222 123.805C77.7931 123.728 79.2167 123.259 80.4458 122.448C81.6749 121.636 82.665 120.511 83.3136 119.189C85.8233 114.998 88.6019 112.04 89.4534 109.8C89.5341 109.507 89.5793 109.206 89.5878 108.903C84.5486 111.059 79.02 111.81 73.5884 111.077Z" fill="#0D7024"/>
<path d="M52.8608 82.91C52.395 83.8848 52.1779 84.9598 52.2287 86.0389C52.2795 87.1181 52.5968 88.1679 53.1521 89.0946C54.269 90.9843 55.9518 92.475 57.9625 93.3557C59.9732 94.2364 62.2099 94.4625 64.3562 94.002C69.5325 92.4558 67.8519 94.8311 69.6669 95.3913C71.482 95.9515 70.0927 95.2568 69.8014 99.1782C69.5101 103.1 71.9077 105.049 72.7368 107.133C73.1288 108.455 73.3841 109.815 73.4987 111.189C78.9363 111.901 84.4652 111.126 89.4981 108.948C89.6998 106.237 87.8847 101.419 89.4981 98.7973C91.1115 96.1756 92.1422 97.3856 93.8228 94.607L95.5035 91.806C95.3638 90.6562 95.0854 89.5276 94.6744 88.4448L92.4335 88.8705C92.0883 88.9607 91.7256 88.9607 91.3804 88.8705C78.7198 90.9993 65.7679 88.6016 52.8608 82.91Z" fill="#03841F"/>
<path d="M87.3919 84.3665C85.7337 82.5514 84.7477 73.8795 84.322 73.6106C83.8962 73.3417 77.5996 74.0363 75.3588 74.0363C73.1179 74.0363 72.4233 69.9805 71.034 69.129L69.6447 68.2999C67.7497 69.4383 65.6727 70.2418 63.5049 70.6751L62.0932 70.944C60.7039 71.2353 60.1437 73.8795 60.1437 74.4397C57.6515 75.8226 55.5772 77.8504 54.1383 80.3106C53.65 81.1449 53.2231 82.0136 52.861 82.9099C65.7681 88.7136 78.72 91.1113 91.4702 88.736C89.8568 88.131 88.7364 85.8902 87.3919 84.3665Z" fill="#04A02C"/>
<path d="M108.904 82.1706C108.978 84.0669 109.34 85.9408 109.979 87.7278L110.674 88.1535C111.283 89.6941 112.297 91.0413 113.609 92.0525V89.9686C113.526 88.2832 113.616 86.5937 113.878 84.9268C114.266 83.6197 114.88 82.3909 115.693 81.2966C116.679 80.1762 117.643 79.0558 118.203 79.0558C118.763 79.0558 119.323 81.0278 119.884 81.588C120.524 82.3411 121.045 83.1874 121.43 84.0977C121.567 84.4445 121.773 84.7601 122.034 85.0257C122.296 85.2913 122.609 85.5016 122.954 85.6438L123.514 85.7783C123.851 87.3983 124.323 88.9873 124.925 90.5288L125.06 91.2234C125.194 91.9181 124.925 96.2653 125.06 96.9599C125.194 97.6546 126.023 100.456 127.009 101.016H127.144C127.794 99.1335 128.354 97.2064 128.824 95.2569C128.466 94.3382 128.04 93.1953 127.838 92.7024C127.637 92.2094 127.278 90.0358 126.875 89.0499C126.472 88.0639 124.365 85.8455 125.755 85.8455C127.144 85.8455 128.556 85.9799 128.959 87.2348L129.385 88.5121H129.967C130.264 86.3427 130.436 84.158 130.483 81.9689C129.833 81.2967 128.556 80.4451 129.429 79.7281C129.763 79.4948 130.135 79.3205 130.527 79.2127C130.457 74.5811 129.902 69.9697 128.869 65.4541C123.152 72.0598 116.411 77.7039 108.904 82.1706Z" fill="#04A02C"/>
<path d="M62.2274 63.6838L61.9361 64.244L61.6672 64.8042C61.7155 65.6645 61.9391 66.5059 62.3245 67.2766C62.7098 68.0473 63.2487 68.7311 63.908 69.2858L64.4682 69.129C65.9144 68.3514 67.2362 67.362 68.3897 66.1935C68.7636 65.5911 69.2416 65.06 69.8014 64.6249C68.0984 64.2664 66.4178 63.7958 64.782 63.2805C63.9646 63.579 63.097 63.716 62.2274 63.6838Z" fill="#00BA35"/>
<path d="M92.6579 49.0738C100.363 47.0797 107.593 43.5677 113.923 38.7436C113.661 38.5634 113.363 38.4412 113.049 38.3851C111.772 38.6235 110.514 38.953 109.285 39.3711C108.724 39.5055 108.03 39.3711 108.03 38.2507C108.03 37.1303 107.313 35.3152 106.215 35.5841C103.816 36.1579 101.475 36.953 99.2234 37.9594C98.6632 38.5196 97.2739 39.7744 97.2739 40.7604C97.2739 41.7463 98.103 42.8443 97.6773 42.7099L97.2739 42.5754C96.893 42.5754 95.9967 41.5895 95.3244 40.2002H93.9127C93.2077 41.0555 92.7711 42.1002 92.6579 43.2028C92.7204 43.4821 92.6856 43.7743 92.5593 44.0311C92.4329 44.2879 92.2226 44.4937 91.9632 44.6146C91.0369 44.7611 90.0999 44.8285 89.1622 44.8162C87.6211 45.0099 86.1673 45.6396 84.9719 46.6313L84.703 47.057L84.4117 47.4604C84.0099 47.5284 83.5977 47.5009 83.2084 47.3802C82.8192 47.2596 82.4638 47.0491 82.1709 46.7657C81.8123 46.3176 82.7311 45.4885 84.1876 44.9507L83.4929 44.5249C82.7983 44.1216 78.7424 42.1497 77.3531 42.5754L75.9414 43.0012C74.092 43.6127 72.3687 44.5541 70.8548 45.7798C70.4301 46.5 70.0557 47.2487 69.7344 48.0206C77.1515 50.3727 85.0563 50.7359 92.6579 49.0738Z" fill="#70FF61"/>
<path d="M113.923 38.7436C107.592 43.5676 100.363 47.0796 92.6574 49.0737C85.0786 50.6981 77.2068 50.3118 69.8235 47.9533C69.5546 48.5359 69.2857 49.1409 69.0616 49.7011L69.1961 50.8215C69.3305 51.9419 69.8907 54.8774 68.9272 55.3031L67.9412 55.7065C66.7626 56.694 65.7622 57.8764 64.9834 59.2022C64.846 59.6977 64.8189 60.2174 64.9041 60.7246C64.9893 61.2318 65.1846 61.7141 65.4763 62.1376C65.7901 62.5858 65.4764 62.9891 64.8713 63.2804C66.5071 63.7958 68.1877 64.2664 69.8907 64.6249C70.3165 64.2888 70.7198 64.0423 70.9887 64.1095C71.4839 64.3374 71.9264 64.6655 72.2884 65.0731C75.4416 65.5992 78.6468 65.7421 81.8343 65.4988C94.6741 63.5045 108.59 52.9503 122.169 48.0653C120.671 45.4378 118.986 42.9216 117.127 40.5362C116.231 40.3345 114.886 39.2814 113.923 38.7436Z" fill="#4FDD3A"/>
<path d="M81.7223 65.4988C78.5312 65.7125 75.326 65.5395 72.1765 64.9834C73.0056 65.7677 73.9019 66.7537 74.238 67.0898C74.5741 67.4259 74.9327 69.1962 76.8822 68.7704L78.8317 68.3446C80.1537 68.1206 81.3414 68.3446 81.4982 68.7704C81.6551 69.1962 83.022 69.734 84.5681 69.8908L85.3972 69.5995C86.2487 69.3306 86.9434 70.8544 86.5176 71.4146L86.0919 71.9748C86.7748 75.5794 87.8571 79.0967 89.3186 82.4618L90.0133 82.8875C90.7079 83.3133 91.537 86.9434 92.0972 86.8089C92.6575 86.6745 95.4585 86.5176 96.2876 85.5541L97.1167 84.5681C99.3575 82.3273 100.568 79.7728 99.9849 79.0333C99.4023 78.2938 97.4304 78.4731 95.5033 79.3918L95.2344 78.5627C94.9431 77.7112 92.7023 74.0811 94.114 73.9467C95.5257 73.8122 97.5872 75.6273 98.4387 76.1875C99.5989 77.0233 100.931 77.5898 102.338 77.8457C103.553 77.8252 104.739 78.2205 105.699 78.9661L105.968 79.5263C106.349 79.9969 107.245 79.6831 107.94 78.8316L108.343 79.5263C108.597 80.357 108.755 81.2141 108.814 82.0808C116.34 77.6763 123.111 72.0929 128.869 65.5436C127.435 59.3765 125.094 53.4561 121.922 47.9757C108.478 52.9503 94.5621 63.5045 81.7223 65.4988Z" fill="#00BA35"/>
<path d="M3.00278 68.1431C2.68907 69.8685 2.39776 71.706 2.24091 73.3866C3.36131 75.1792 4.9971 76.8374 5.8262 78.4956C6.6553 80.1538 5.96065 81.4311 6.52085 82.8428C6.82989 83.975 7.30567 85.055 7.93256 86.0471C8.33591 86.3385 10.3078 86.8987 10.868 86.3384C11.2803 86.0863 11.7437 85.9293 12.2244 85.8789C12.7051 85.8285 13.191 85.886 13.6466 86.0471C14.2118 86.2776 14.7239 86.6211 15.1516 87.0565C15.5793 87.4919 15.9136 88.0101 16.1339 88.5793C16.4252 89.8341 15.9995 90.103 17.8145 90.5288C19.6296 90.9545 16.6941 87.1676 17.5456 86.204C18.3971 85.2405 19.7864 84.7923 18.2403 84.3665C16.6941 83.9408 14.1844 82.9772 13.7587 82.1257C13.1446 80.6455 12.7156 79.095 12.4814 77.5097C12.2125 75.6946 11.5179 74.1485 12.6383 73.1625C13.1018 72.6473 13.6986 72.2701 14.3628 72.0724C15.0271 71.8747 15.733 71.8642 16.4028 72.0421L18.0834 72.4678C19.54 73.3193 20.3242 74.507 20.0329 75.1344L21.1533 76.5237C22.2737 77.913 22.5426 79.4592 22.8339 78.7645C23.0574 77.2817 23.1474 75.7818 23.1028 74.2829C23.1028 73.5882 22.5426 73.1625 24.4921 71.4819C25.4343 70.464 26.5793 69.6549 27.8534 69.1066C28.3402 68.8931 28.8522 68.7425 29.3771 68.6585C27.9878 67.6277 26.5985 66.5521 25.2092 65.4765C20.3466 61.824 10.5767 63.0788 3.00278 68.1431Z" fill="#04A02C"/>
<path d="M40.5809 38.6539C38.9002 38.5195 35.2701 38.8108 33.1862 36.7044C32.3404 35.9007 31.3184 35.3058 30.2017 34.9673C29.0851 34.6288 27.9048 34.5561 26.7551 34.7549C26.0604 35.1583 24.2454 35.7185 24.2454 36.2787C24.2454 36.8389 25.7691 38.5195 25.3658 38.8108L24.94 39.0797C23.8731 39.1571 22.8309 39.4385 21.8701 39.9088H21.1754C22.0045 41.4549 22.0494 42.4857 21.1754 42.1496C19.175 41.6406 17.1476 41.2441 15.1028 40.962C12.9013 43.8722 10.945 46.9602 9.25433 50.1941C13.9824 50.0148 18.9122 50.8888 23.4163 50.8888C29.2142 50.5122 35.0248 51.3991 40.4464 53.4881C40.2895 52.3677 40.2896 50.1269 38.9002 49.4322C37.1443 48.8481 35.2634 48.7475 33.4551 49.1409C31.7745 49.4322 30.1163 49.2754 30.8109 47.8861C31.5056 46.4968 33.724 43.5613 36.1216 45.0851C37.5811 46.2191 38.9314 47.4869 40.1551 48.872C41.4876 49.8479 42.9414 50.6464 44.4799 51.2473C45.1969 51.2473 46.8551 52.0764 47.7066 51.8075C48.5581 51.5386 50.6197 51.6506 51.1799 50.1269C51.7401 48.6031 50.4852 49.4322 53.2863 46.7657C56.0873 44.0991 56.1769 45.1523 57.9247 43.7406C52.614 41.4998 47.3257 39.259 42.0374 37.175C41.8357 38.0937 41.4548 38.7436 40.5809 38.6539Z" fill="#4FDD3A"/>
<path d="M61.5326 38.3851C61.7612 37.0912 61.8513 35.7767 61.8015 34.4637C61.5326 33.6346 62.6306 32.3797 60.4122 32.3797C58.1938 32.3797 51.8972 32.7831 50.9112 32.6486C49.9252 32.5142 42.665 34.3292 42.3961 35.1583C42.2617 35.5617 42.2169 36.4132 42.0376 37.1751C47.3259 39.1918 52.6142 41.6567 57.9249 43.7406C58.0818 43.5838 58.2611 43.4717 58.4403 43.2701C59.9824 42.028 61.0697 40.3103 61.5326 38.3851Z" fill="#70FF61"/>
<path d="M23.4167 50.8888C18.9351 50.8888 13.9829 50.0148 9.25479 50.1941C6.29968 55.8292 4.193 61.8699 3.00293 68.1206C10.5769 63.0564 20.3468 61.8015 25.2318 65.4764C26.6211 66.552 28.0104 67.7172 29.3997 68.6584C29.7522 68.642 30.0971 68.5493 30.4104 68.3869C30.7237 68.2244 30.9982 67.9959 31.2147 67.7172C31.5312 67.2475 31.7239 66.7054 31.7748 66.1413C31.8257 65.5771 31.7333 65.0093 31.506 64.4905C31.2147 63.5269 30.3856 63.1012 33.4555 62.4065C36.5254 61.7119 38.4749 61.555 38.7663 60.8604C39.0576 60.1657 39.7298 58.2162 40.1556 57.2302C40.5362 56.0136 40.6358 54.7264 40.4469 53.4657C35.0235 51.3843 29.213 50.5051 23.4167 50.8888Z" fill="#00BA35"/>
<path d="M21.2207 94.114C21.2207 94.9431 21.4672 95.9291 21.5793 96.8926L20.7502 97.296C19.666 98.0429 18.7625 99.0229 18.106 100.164C17.9079 101.396 18.0473 102.658 18.5094 103.817C18.9351 104.78 20.7502 107.873 21.0191 108.298C21.288 108.724 21.7361 110.405 22.6997 110.405C23.8805 110.473 25.0096 110.912 25.9264 111.66C26.8662 112.982 27.4454 114.527 27.6071 116.141C31.7526 115.85 36.3686 116.634 39.7971 116.634L40.6262 117.015C40.5141 116.679 40.6262 116.388 40.9847 115.895C41.8362 114.909 44.3459 115.895 44.6372 113.654C44.9285 111.413 45.8921 111.413 45.1974 109.329C44.5028 107.245 44.077 107.223 44.3459 105.833C44.6148 104.444 44.7717 104.847 46.161 103.032C46.441 102.693 46.6956 102.334 46.9228 101.957C40.5627 98.8758 33.9023 96.458 27.0469 94.7414C25.1414 94.2738 23.1821 94.0628 21.2207 94.114Z" fill="#0D7024"/>
<path d="M43.3823 96.5341C41.5721 96.2422 39.7465 96.0552 37.9147 95.9739C37.1563 95.8242 36.4595 95.4524 35.9129 94.9058C35.3663 94.3592 34.9945 93.6624 34.8448 92.904C34.4414 91.0889 34.2846 89.8341 33.0297 88.9826C31.7749 88.1311 27.7414 87.4588 27.0244 86.8986C26.5561 86.5928 26.0306 86.3855 25.4798 86.2892C24.9289 86.1929 24.3642 86.2096 23.82 86.3384L22.8564 86.6073C22.1889 87.5218 21.3795 88.3237 20.4588 88.9826L20.1675 89.8341C19.7417 90.6632 19.316 90.5287 19.1815 91.5147C20.1003 91.3578 20.9518 91.7388 21.0638 92.3438C21.1758 92.9488 21.2207 93.2625 21.3327 94.0468C23.294 93.9956 25.2534 94.2066 27.1588 94.6742C34.0142 96.3908 40.6747 98.8086 47.0348 101.89C47.2869 101.601 47.4437 101.242 47.4838 100.861C47.5239 100.48 47.4453 100.096 47.2589 99.7609C46.8656 98.988 46.3191 98.3033 45.6526 97.7486C44.9861 97.1938 44.2137 96.7806 43.3823 96.5341Z" fill="#03841F"/>
<path d="M27.6066 116.074C27.6162 116.133 27.6162 116.194 27.6066 116.253C27.055 118.119 26.7315 120.046 26.643 121.99C26.643 123.513 27.0464 126.74 27.2032 127.861C27.3601 128.981 30.8333 131.356 30.8333 131.76C30.6536 132.385 30.4366 132.998 30.1835 133.597C31.3487 134.381 32.4243 135.121 33.7688 135.838C33.9743 134.539 34.351 133.273 34.8892 132.073C35.4494 130.527 34.6203 130.818 34.1945 129.407C33.7688 127.995 35.046 126.471 35.3149 126.068L35.6062 125.642C36.5846 124.924 37.6102 124.273 38.6762 123.693L38.8106 122.976C38.9451 122.281 39.6397 122.012 40.7601 121.161C41.8805 120.309 41.8805 119.771 41.3203 118.36C41.0514 117.687 40.7825 117.306 40.6705 116.97L39.7966 116.522C36.3681 116.522 31.7521 115.783 27.6066 116.074Z" fill="#065E1D"/>
<path opacity="0.2" d="M84.2769 18.5091C87.5336 29.5926 87.7481 41.3482 84.8978 52.5431C82.0474 63.738 76.2374 73.9597 68.0769 82.1362C59.9163 90.3128 49.7061 96.1429 38.5168 99.0152C27.3275 101.888 15.5715 101.696 4.48169 98.4612C7.62742 109.192 13.5132 118.919 21.5596 126.685C29.6061 134.45 39.536 139.987 50.372 142.75C61.2079 145.512 72.5765 145.406 83.3588 142.44C94.141 139.475 103.965 133.753 111.865 125.838C119.764 117.923 125.467 108.088 128.411 97.2997C131.355 86.5116 131.439 75.1428 128.655 64.3123C125.871 53.4818 120.315 43.5628 112.534 35.5316C104.753 27.5004 95.0141 21.6338 84.2769 18.5091Z" fill="url(#paint0_linear_5_570)"/>
<path opacity="0.7" d="M49.5889 30.7439C51.516 33.2985 49.5889 38.0938 45.1073 41.455C40.6257 44.8162 35.4942 45.4661 33.5671 42.9115C31.64 40.357 33.5671 35.5393 38.0487 32.1781C42.5304 28.8168 47.6394 28.1894 49.5889 30.7439Z" fill="white"/>
<defs>
<linearGradient id="paint0_linear_5_570" x1="30.744" y1="52.7935" x2="139.647" y2="137.496" gradientUnits="userSpaceOnUse">
<stop/>
<stop offset="0.57"/>
<stop offset="0.61"/>
<stop offset="1" stop-color="#404040"/>
</linearGradient>
</defs>
</svg>
