<svg width="554" height="466" viewBox="0 0 554 466" fill="none" xmlns="http://www.w3.org/2000/svg">
<path d="M448.034 53.3864C448.034 63.865 444.925 74.108 439.101 82.8187C433.276 91.5294 424.998 98.3162 415.315 102.32C405.631 106.324 394.977 107.364 384.702 105.31C374.427 103.255 364.992 98.1987 357.592 90.7796C350.193 83.3605 345.16 73.9126 343.133 63.6321C341.105 53.3515 342.173 42.7005 346.202 33.0274C350.231 23.3542 357.039 15.094 365.765 9.29218C374.491 3.4904 384.742 0.40802 395.221 0.435237C402.168 0.435214 409.047 1.80582 415.463 4.46855C421.88 7.13128 427.708 11.0338 432.614 15.9526C437.52 20.8714 441.408 26.7097 444.054 33.1332C446.7 39.5568 448.052 46.4392 448.034 53.3864Z" fill="#F41111"/>
<path opacity="0.7" d="M389.268 28.6294C389.295 30.0552 388.895 31.4566 388.12 32.6536C387.345 33.8506 386.229 34.7884 384.917 35.3467C383.605 35.905 382.156 36.0582 380.756 35.7866C379.356 35.515 378.069 34.8311 377.06 33.8227C376.052 32.8143 375.368 31.5275 375.096 30.1274C374.825 28.7274 374.978 27.2782 375.536 25.9659C376.095 24.6536 377.032 23.5382 378.229 22.7629C379.426 21.9876 380.828 21.5879 382.254 21.6151C384.114 21.6151 385.898 22.3541 387.213 23.6695C388.529 24.9849 389.268 26.7691 389.268 28.6294Z" fill="white"/>
<path opacity="0.2" d="M409.349 2.36035C416.473 9.8692 421.241 19.3017 423.062 29.4913C424.883 39.681 423.678 50.1809 419.595 59.6928C415.512 69.2048 408.731 77.3114 400.09 83.0104C391.449 88.7094 381.327 91.7507 370.976 91.7584C366.333 91.7712 361.708 91.17 357.223 89.9705C362.867 95.8003 369.779 100.251 377.422 102.978C385.064 105.704 393.233 106.632 401.292 105.691C409.352 104.75 417.087 101.964 423.896 97.5501C430.704 93.136 436.405 87.2122 440.554 80.2387C444.703 73.2651 447.189 65.4292 447.82 57.3392C448.451 49.2493 447.209 41.1227 444.191 33.5904C441.173 26.058 436.459 19.3224 430.417 13.9063C424.374 8.49026 417.165 4.53939 409.349 2.36035Z" fill="black"/>
<path d="M553.745 208.802C553.718 222.016 549.774 234.926 542.413 245.9C535.052 256.874 524.603 265.42 512.387 270.458C500.171 275.496 486.735 276.8 473.778 274.205C460.821 271.61 448.924 265.234 439.59 255.88C430.255 246.527 423.903 234.616 421.335 221.654C418.767 208.691 420.099 195.259 425.162 183.053C430.225 170.847 438.792 160.416 449.781 153.077C460.771 145.739 473.688 141.822 486.903 141.822C504.643 141.858 521.644 148.931 534.176 161.488C546.707 174.045 553.745 191.061 553.745 208.802Z" fill="#FF9F36"/>
<path opacity="0.2" d="M503.009 144.297C512.088 153.748 518.182 165.664 520.531 178.557C522.879 191.451 521.377 204.75 516.213 216.795C511.049 228.84 502.451 239.097 491.492 246.286C480.534 253.474 467.701 257.275 454.596 257.214C448.933 257.185 443.296 256.446 437.817 255.013C444.862 262.722 453.615 268.673 463.374 272.388C473.134 276.104 483.628 277.482 494.016 276.41C504.403 275.339 514.395 271.848 523.191 266.219C531.987 260.589 539.341 252.977 544.664 243.993C549.987 235.009 553.131 224.902 553.844 214.484C554.557 204.065 552.819 193.625 548.769 183.999C544.719 174.374 538.471 165.831 530.524 159.056C522.577 152.28 513.154 147.461 503.009 144.985V144.297Z" fill="black"/>
<path d="M191.492 75.2545C167.999 64.4562 143.488 56.0249 118.323 50.0855C64.1343 73.7416 1.28056 67.69 -59.3726 48.8477C-97.966 57.4372 -135.054 71.7624 -169.401 91.3461C-46.9944 112.939 82.7016 124.63 191.492 75.2545Z" fill="#FFB727"/>
<path d="M118.323 50.0847C59.9724 36.0301 -0.831772 35.6065 -59.3727 48.8469C1.28048 67.6893 64.1342 73.7408 118.323 50.0847Z" fill="#FFC215"/>
<path d="M187.23 142.179C211.157 134.478 234.391 124.77 256.685 113.159C236.182 98.5059 214.357 85.7976 191.493 75.1992C82.7028 124.85 -46.9932 113.159 -169.537 91.5659C-195.082 106.331 -218.927 123.857 -240.643 143.829C-103.256 199.071 50.2726 198.479 187.23 142.179Z" fill="#FF9F36"/>
<path d="M338.931 191.445C331.092 181.267 322.702 171.64 313.9 162.287C276.689 199.467 228.435 223.594 176.364 231.055C23.2875 272.315 -148.494 275.479 -262.374 165.45C-281.402 185.911 -298.228 208.315 -312.574 232.293C-113.285 322.378 194.932 365.427 338.931 191.445Z" fill="#F9832B"/>
<path d="M408.249 328.182C405.498 317.867 402.198 307.827 398.622 297.786C365.616 320.189 328.026 334.943 288.593 340.973C71.1497 395.024 -155.096 396.812 -331.692 265.741C-344.758 293.709 -354.497 323.113 -360.712 353.351C-126.764 464.067 193.556 465.167 408.249 328.182Z" fill="#FF6A17"/>
<path d="M418.701 485.797C421.124 468.111 422.365 450.284 422.414 432.433C422.414 422.531 422.414 412.766 421.176 403.138C189.841 536.823 -146.845 614.668 -368.965 451.688C-367.98 471.06 -365.497 490.327 -361.538 509.316C-134.467 617.693 206.071 642.175 418.701 485.797Z" fill="#F41111"/>
<path d="M421.176 403.139C420.488 394.612 419.663 386.222 418.563 377.97C200.432 523.07 -154.96 518.118 -364.564 374.669C-367.429 393.792 -368.9 413.098 -368.965 432.434C-368.965 438.898 -368.965 445.225 -368.965 451.689C-146.845 614.668 189.841 536.823 421.176 403.139Z" fill="#FF1212"/>
<path d="M418.564 377.969C416.2 361.169 412.754 344.538 408.248 328.182C193.556 465.167 -126.764 464.067 -360.712 353.351C-362.225 360.365 -363.463 367.104 -364.563 374.669C-154.959 518.118 200.432 523.069 418.564 377.969Z" fill="#FF4715"/>
<path d="M288.041 342.321C327.474 336.292 365.064 321.538 398.07 299.135C383.964 260.32 363.819 223.976 338.379 191.444C194.93 365.427 -113.287 322.378 -312.989 231.605C-319.845 243.094 -326.089 254.939 -331.693 267.089C-155.098 398.16 71.1479 396.372 288.041 342.321Z" fill="#FC6F29"/>
<path d="M175.95 231.716C228.021 224.255 276.274 200.128 313.485 162.948C296.142 144.621 277.125 127.952 256.683 113.16C234.38 124.677 211.146 134.292 187.228 141.905C50.2707 198.205 -103.258 198.797 -240.645 143.555C-248.347 150.707 -255.636 158.134 -262.788 165.836C-148.909 276.14 22.8729 272.564 175.95 231.716Z" fill="#FF9A22"/>
<path opacity="0.2" d="M137.714 52.6982C148.291 88.7468 153.663 126.121 153.668 163.689C153.668 215.652 143.434 267.106 123.548 315.113C103.663 363.12 74.5168 406.741 37.7736 443.484C-36.4326 517.69 -137.078 559.379 -242.021 559.379C-279.59 559.385 -316.966 554.012 -353.012 543.425C-333.756 609.383 -297.655 669.189 -248.264 716.958C-198.874 764.726 -137.895 798.81 -71.3314 815.854C-4.76749 832.898 65.0875 832.315 131.358 814.162C197.628 796.009 258.029 760.912 306.615 712.326C355.201 663.739 390.298 603.338 408.451 537.068C426.604 470.798 427.187 400.943 410.143 334.379C393.099 267.815 359.015 206.837 311.247 157.446C263.479 108.055 203.672 71.955 137.714 52.6982Z" fill="url(#paint0_linear_30_51)"/>
<path opacity="0.4" d="M478.667 182.807C478.667 183.903 478.449 184.987 478.026 185.998C477.603 187.008 476.982 187.924 476.202 188.692C475.421 189.46 474.495 190.065 473.477 190.471C472.46 190.878 471.372 191.078 470.277 191.06C468.612 191.059 466.985 190.564 465.602 189.636C464.22 188.707 463.145 187.389 462.514 185.848C461.883 184.307 461.725 182.613 462.06 180.982C462.395 179.351 463.208 177.856 464.395 176.689C465.582 175.521 467.09 174.733 468.726 174.425C470.363 174.117 472.054 174.303 473.584 174.959C475.115 175.615 476.415 176.712 477.32 178.11C478.225 179.507 478.694 181.143 478.667 182.807Z" fill="white"/>
<path d="M445.176 321V305.901H457.167C457.741 305.901 458.259 306.041 458.721 306.321C459.197 306.601 459.575 306.979 459.855 307.455C460.149 307.931 460.296 308.449 460.296 309.009V312.915C460.296 313.475 460.149 313.993 459.855 314.469C459.575 314.945 459.197 315.323 458.721 315.603C458.259 315.883 457.741 316.023 457.167 316.023L448.431 316.044V321H445.176ZM448.431 312.747H456.999V309.156H448.431V312.747ZM461.325 321V304.83H464.538V308.82H470.628C471.174 308.82 471.678 308.96 472.14 309.24C472.602 309.52 472.973 309.891 473.253 310.353C473.533 310.815 473.673 311.319 473.673 311.865V321H470.46V312.033H464.538V321H461.325ZM477.915 321C477.369 321 476.865 320.86 476.403 320.58C475.941 320.3 475.57 319.929 475.29 319.467C475.01 319.005 474.87 318.501 474.87 317.955V311.865C474.87 311.319 475.01 310.815 475.29 310.353C475.57 309.891 475.941 309.52 476.403 309.24C476.865 308.96 477.369 308.82 477.915 308.82H484.173C484.733 308.82 485.244 308.96 485.706 309.24C486.168 309.52 486.532 309.891 486.798 310.353C487.078 310.815 487.218 311.319 487.218 311.865V317.955C487.218 318.501 487.078 319.005 486.798 319.467C486.532 319.929 486.168 320.3 485.706 320.58C485.244 320.86 484.733 321 484.173 321H477.915ZM478.083 317.787H484.005V312.033H478.083V317.787ZM488.848 321V304.83H492.061V308.82H498.151C498.711 308.82 499.222 308.96 499.684 309.24C500.146 309.52 500.51 309.891 500.776 310.353C501.056 310.815 501.196 311.319 501.196 311.865V317.955C501.196 318.501 501.056 319.005 500.776 319.467C500.51 319.929 500.146 320.3 499.684 320.58C499.222 320.86 498.711 321 498.151 321H488.848ZM492.061 317.787H497.983V312.033H492.061V317.787ZM505.416 321C504.87 321 504.366 320.86 503.904 320.58C503.442 320.3 503.071 319.929 502.791 319.467C502.511 319.005 502.371 318.501 502.371 317.955V311.865C502.371 311.319 502.511 310.815 502.791 310.353C503.071 309.891 503.442 309.52 503.904 309.24C504.366 308.96 504.87 308.82 505.416 308.82H511.674C512.234 308.82 512.745 308.96 513.207 309.24C513.669 309.52 514.033 309.891 514.299 310.353C514.579 310.815 514.719 311.319 514.719 311.865V317.955C514.719 318.501 514.579 319.005 514.299 319.467C514.033 319.929 513.669 320.3 513.207 320.58C512.745 320.86 512.234 321 511.674 321H505.416ZM505.584 317.787H511.506V312.033H505.584V317.787ZM519.002 321C518.456 321 517.952 320.86 517.49 320.58C517.028 320.3 516.657 319.929 516.377 319.467C516.097 319.005 515.957 318.501 515.957 317.955V317.346H519.17V317.787H525.092V316.527H519.002C518.456 316.527 517.952 316.387 517.49 316.107C517.028 315.827 516.657 315.456 516.377 314.994C516.097 314.532 515.957 314.028 515.957 313.482V311.865C515.957 311.319 516.097 310.815 516.377 310.353C516.657 309.891 517.028 309.52 517.49 309.24C517.952 308.96 518.456 308.82 519.002 308.82H525.26C525.82 308.82 526.331 308.96 526.793 309.24C527.255 309.52 527.626 309.891 527.906 310.353C528.186 310.815 528.326 311.319 528.326 311.865V312.474H525.092V312.033H519.17V313.293H525.26C525.82 313.293 526.331 313.433 526.793 313.713C527.255 313.993 527.626 314.364 527.906 314.826C528.186 315.288 528.326 315.792 528.326 316.338V317.955C528.326 318.501 528.186 319.005 527.906 319.467C527.626 319.929 527.255 320.3 526.793 320.58C526.331 320.86 525.82 321 525.26 321H519.002Z" fill="white"/>
<path d="M354.218 143V127.88H366.209C366.783 127.88 367.301 128.02 367.763 128.3C368.239 128.58 368.617 128.958 368.897 129.434C369.191 129.896 369.338 130.414 369.338 130.988V139.892C369.338 140.452 369.191 140.97 368.897 141.446C368.617 141.922 368.239 142.3 367.763 142.58C367.301 142.86 366.783 143 366.209 143H354.218ZM357.452 139.724H366.041V131.156H357.452V139.724ZM374.21 143C373.664 143 373.16 142.86 372.698 142.58C372.236 142.3 371.865 141.929 371.585 141.467C371.305 141.005 371.165 140.501 371.165 139.955V133.865C371.165 133.319 371.305 132.815 371.585 132.353C371.865 131.891 372.236 131.52 372.698 131.24C373.16 130.96 373.664 130.82 374.21 130.82H380.468C381.028 130.82 381.539 130.96 382.001 131.24C382.463 131.52 382.827 131.891 383.093 132.353C383.373 132.815 383.513 133.319 383.513 133.865V138.527H374.378V139.787H383.513V143H374.21ZM374.378 135.713H380.3V134.033H374.378V135.713ZM385.306 143V130.82H388.519V143H385.306ZM385.306 130.064V126.83H388.519V130.064H385.306ZM389.727 143V130.82H404.385C404.945 130.82 405.456 130.96 405.918 131.24C406.38 131.52 406.744 131.891 407.01 132.353C407.29 132.815 407.43 133.319 407.43 133.865V143H404.238V134.033H400.206V143H396.972V134.033H392.94V143H389.727ZM412.817 143C412.271 143 411.767 142.86 411.305 142.58C410.843 142.3 410.472 141.929 410.192 141.467C409.912 141.005 409.772 140.501 409.772 139.955V133.865C409.772 133.319 409.912 132.815 410.192 132.353C410.472 131.891 410.843 131.52 411.305 131.24C411.767 130.96 412.271 130.82 412.817 130.82H419.075C419.635 130.82 420.146 130.96 420.608 131.24C421.07 131.52 421.434 131.891 421.7 132.353C421.98 132.815 422.12 133.319 422.12 133.865V139.955C422.12 140.501 421.98 141.005 421.7 141.467C421.434 141.929 421.07 142.3 420.608 142.58C420.146 142.86 419.635 143 419.075 143H412.817ZM412.985 139.787H418.907V134.033H412.985V139.787ZM426.402 143C425.856 143 425.352 142.86 424.89 142.58C424.428 142.3 424.057 141.929 423.777 141.467C423.497 141.005 423.357 140.501 423.357 139.955V139.346H426.57V139.787H432.492V138.527H426.402C425.856 138.527 425.352 138.387 424.89 138.107C424.428 137.827 424.057 137.456 423.777 136.994C423.497 136.532 423.357 136.028 423.357 135.482V133.865C423.357 133.319 423.497 132.815 423.777 132.353C424.057 131.891 424.428 131.52 424.89 131.24C425.352 130.96 425.856 130.82 426.402 130.82H432.66C433.22 130.82 433.731 130.96 434.193 131.24C434.655 131.52 435.026 131.891 435.306 132.353C435.586 132.815 435.726 133.319 435.726 133.865V134.474H432.492V134.033H426.57V135.293H432.66C433.22 135.293 433.731 135.433 434.193 135.713C434.655 135.993 435.026 136.364 435.306 136.826C435.586 137.288 435.726 137.792 435.726 138.338V139.955C435.726 140.501 435.586 141.005 435.306 141.467C435.026 141.929 434.655 142.3 434.193 142.58C433.731 142.86 433.22 143 432.66 143H426.402Z" fill="white"/>
<defs>
<linearGradient id="paint0_linear_30_51" x1="-191.271" y1="262.852" x2="477.702" y2="783.424" gradientUnits="userSpaceOnUse">
<stop/>
<stop offset="0.14" stop-color="#030001"/>
<stop offset="0.27" stop-color="#0E0103"/>
<stop offset="0.39" stop-color="#200206"/>
<stop offset="0.51" stop-color="#3A040B"/>
<stop offset="0.62" stop-color="#5A0611"/>
<stop offset="0.73" stop-color="#820919"/>
<stop offset="0.84" stop-color="#B20C22"/>
<stop offset="0.95" stop-color="#E80F2D"/>
<stop offset="0.99" stop-color="#FF1131"/>
</linearGradient>
</defs>
</svg>
