<svg width="78" height="53" viewBox="0 0 78 53" fill="none" xmlns="http://www.w3.org/2000/svg">
<path fill-rule="evenodd" clip-rule="evenodd" d="M69.4176 26.149C69.2849 26.8629 65.2537 29.6988 63.7342 30.1812C63.3889 30.2909 62.5557 29.7777 61.6675 28.9989C60.2446 27.6829 54.8869 23.5856 51.078 20.8349C45.752 17.0458 38.4077 15.5946 38.0943 14.7041C35.7889 8.15265 19.8614 0.0927356 9.23301 0.108583C-3.08291 0.129881 -0.861639 5.78868 6.48682 5.50612C16.1433 5.1271 24.4783 7.43062 31.3663 12.3856C33.6812 14.0548 33.6459 14.172 30.9607 14.07C17.6044 13.6438 13.8827 30.5592 26.102 36.1549C34.3322 39.9059 42.6977 32.4766 41.4672 22.5431C41.1663 20.2697 48.4261 23.4448 55.1862 28.5817C60.8518 32.8994 60.6261 32.4761 58.4327 33.8799C48.944 39.8625 49.0609 42.1589 58.9126 44.2991C63.3229 45.2675 69.0496 47.9041 75.1091 51.8141C77.4372 53.3021 77.7725 51.7461 75.9816 47.9659C73.9985 43.8579 72.5608 37.8087 72.2299 32.5044C71.6895 24.9682 69.6222 25.094 69.4176 26.149ZM38.5087 23.5178C37.6166 30.8018 27.2885 34.3991 22.4119 29.1591C19.274 25.8066 25.6206 19.5134 32.1168 19.5367C37.3159 19.583 38.8909 20.5679 38.5087 23.5178Z" fill="white"/>
</svg>
