<svg width="1440" height="893" viewBox="0 0 1440 893" fill="none" xmlns="http://www.w3.org/2000/svg">
<g clip-path="url(#clip0_1_25)">
<rect width="1440" height="893" fill="white"/>
<path d="M-72 -16H1512V1040H-72V-16Z" fill="url(#paint0_radial_1_25)"/>
<g opacity="0.8">
<mask id="mask0_1_25" style="mask-type:luminance" maskUnits="userSpaceOnUse" x="-23" y="121" width="1485" height="990">
<path d="M-23 1111L1462 1111L1462 121L-23 121L-23 1111Z" fill="white"/>
</mask>
<g mask="url(#mask0_1_25)">
<path d="M502.749 736.316C541.569 736.316 573.039 724.349 573.039 709.586C573.039 694.824 541.569 682.856 502.749 682.856C463.929 682.856 432.459 694.824 432.459 709.586C432.459 724.349 463.929 736.316 502.749 736.316Z" fill="url(#paint1_radial_1_25)"/>
<path d="M502.749 779.876C517.511 779.876 529.479 748.406 529.479 709.586C529.479 670.766 517.511 639.296 502.749 639.296C487.986 639.296 476.019 670.766 476.019 709.586C476.019 748.406 487.986 779.876 502.749 779.876Z" fill="url(#paint2_radial_1_25)"/>
<path d="M1042.69 196.172C1067.52 196.172 1087.64 188.549 1087.64 179.144C1087.64 169.74 1067.52 162.116 1042.69 162.116C1017.87 162.116 997.749 169.74 997.749 179.144C997.749 188.549 1017.87 196.172 1042.69 196.172Z" fill="url(#paint3_radial_1_25)"/>
<path d="M1042.69 224.091C1052.1 224.091 1059.72 203.967 1059.72 179.145C1059.72 154.322 1052.1 134.198 1042.69 134.198C1033.29 134.198 1025.67 154.322 1025.67 179.145C1025.67 203.967 1033.29 224.091 1042.69 224.091Z" fill="url(#paint4_radial_1_25)"/>
<path d="M937.557 729.188C948.843 745.82 963.495 755.522 970.227 750.77C977.157 746.216 973.593 728.99 962.307 712.358C951.021 695.726 936.369 686.024 929.637 690.776C922.905 695.528 926.469 712.754 937.557 729.188Z" fill="url(#paint5_radial_1_25)"/>
<path opacity="0.6" d="M941.715 708.398C925.083 719.684 915.381 734.336 920.133 741.068C924.687 747.998 941.913 744.434 958.545 733.148C975.177 721.862 984.879 707.21 980.127 700.478C975.375 693.746 958.149 697.31 941.715 708.398Z" fill="url(#paint6_radial_1_25)"/>
<path d="M510.471 289.035C521.757 305.667 536.409 315.369 543.141 310.617C550.071 306.063 546.507 288.837 535.221 272.205C523.935 255.573 509.283 245.871 502.551 250.623C495.621 255.177 499.185 272.403 510.471 289.035Z" fill="url(#paint7_radial_1_25)"/>
<path opacity="0.6" d="M514.431 268.245C497.799 279.531 488.097 294.183 492.849 300.915C497.403 307.845 514.629 304.281 531.261 292.995C547.893 281.709 557.595 267.057 552.843 260.325C548.289 253.395 531.063 256.959 514.431 268.245Z" fill="url(#paint8_radial_1_25)"/>
</g>
</g>
<g opacity="0.3">
<mask id="mask1_1_25" style="mask-type:luminance" maskUnits="userSpaceOnUse" x="-123" y="-155" width="1685" height="1123">
<path d="M-122 967.667L1562 967.667L1562 -155L-122 -155L-122 967.667Z" fill="white"/>
</mask>
<g mask="url(#mask1_1_25)">
<path d="M736.907 250.206C736.907 249.083 736.009 248.185 734.886 248.185C733.763 248.185 732.865 249.083 732.865 250.206C732.865 251.329 733.763 252.227 734.886 252.227C736.009 252.227 736.907 251.329 736.907 250.206Z" fill="white"/>
<path d="M1053.5 129.856C1055.23 129.856 1056.64 128.449 1056.64 126.713C1056.64 124.977 1055.23 123.569 1053.5 123.569C1051.76 123.569 1050.36 124.977 1050.36 126.713C1050.36 128.449 1051.76 129.856 1053.5 129.856Z" fill="white"/>
<path d="M874.321 75.2946C874.321 73.2738 872.525 71.4775 870.504 71.4775C868.483 71.4775 866.687 73.2738 866.687 75.2946C866.687 77.3154 868.483 79.1117 870.504 79.1117C872.749 79.3362 874.321 77.5399 874.321 75.2946Z" fill="white"/>
<path d="M1144.43 22.3047C1144.43 20.2839 1142.86 18.7122 1140.84 18.7122C1138.82 18.7122 1137.25 20.2839 1137.25 22.3047C1137.25 24.3255 1138.82 25.8972 1140.84 25.8972C1142.86 25.8972 1144.43 24.3255 1144.43 22.3047Z" fill="white"/>
<path d="M821.331 5.9138C821.331 3.893 819.759 2.32129 817.739 2.32129C815.718 2.32129 814.146 3.893 814.146 5.9138C814.146 7.9346 815.718 9.50635 817.739 9.50635C819.759 9.50635 821.331 7.9346 821.331 5.9138Z" fill="white"/>
<path d="M877.914 365.392C877.914 363.371 876.342 361.799 874.321 361.799C872.3 361.799 870.729 363.371 870.729 365.392C870.729 367.412 872.3 368.984 874.321 368.984C876.342 368.984 877.914 367.188 877.914 365.392Z" fill="white"/>
<path d="M1039.35 45.6561C1039.35 42.2881 1036.66 39.3691 1033.07 39.3691C1029.7 39.3691 1026.78 42.0635 1026.78 45.6561C1026.78 49.0241 1029.47 51.943 1033.07 51.943C1036.66 51.943 1039.35 49.0241 1039.35 45.6561Z" fill="white"/>
<path d="M69.8181 716.786C69.8181 715.439 68.6955 714.316 67.3483 714.316C66.0011 714.316 64.8785 715.439 64.8785 716.786C64.8785 718.133 66.0011 719.256 67.3483 719.256C68.6955 719.256 69.8181 718.133 69.8181 716.786Z" fill="white"/>
<path d="M647.318 164.659C648.806 164.659 650.012 163.452 650.012 161.964C650.012 160.476 648.806 159.27 647.318 159.27C645.83 159.27 644.624 160.476 644.624 161.964C644.624 163.452 645.83 164.659 647.318 164.659Z" fill="white"/>
<path d="M299.74 507.97C299.74 505.725 297.944 503.929 295.699 503.929C293.453 503.929 291.657 505.725 291.657 507.97C291.657 510.216 293.453 512.012 295.699 512.012C297.944 512.012 299.74 510.216 299.74 507.97Z" fill="white"/>
<path d="M589.837 575.33C589.837 572.411 587.592 570.166 584.673 570.166C581.754 570.166 579.509 572.411 579.509 575.33C579.509 578.249 581.754 580.494 584.673 580.494C587.368 580.494 589.837 578.249 589.837 575.33Z" fill="white"/>
<path d="M620.823 597.784C622.683 597.784 624.191 596.276 624.191 594.416C624.191 592.556 622.683 591.048 620.823 591.048C618.963 591.048 617.455 592.556 617.455 594.416C617.455 596.276 618.963 597.784 620.823 597.784Z" fill="white"/>
<path d="M382.818 402.44C382.818 400.419 381.021 398.623 379.001 398.623C376.98 398.623 375.184 400.419 375.184 402.44C375.184 404.46 376.98 406.257 379.001 406.257C381.021 406.481 382.818 404.685 382.818 402.44Z" fill="white"/>
<path d="M679.651 56.2093C682.007 56.2093 683.917 54.2992 683.917 51.9431C683.917 49.587 682.007 47.677 679.651 47.677C677.295 47.677 675.385 49.587 675.385 51.9431C675.385 54.2992 677.295 56.2093 679.651 56.2093Z" fill="white"/>
<path d="M1066.97 212.934C1066.97 210.688 1065.17 208.667 1062.7 208.667C1060.23 208.667 1058.44 210.464 1058.44 212.934C1058.44 215.403 1060.23 217.2 1062.7 217.2C1065.17 217.2 1066.97 215.403 1066.97 212.934Z" fill="white"/>
<path d="M354.302 575.33C356.658 575.33 358.568 573.42 358.568 571.064C358.568 568.708 356.658 566.798 354.302 566.798C351.946 566.798 350.036 568.708 350.036 571.064C350.036 573.42 351.946 575.33 354.302 575.33Z" fill="white"/>
<path d="M1188.67 607.439C1190.9 607.439 1192.71 605.629 1192.71 603.397C1192.71 601.165 1190.9 599.355 1188.67 599.355C1186.44 599.355 1184.63 601.165 1184.63 603.397C1184.63 605.629 1186.44 607.439 1188.67 607.439Z" fill="white"/>
<path d="M223.848 357.309C223.848 354.839 221.827 352.818 219.357 352.818C216.888 352.818 214.867 354.839 214.867 357.309C214.867 359.778 216.888 361.799 219.357 361.799C221.827 361.799 223.848 359.778 223.848 357.309Z" fill="white"/>
<path d="M268.081 359.778C268.081 358.656 267.183 357.758 266.06 357.758C264.938 357.758 264.039 358.656 264.039 359.778C264.039 360.901 264.938 361.799 266.06 361.799C267.183 361.575 268.081 360.676 268.081 359.778Z" fill="white"/>
<path d="M1245.7 599.805C1245.7 597.559 1243.9 595.763 1241.66 595.763C1239.41 595.763 1237.62 597.559 1237.62 599.805C1237.62 602.05 1239.41 603.846 1241.66 603.846C1243.9 603.846 1245.7 602.05 1245.7 599.805Z" fill="white"/>
<path d="M1156.56 241.449C1156.56 239.653 1155.21 238.306 1153.42 238.306C1151.62 238.306 1150.27 239.653 1150.27 241.449C1150.27 243.245 1151.62 244.593 1153.42 244.593C1155.21 244.593 1156.56 243.245 1156.56 241.449Z" fill="white"/>
<path d="M941.232 226.855C941.232 225.283 939.885 224.16 938.538 224.16C936.966 224.16 935.843 225.507 935.843 226.855C935.843 228.426 937.19 229.549 938.538 229.549C939.885 229.549 941.232 228.426 941.232 226.855Z" fill="white"/>
<path d="M901.714 188.01C902.83 188.01 903.735 187.106 903.735 185.99C903.735 184.873 902.83 183.969 901.714 183.969C900.598 183.969 899.693 184.873 899.693 185.99C899.693 187.106 900.598 188.01 901.714 188.01Z" fill="white"/>
<path d="M404.822 244.593C404.822 241.449 402.352 238.979 399.209 238.979C396.065 238.979 393.595 241.449 393.595 244.593C393.595 247.736 396.065 250.206 399.209 250.206C402.352 250.206 404.822 247.736 404.822 244.593Z" fill="white"/>
<path d="M583.101 119.303C583.101 116.16 580.632 113.69 577.488 113.69C574.345 113.69 571.875 116.16 571.875 119.303C571.875 122.446 574.345 124.916 577.488 124.916C580.632 124.692 583.101 122.222 583.101 119.303Z" fill="white"/>
<path d="M782.712 151.86C782.712 148.717 780.242 146.247 777.098 146.247C773.955 146.247 771.485 148.717 771.485 151.86C771.485 155.004 773.955 157.474 777.098 157.474C780.242 157.474 782.712 155.004 782.712 151.86Z" fill="white"/>
<path d="M1240.09 429.159C1240.98 430.057 1242.11 430.057 1243 429.159C1243.9 428.261 1243.9 427.138 1243 426.24C1242.11 425.342 1240.98 425.342 1240.09 426.24C1239.19 427.138 1239.41 428.261 1240.09 429.159Z" fill="white"/>
<path d="M1170.26 493.6C1171.38 494.723 1173.4 494.723 1174.52 493.6C1175.64 492.478 1175.64 490.457 1174.52 489.334C1173.4 488.212 1171.38 488.212 1170.26 489.334C1169.13 490.457 1169.13 492.253 1170.26 493.6Z" fill="white"/>
<path d="M729.497 644.936C730.62 646.058 732.641 646.058 733.763 644.936C734.886 643.813 734.886 641.792 733.763 640.67C732.641 639.547 730.62 639.547 729.497 640.67C728.375 641.792 728.375 643.589 729.497 644.936Z" fill="white"/>
<path d="M855.909 591.048C857.481 592.619 859.951 592.619 861.298 591.048C862.645 589.476 862.87 587.006 861.298 585.659C859.726 584.312 857.256 584.087 855.909 585.659C854.338 587.231 854.338 589.701 855.909 591.048Z" fill="white"/>
<path d="M942.579 602.723C943.927 604.071 946.172 604.071 947.519 602.723C948.866 601.376 948.866 599.131 947.519 597.784C946.172 596.436 943.927 596.436 942.579 597.784C941.232 599.131 941.232 601.376 942.579 602.723Z" fill="white"/>
<path d="M877.914 698.375C881.386 698.375 884.201 695.56 884.201 692.088C884.201 688.616 881.386 685.801 877.914 685.801C874.442 685.801 871.627 688.616 871.627 692.088C871.627 695.56 874.442 698.375 877.914 698.375Z" fill="white"/>
<path d="M585.347 904.047C587.817 906.517 591.634 906.517 594.103 904.047C596.573 901.577 596.573 897.76 594.103 895.29C591.634 892.821 587.817 892.821 585.347 895.29C583.101 897.536 583.101 901.577 585.347 904.047Z" fill="white"/>
<path d="M994.222 333.283C995.71 333.283 996.916 332.077 996.916 330.589C996.916 329.101 995.71 327.895 994.222 327.895C992.734 327.895 991.527 329.101 991.527 330.589C991.527 332.077 992.734 333.283 994.222 333.283Z" fill="white"/>
<path d="M1064.5 652.345C1066.86 652.345 1068.77 650.435 1068.77 648.079C1068.77 645.723 1066.86 643.813 1064.5 643.813C1062.14 643.813 1060.23 645.723 1060.23 648.079C1060.23 650.435 1062.14 652.345 1064.5 652.345Z" fill="white"/>
<path d="M1049.01 435.67C1051.36 435.67 1053.27 433.76 1053.27 431.404C1053.27 429.048 1051.36 427.138 1049.01 427.138C1046.65 427.138 1044.74 429.048 1044.74 431.404C1044.74 433.76 1046.65 435.67 1049.01 435.67Z" fill="white"/>
<path d="M739.601 788.637C741.957 788.637 743.867 786.727 743.867 784.371C743.867 782.014 741.957 780.104 739.601 780.104C737.245 780.104 735.335 782.014 735.335 784.371C735.335 786.727 737.245 788.637 739.601 788.637Z" fill="white"/>
<path d="M859.277 733.851C860.393 733.851 861.298 732.946 861.298 731.83C861.298 730.714 860.393 729.809 859.277 729.809C858.161 729.809 857.257 730.714 857.257 731.83C857.257 732.946 858.161 733.851 859.277 733.851Z" fill="white"/>
<path d="M940.559 629.443C941.232 630.116 942.579 630.116 943.253 629.443C943.927 628.769 943.927 627.422 943.253 626.748C942.579 626.075 941.232 626.075 940.559 626.748C939.885 627.646 939.885 628.769 940.559 629.443Z" fill="white"/>
<path d="M1106.04 562.083C1106.94 562.981 1108.29 562.981 1108.96 562.083C1109.63 561.185 1109.86 559.837 1108.96 559.164C1108.06 558.266 1106.71 558.266 1106.04 559.164C1105.37 559.837 1105.37 561.185 1106.04 562.083Z" fill="white"/>
<path d="M558.178 458.348C559.301 459.471 561.097 459.471 562.22 458.348C563.342 457.226 563.342 455.43 562.22 454.307C561.097 453.184 559.301 453.184 558.178 454.307C557.055 455.43 557.055 457.226 558.178 458.348Z" fill="white"/>
<path d="M783.385 564.104C784.059 564.777 785.406 564.777 786.08 564.104C786.753 563.43 786.753 562.083 786.08 561.409C785.406 560.736 784.059 560.736 783.385 561.409C782.712 562.083 782.712 563.206 783.385 564.104Z" fill="white"/>
<path d="M1205.73 480.802C1207.34 480.802 1208.65 479.495 1208.65 477.883C1208.65 476.271 1207.34 474.964 1205.73 474.964C1204.12 474.964 1202.81 476.271 1202.81 477.883C1202.81 479.495 1204.12 480.802 1205.73 480.802Z" fill="white"/>
<path d="M1073.71 317.117C1076.81 317.117 1079.32 314.604 1079.32 311.504C1079.32 308.404 1076.81 305.89 1073.71 305.89C1070.61 305.89 1068.09 308.404 1068.09 311.504C1068.09 314.604 1070.61 317.117 1073.71 317.117Z" fill="white"/>
<path d="M909.348 435.222C912.449 435.222 914.962 432.708 914.962 429.608C914.962 426.508 912.449 423.995 909.348 423.995C906.248 423.995 903.735 426.508 903.735 429.608C903.735 432.708 906.248 435.222 909.348 435.222Z" fill="white"/>
<path d="M512.823 321.159C515.923 321.159 518.436 318.645 518.436 315.545C518.436 312.445 515.923 309.932 512.823 309.932C509.722 309.932 507.209 312.445 507.209 315.545C507.209 318.645 509.722 321.159 512.823 321.159Z" fill="white"/>
<path d="M431.317 241.898C431.317 240.327 429.97 239.204 428.623 239.204C427.051 239.204 425.928 240.551 425.928 241.898C425.928 243.245 427.275 244.593 428.623 244.593C429.97 244.593 431.317 243.47 431.317 241.898Z" fill="white"/>
<path d="M276.389 221.017C276.389 218.771 274.593 217.2 272.572 217.2C270.551 217.2 268.755 218.996 268.755 221.017C268.755 223.262 270.551 224.834 272.572 224.834C274.593 224.834 276.389 223.262 276.389 221.017Z" fill="white"/>
<path d="M905.532 882.717C903.062 880.247 903.062 876.43 905.532 873.96C908.001 871.49 911.818 871.49 914.288 873.96C916.758 876.43 916.758 880.247 914.288 882.717C911.818 885.187 907.777 885.187 905.532 882.717Z" fill="white"/>
</g>
</g>
</g>
<defs>
<radialGradient id="paint0_radial_1_25" cx="0" cy="0" r="1" gradientUnits="userSpaceOnUse" gradientTransform="translate(2.73814 922.777) scale(1118.22)">
<stop stop-color="#400A46"/>
<stop offset="0.3326" stop-color="#340A41"/>
<stop offset="0.9337" stop-color="#140A35"/>
<stop offset="1" stop-color="#100A33"/>
</radialGradient>
<radialGradient id="paint1_radial_1_25" cx="0" cy="0" r="1" gradientUnits="userSpaceOnUse" gradientTransform="translate(502.756 709.524) rotate(180) scale(41.3545 41.5902)">
<stop stop-color="#FA316D"/>
<stop offset="0.0484923" stop-color="#D92B65" stop-opacity="0.9513"/>
<stop offset="0.1186" stop-color="#B0235C" stop-opacity="0.881"/>
<stop offset="0.1951" stop-color="#8B1C53" stop-opacity="0.8042"/>
<stop offset="0.2772" stop-color="#6C174C" stop-opacity="0.7219"/>
<stop offset="0.3664" stop-color="#531246" stop-opacity="0.6323"/>
<stop offset="0.4658" stop-color="#400E42" stop-opacity="0.5326"/>
<stop offset="0.5808" stop-color="#320C3E" stop-opacity="0.4171"/>
<stop offset="0.7257" stop-color="#2A0A3D" stop-opacity="0.2718"/>
<stop offset="0.9965" stop-color="#280A3C" stop-opacity="0"/>
</radialGradient>
<radialGradient id="paint2_radial_1_25" cx="0" cy="0" r="1" gradientUnits="userSpaceOnUse" gradientTransform="translate(502.78 709.528) rotate(-90) scale(41.3545 41.5902)">
<stop stop-color="#FA316D"/>
<stop offset="0.0484923" stop-color="#D92B65" stop-opacity="0.9513"/>
<stop offset="0.1186" stop-color="#B0235C" stop-opacity="0.881"/>
<stop offset="0.1951" stop-color="#8B1C53" stop-opacity="0.8042"/>
<stop offset="0.2772" stop-color="#6C174C" stop-opacity="0.7219"/>
<stop offset="0.3664" stop-color="#531246" stop-opacity="0.6323"/>
<stop offset="0.4658" stop-color="#400E42" stop-opacity="0.5326"/>
<stop offset="0.5808" stop-color="#320C3E" stop-opacity="0.4171"/>
<stop offset="0.7257" stop-color="#2A0A3D" stop-opacity="0.2718"/>
<stop offset="0.9965" stop-color="#280A3C" stop-opacity="0"/>
</radialGradient>
<radialGradient id="paint3_radial_1_25" cx="0" cy="0" r="1" gradientUnits="userSpaceOnUse" gradientTransform="translate(1042.76 179.219) rotate(180) scale(26.3972 26.5476)">
<stop stop-color="#FA316D"/>
<stop offset="0.0484923" stop-color="#D92B65" stop-opacity="0.9513"/>
<stop offset="0.1186" stop-color="#B0235C" stop-opacity="0.881"/>
<stop offset="0.1951" stop-color="#8B1C53" stop-opacity="0.8042"/>
<stop offset="0.2772" stop-color="#6C174C" stop-opacity="0.7219"/>
<stop offset="0.3664" stop-color="#531246" stop-opacity="0.6323"/>
<stop offset="0.4658" stop-color="#400E42" stop-opacity="0.5326"/>
<stop offset="0.5808" stop-color="#320C3E" stop-opacity="0.4171"/>
<stop offset="0.7257" stop-color="#2A0A3D" stop-opacity="0.2718"/>
<stop offset="0.9965" stop-color="#280A3C" stop-opacity="0"/>
</radialGradient>
<radialGradient id="paint4_radial_1_25" cx="0" cy="0" r="1" gradientUnits="userSpaceOnUse" gradientTransform="translate(1042.77 179.234) rotate(-90) scale(26.3972 26.5476)">
<stop stop-color="#FA316D"/>
<stop offset="0.0484923" stop-color="#D92B65" stop-opacity="0.9513"/>
<stop offset="0.1186" stop-color="#B0235C" stop-opacity="0.881"/>
<stop offset="0.1951" stop-color="#8B1C53" stop-opacity="0.8042"/>
<stop offset="0.2772" stop-color="#6C174C" stop-opacity="0.7219"/>
<stop offset="0.3664" stop-color="#531246" stop-opacity="0.6323"/>
<stop offset="0.4658" stop-color="#400E42" stop-opacity="0.5326"/>
<stop offset="0.5808" stop-color="#320C3E" stop-opacity="0.4171"/>
<stop offset="0.7257" stop-color="#2A0A3D" stop-opacity="0.2718"/>
<stop offset="0.9965" stop-color="#280A3C" stop-opacity="0"/>
</radialGradient>
<radialGradient id="paint5_radial_1_25" cx="0" cy="0" r="1" gradientUnits="userSpaceOnUse" gradientTransform="translate(950.052 720.883) rotate(145.918) scale(14.9818 36.2526)">
<stop stop-color="#FFC66A"/>
<stop offset="0.1172" stop-color="#FFDA81" stop-opacity="0.8828"/>
<stop offset="0.2557" stop-color="#FFEA94" stop-opacity="0.7443"/>
<stop offset="0.4169" stop-color="#FFF6A2" stop-opacity="0.5831"/>
<stop offset="0.62" stop-color="#FFFDAA" stop-opacity="0.38"/>
<stop offset="1" stop-color="#FFFFAC" stop-opacity="0"/>
</radialGradient>
<radialGradient id="paint6_radial_1_25" cx="0" cy="0" r="1" gradientUnits="userSpaceOnUse" gradientTransform="translate(950.052 720.884) rotate(-124.082) scale(14.9819 36.2528)">
<stop stop-color="#FFC66A"/>
<stop offset="0.1172" stop-color="#FFDA81" stop-opacity="0.8828"/>
<stop offset="0.2557" stop-color="#FFEA94" stop-opacity="0.7443"/>
<stop offset="0.4169" stop-color="#FFF6A2" stop-opacity="0.5831"/>
<stop offset="0.62" stop-color="#FFFDAA" stop-opacity="0.38"/>
<stop offset="1" stop-color="#FFFFAC" stop-opacity="0"/>
</radialGradient>
<radialGradient id="paint7_radial_1_25" cx="0" cy="0" r="1" gradientUnits="userSpaceOnUse" gradientTransform="translate(522.819 280.56) rotate(145.918) scale(14.9818 36.2526)">
<stop stop-color="#FFC66A"/>
<stop offset="0.0661016" stop-color="#D09E60" stop-opacity="0.9339"/>
<stop offset="0.1352" stop-color="#A77C57" stop-opacity="0.8648"/>
<stop offset="0.2106" stop-color="#825D4F" stop-opacity="0.7894"/>
<stop offset="0.2914" stop-color="#634348" stop-opacity="0.7086"/>
<stop offset="0.3794" stop-color="#4A2E42" stop-opacity="0.6206"/>
<stop offset="0.4773" stop-color="#371E3E" stop-opacity="0.5227"/>
<stop offset="0.5906" stop-color="#29133B" stop-opacity="0.4094"/>
<stop offset="0.7332" stop-color="#210C3A" stop-opacity="0.2668"/>
<stop offset="1" stop-color="#1F0A39" stop-opacity="0"/>
</radialGradient>
<radialGradient id="paint8_radial_1_25" cx="0" cy="0" r="1" gradientUnits="userSpaceOnUse" gradientTransform="translate(522.819 280.56) rotate(-124.082) scale(14.9819 36.2528)">
<stop stop-color="#FFC66A"/>
<stop offset="0.0661016" stop-color="#D09E60" stop-opacity="0.9339"/>
<stop offset="0.1352" stop-color="#A77C57" stop-opacity="0.8648"/>
<stop offset="0.2106" stop-color="#825D4F" stop-opacity="0.7894"/>
<stop offset="0.2914" stop-color="#634348" stop-opacity="0.7086"/>
<stop offset="0.3794" stop-color="#4A2E42" stop-opacity="0.6206"/>
<stop offset="0.4773" stop-color="#371E3E" stop-opacity="0.5227"/>
<stop offset="0.5906" stop-color="#29133B" stop-opacity="0.4094"/>
<stop offset="0.7332" stop-color="#210C3A" stop-opacity="0.2668"/>
<stop offset="1" stop-color="#1F0A39" stop-opacity="0"/>
</radialGradient>
<clipPath id="clip0_1_25">
<rect width="1440" height="893" fill="white"/>
</clipPath>
</defs>
</svg>
