<svg width="170" height="187" viewBox="0 0 170 187" fill="none" xmlns="http://www.w3.org/2000/svg">
<path d="M36.5429 116.431C38.0447 103.164 49.809 93.6529 63.0751 95.1548C76.3411 96.6566 85.8527 108.421 84.3508 121.687C83.0993 133.451 73.5878 142.212 62.0738 142.712C61.5732 142.712 39.5465 168.744 37.7944 167.993C36.2926 167.242 58.8199 142.963 58.3193 142.963C57.8187 142.963 58.069 142.963 57.5684 142.963C55.566 142.712 14.5162 187.517 10.7617 185.264C6.25621 182.761 50.3096 140.96 49.809 140.71C49.0581 140.46 47.0556 139.208 46.3047 138.457C46.0544 138.207 14.5162 171.497 12.0132 169.245C8.75924 166.491 41.7993 134.452 41.549 133.952C41.0484 133.451 40.7981 132.951 40.2975 132.2C40.0472 131.699 -7.51047 180.258 -11.265 177.254C-14.0184 175.002 37.5441 126.693 37.2938 125.692C37.2938 125.692 37.0435 122.688 36.2926 123.189C31.2865 126.192 10.7617 143.964 9.51015 142.212C7.25743 139.458 36.2926 118.183 36.5429 116.431Z" fill="#FFD400"/>
<path d="M144.424 60.8626L110.382 29.825L117.892 33.3292C122.647 35.5819 127.403 38.8359 131.658 42.8407C134.912 46.0947 137.916 49.5989 140.169 53.3535L144.424 60.8626Z" fill="white"/>
<path d="M155.253 9.77495L129.617 37.8872L135.166 42.9468L160.801 14.8346L155.253 9.77495Z" fill="#66ACFF"/>
<path d="M82.3484 52.3527C80.346 50.6006 77.3423 50.6006 75.3399 52.603L36.5429 95.1546C34.7908 97.157 31.2865 97.9079 28.7835 96.9067L-9.7632 80.8873C-12.2662 79.8861 -12.7668 80.3867 -10.7644 82.3891L17.7702 108.421C19.7726 110.173 23.0265 113.176 25.029 115.179L26.2805 116.43C28.2829 118.182 31.2865 118.182 33.289 116.18L41.0484 107.419C42.8005 105.417 45.8041 102.163 47.8065 100.161L83.8502 60.6127C85.6023 58.6103 85.6023 55.6067 83.5999 53.6042L82.3484 52.3527Z" fill="#66ACFF"/>
<path d="M125.901 90.399C127.904 92.1511 128.154 95.4051 126.152 97.4075L87.3546 139.959C85.6025 141.961 85.1019 145.466 86.3534 147.969L105.877 184.763C107.129 187.266 106.628 187.517 104.626 185.765L76.091 159.733C74.0885 157.981 70.8346 154.977 68.8322 152.975L67.5806 151.723C65.5782 149.971 65.3279 146.717 67.3303 144.715L75.0897 135.954C76.8419 133.952 79.8455 130.698 81.8479 128.695L117.892 89.1475C119.644 87.145 122.898 86.8947 124.9 88.8972L125.901 90.399Z" fill="#66ACFF"/>
<path d="M145.925 25.5702C133.911 14.5569 93.8623 39.0866 83.0992 51.1012L71.5853 63.8666L39.7968 98.9091C43.301 107.169 49.3083 115.679 57.318 122.938C65.3277 130.197 74.3386 135.453 82.8489 138.207L114.637 103.164L126.151 90.3988C137.165 78.3842 157.69 36.3333 145.925 25.5702Z" fill="#FFFCF0"/>
<path d="M123.398 50.3502C130.407 56.6078 135.663 63.8666 139.418 70.8751C148.178 53.8544 155.187 31.8278 147.177 24.569C138.917 17.0599 117.641 26.3211 101.622 36.5835C108.881 39.3368 116.39 43.8423 123.398 50.3502Z" fill="#66EDFF"/>
<path d="M112.385 82.1384C117.391 76.6317 116.89 68.1214 111.384 63.1153C105.877 58.1093 97.3667 58.6099 92.3607 64.1165C87.3546 69.6232 87.8552 78.1335 93.3619 83.1396C99.1188 87.8953 107.629 87.645 112.385 82.1384ZM96.3655 79.8856C92.611 76.6317 92.3607 70.8747 95.8649 67.1202C99.1188 63.3656 104.876 63.1153 108.63 66.6196C112.385 69.8735 112.635 75.6305 109.131 79.385C105.877 82.8893 100.12 83.1396 96.3655 79.8856Z" fill="#66EDFF"/>
<path d="M108.63 66.3692C104.876 63.1153 99.1188 63.3656 95.8649 66.8698C92.611 70.6244 92.8613 76.3814 96.3655 79.6353C100.12 82.8892 105.877 82.6389 109.131 79.1347C112.635 75.3801 112.385 69.6232 108.63 66.3692Z" fill="#323232"/>
<path d="M167.702 14.0561C164.698 17.5603 159.442 17.8106 155.938 14.5567C152.433 11.5531 152.433 6.29669 155.437 2.79244C158.441 -0.711805 163.697 -0.962108 167.201 2.29183C170.705 5.29547 170.956 10.5518 167.702 14.0561Z" fill="#66EDFF"/>
<path d="M63.0751 115.429C54.5648 107.67 45.5539 92.6515 45.5539 92.6515C44.8029 91.4 43.5514 91.4 42.5502 92.4012L33.7896 102.163C32.7884 103.164 32.7884 104.916 33.289 106.168C33.289 106.168 42.2999 121.436 50.8102 129.196C59.3205 136.955 75.3399 144.464 75.3399 144.464C76.5915 144.965 78.3436 144.715 79.3448 143.713L88.1054 133.952C89.1066 132.95 88.8563 131.699 87.6048 131.198C87.6048 130.698 71.5854 123.188 63.0751 115.429Z" fill="#66EDFF"/>
<path opacity="0.2" d="M88.8564 133.701C89.6073 132.95 89.6073 131.949 89.1067 131.448L116.64 101.161L128.154 88.3958C131.658 84.6413 135.913 77.8831 140.169 69.8734C148.178 54.6049 154.686 35.0813 149.68 26.0703C149.68 25.82 149.43 25.82 149.43 25.5697C149.179 25.3194 149.179 25.0691 148.929 24.8188C148.679 24.3182 148.429 24.0679 147.928 23.8176C147.928 23.8176 147.928 23.5673 147.678 23.5673C147.177 23.0667 146.676 22.8164 146.176 22.5661C145.675 22.3158 144.924 22.0655 144.424 21.8152C142.171 37.8346 134.161 54.6049 121.145 68.8722C97.8673 94.4031 65.3279 104.165 41.7993 94.6534L34.7909 102.413C33.7896 103.414 33.7896 105.166 34.2903 106.418C34.2903 106.418 43.3012 121.686 51.8115 129.446C60.3218 137.205 76.3412 144.714 76.3412 144.714C77.5927 145.215 79.3448 144.964 80.3461 143.963L88.8564 133.701Z" fill="url(#paint0_linear_5_3195)"/>
<defs>
<linearGradient id="paint0_linear_5_3195" x1="84.5843" y1="63.3237" x2="152.273" y2="122.444" gradientUnits="userSpaceOnUse">
<stop offset="0.1921"/>
<stop offset="0.4661"/>
<stop offset="0.484"/>
<stop offset="0.8165" stop-color="#404040"/>
</linearGradient>
</defs>
</svg>
