<svg width="200" height="167" viewBox="0 0 200 167" fill="none" xmlns="http://www.w3.org/2000/svg">
<path fill-rule="evenodd" clip-rule="evenodd" d="M61.5724 33.8225C60.5647 34.99 61.2124 45.4386 62.429 48.5985C62.7055 49.3166 64.6623 50.0172 67.1326 50.4566C71.2033 51.0694 85.1084 54.516 94.7248 57.1814C108.077 60.9844 120.231 71.237 122.123 70.5748C136.047 65.7028 170.551 81.4175 184.631 99.0632C200.941 119.514 188.609 123.341 179.325 110.781C167.137 94.2646 152.256 83.5003 134.897 78.6545C129.057 77.0313 128.909 77.2453 132.642 81.5626C151.076 103.145 127.965 131.767 102.468 118.931C85.3252 110.261 86.5423 86.5289 104.648 75.3857C108.817 72.8675 93.9165 65.0428 76.4264 60.6505C61.7471 56.986 62.7487 56.7984 63.3319 62.2986C66.0046 85.9735 62.0412 88.8274 45.4172 75.3311C37.958 69.3032 25.9855 63.306 11.4595 58.447C5.90219 56.5615 8.03732 53.9403 16.6829 51.893C26.1268 49.7294 38.0661 44.0849 47.3012 37.5938C60.5153 28.4881 63.0504 32.083 61.5724 33.8225ZM106.958 81.5853C96.0631 92.7319 103.805 114.633 118.967 115.765C128.691 116.519 130.703 97.6423 122.043 86.9009C115.066 78.3409 111.342 77.0363 106.958 81.5853Z" fill="white"/>
</svg>
