<svg width="1263" height="538" viewBox="0 0 1263 538" fill="none" xmlns="http://www.w3.org/2000/svg">
<path d="M1052.5 105.251C1052.5 126.068 1058.67 146.417 1070.24 163.726C1081.8 181.034 1098.24 194.524 1117.47 202.49C1136.7 210.457 1157.87 212.541 1178.28 208.48C1198.7 204.419 1217.45 194.395 1232.17 179.675C1246.89 164.955 1256.92 146.201 1260.98 125.785C1265.04 105.368 1262.95 84.2055 1254.99 64.9734C1247.02 45.7413 1233.53 29.3033 1216.22 17.7382C1198.91 6.17309 1178.57 0.000223746 1157.75 0.000223746C1143.92 -0.0283208 1130.22 2.67459 1117.44 7.95384C1104.65 13.2331 1093.04 20.9847 1083.26 30.7639C1073.48 40.543 1065.73 52.1571 1060.45 64.9397C1055.17 77.7222 1052.47 91.4215 1052.5 105.251Z" fill="#FFDF4F"/>
<path d="M1168.79 56.0924C1168.79 58.8856 1169.62 61.6157 1171.18 63.935C1172.74 66.2544 1174.95 68.0583 1177.53 69.117C1180.12 70.1758 1182.96 70.4417 1185.7 69.8807C1188.43 69.3198 1190.94 67.9574 1192.9 65.967C1194.86 63.9766 1196.18 61.4482 1196.7 58.7034C1197.22 55.9587 1196.91 53.1218 1195.81 50.5537C1194.71 47.9855 1192.87 45.8024 1190.53 44.2819C1188.19 42.7615 1185.45 41.9726 1182.65 42.0156C1178.96 42.0724 1175.43 43.5806 1172.84 46.2144C1170.25 48.8481 1168.79 52.3962 1168.79 56.0924Z" fill="#D3B94F"/>
<path d="M1196.51 124.958C1196.56 128.675 1197.7 132.296 1199.79 135.366C1201.89 138.436 1204.85 140.817 1208.29 142.21C1211.74 143.603 1215.52 143.945 1219.16 143.194C1222.8 142.443 1226.14 140.631 1228.75 137.988C1231.36 135.344 1233.14 131.987 1233.85 128.338C1234.56 124.689 1234.17 120.912 1232.74 117.482C1231.31 114.052 1228.89 111.122 1225.8 109.061C1222.7 107 1219.07 105.9 1215.35 105.9C1212.86 105.9 1210.39 106.394 1208.09 107.355C1205.79 108.315 1203.71 109.722 1201.95 111.495C1200.2 113.268 1198.82 115.37 1197.88 117.681C1196.95 119.992 1196.48 122.466 1196.51 124.958Z" fill="#D3B94F"/>
<path d="M1077.62 126.473C1077.68 130.399 1079.28 134.144 1082.07 136.9C1084.87 139.656 1088.64 141.2 1092.56 141.2C1096.19 140.761 1099.53 139.009 1101.95 136.276C1104.37 133.543 1105.71 130.017 1105.71 126.365C1105.71 122.713 1104.37 119.187 1101.95 116.454C1099.53 113.721 1096.19 111.969 1092.56 111.53C1088.6 111.53 1084.8 113.105 1082 115.907C1079.19 118.709 1077.62 122.51 1077.62 126.473Z" fill="#D3B94F"/>
<path d="M1127.86 174.551C1127.83 176.493 1128.19 178.421 1128.92 180.221C1129.65 182.021 1130.73 183.656 1132.11 185.029C1133.48 186.403 1135.12 187.486 1136.92 188.216C1138.72 188.946 1140.64 189.307 1142.59 189.277C1144.54 189.306 1146.48 188.946 1148.29 188.219C1150.1 187.492 1151.75 186.412 1153.14 185.041C1154.53 183.671 1155.63 182.038 1156.39 180.237C1157.14 178.436 1157.53 176.503 1157.53 174.551C1157.53 170.588 1155.95 166.787 1153.15 163.985C1150.35 161.182 1146.55 159.608 1142.59 159.608C1140.63 159.608 1138.7 159.996 1136.9 160.749C1135.1 161.503 1133.47 162.607 1132.1 163.997C1130.73 165.388 1129.65 167.037 1128.92 168.849C1128.19 170.661 1127.83 172.599 1127.86 174.551Z" fill="#D3B94F"/>
<path d="M1107.29 63.2371C1107.61 65.2177 1108.62 67.0196 1110.15 68.3202C1111.68 69.6208 1113.62 70.335 1115.63 70.335C1117.63 70.335 1119.57 69.6208 1121.1 68.3202C1122.63 67.0196 1123.64 65.2177 1123.96 63.2371C1124.16 62.0295 1124.09 60.794 1123.76 59.616C1123.43 58.4379 1122.85 57.3454 1122.06 56.414C1121.26 55.4826 1120.28 54.7345 1119.17 54.2215C1118.06 53.7086 1116.85 53.4429 1115.63 53.4429C1114.4 53.4429 1113.19 53.7086 1112.08 54.2215C1110.97 54.7345 1109.99 55.4826 1109.19 56.414C1108.4 57.3454 1107.82 58.4379 1107.49 59.616C1107.16 60.794 1107.09 62.0295 1107.29 63.2371Z" fill="#D3B94F"/>
<path d="M1150.6 104.384C1150.6 106.055 1151.1 107.688 1152.03 109.077C1152.96 110.466 1154.27 111.548 1155.82 112.187C1157.36 112.827 1159.06 112.994 1160.7 112.668C1162.34 112.342 1163.84 111.538 1165.02 110.357C1166.2 109.175 1167.01 107.67 1167.33 106.032C1167.66 104.394 1167.49 102.695 1166.85 101.152C1166.21 99.6088 1165.13 98.2897 1163.74 97.3617C1162.35 96.4336 1160.72 95.9382 1159.05 95.9382C1156.81 95.9382 1154.66 96.8281 1153.08 98.412C1151.49 99.996 1150.6 102.144 1150.6 104.384Z" fill="#D3B94F"/>
<path opacity="0.2" d="M1131.54 3.68115C1117.38 18.6268 1107.9 37.392 1104.27 57.6618C1100.65 77.9317 1103.03 98.8195 1111.14 117.748C1119.25 136.677 1132.71 152.82 1149.89 164.183C1167.06 175.547 1187.18 181.636 1207.77 181.698C1216.69 181.653 1225.57 180.489 1234.19 178.233C1219.69 193.469 1200.95 204.009 1180.4 208.493C1159.85 212.978 1138.43 211.201 1118.89 203.393C1099.36 195.585 1082.62 182.103 1070.82 164.687C1059.02 147.27 1052.72 126.719 1052.71 105.684C1052.72 82.3577 1060.46 59.6931 1074.73 41.2365C1088.99 22.7798 1108.97 9.57252 1131.54 3.68115Z" fill="black"/>
<path d="M691.918 543.365C797.602 472.765 850.444 348.456 938.586 314.022C962.528 303.428 987.593 295.582 1013.3 290.633C1099.37 359.683 1165.58 450.331 1205.18 553.327C1161.59 546.629 1117.03 555.525 1079.35 578.449C727.218 807.792 357.323 984.077 39.8379 631.507C34.6403 625.444 29.0095 619.813 23.3788 614.399C51.9894 508.143 108.259 411.371 186.453 333.946C330.469 474.281 490.728 651.648 691.918 543.365Z" fill="#3EE5E5"/>
<path d="M357.323 261.179C344.329 252.516 331.768 243.421 319.208 234.108C404.741 185.691 500.588 158.37 598.794 154.412C594.246 166.107 589.915 178.018 586.233 190.579C568.692 243.637 445.466 296.479 357.323 261.179Z" fill="#A6F2FF"/>
<path d="M357.322 261.177C445.464 296.477 568.69 243.635 586.232 190.576C589.913 178.015 594.245 166.104 598.793 154.41C607.239 154.41 615.901 154.41 624.564 154.41C766.345 154.039 903.955 202.355 1014.38 291.279C988.183 295.907 962.604 303.537 938.151 314.019C850.009 349.319 797.167 472.761 691.483 543.362C490.293 651.645 330.034 474.277 186.451 333.943C225.9 294.901 270.403 261.323 318.773 234.106C331.767 243.418 344.328 252.514 357.322 261.177Z" fill="#84ECF7"/>
<path d="M367.497 474.278C293.029 455.006 223.157 421.064 161.976 374.441C164.513 372.699 167.392 371.518 170.422 370.976C182.761 373.28 194.92 376.464 206.805 380.505C212.219 381.804 218.932 380.505 218.932 369.677C218.932 358.848 225.862 341.306 236.474 343.905C259.659 349.45 282.279 357.135 304.043 366.861C309.457 372.275 322.884 384.403 322.884 393.932C322.884 403.461 314.871 414.073 318.986 412.773L322.884 411.474C326.566 411.474 335.228 401.945 341.725 388.518H355.369C362.183 396.785 366.402 406.881 367.497 417.538C366.892 420.236 367.228 423.061 368.449 425.542C369.671 428.024 371.703 430.013 374.21 431.181C383.162 432.597 392.218 433.249 401.281 433.13C416.175 435.002 430.225 441.088 441.779 450.672L444.378 454.787L447.193 458.685C451.076 459.342 455.06 459.077 458.822 457.911C462.584 456.744 466.019 454.71 468.849 451.972C472.315 447.64 463.435 439.627 449.359 434.43L456.072 430.315C462.786 426.417 501.984 407.359 515.411 411.474L529.055 415.589C546.928 421.499 563.584 430.597 578.215 442.443C582.32 449.403 585.938 456.639 589.043 464.099C517.359 486.831 440.963 490.341 367.497 474.278Z" fill="#70FF61"/>
<path d="M161.98 374.443C223.161 421.065 293.033 455.007 367.501 474.28C440.746 489.979 516.824 486.246 588.181 463.451C590.78 469.082 593.379 474.929 595.545 480.344L594.245 491.172C592.946 502 587.532 530.37 596.844 534.485L606.373 538.383C617.763 547.927 627.433 559.354 634.96 572.167C636.287 576.957 636.549 581.98 635.726 586.881C634.902 591.783 633.015 596.444 630.195 600.538C627.163 604.869 630.195 608.767 636.042 611.582C620.233 616.563 603.991 621.111 587.532 624.576C583.417 621.328 579.519 618.946 576.92 619.595C572.134 621.798 567.857 624.969 564.359 628.908C533.885 633.992 502.908 635.374 472.102 633.022C348.01 613.748 213.522 511.746 82.2835 464.534C96.758 439.141 113.043 414.822 131.011 391.768C139.673 389.819 152.667 379.64 161.98 374.443Z" fill="#4FDD3A"/>
<path d="M473.184 633.02C504.025 635.086 535.002 633.413 565.441 628.039C557.428 635.619 548.765 645.148 545.517 648.397C542.269 651.645 538.803 668.754 519.962 664.639L501.121 660.524C488.344 658.359 476.866 660.524 475.35 664.639C473.834 668.754 460.623 673.951 445.68 675.467L437.667 672.652C429.438 670.053 422.724 684.78 426.839 690.194L430.954 695.608C424.354 730.445 413.894 764.439 399.768 796.961L393.055 801.076C386.341 805.19 378.328 840.274 372.914 838.975C367.5 837.675 340.429 836.159 332.416 826.847L324.403 817.318C302.747 795.661 291.052 770.973 296.683 763.826C302.314 756.68 321.371 758.412 339.996 767.291L342.595 759.278C345.41 751.049 367.067 715.965 353.423 714.666C339.779 713.366 319.855 730.908 311.626 736.322C300.413 744.4 287.54 749.875 273.944 752.348C262.198 752.15 250.737 755.971 241.459 763.177L238.86 768.591C235.178 773.139 226.516 770.107 219.802 761.877L215.904 768.591C213.447 776.619 211.921 784.903 211.356 793.279C138.617 750.711 73.1766 696.75 17.5295 633.454C31.3917 573.85 54.0162 516.632 84.6649 463.666C214.604 511.744 349.092 613.746 473.184 633.02Z" fill="#00BA35"/>
<path d="M870.802 373.576C887.044 372.277 922.128 375.092 942.269 354.735C950.443 346.967 960.32 341.217 971.112 337.946C981.904 334.675 993.311 333.972 1004.42 335.894C1011.14 339.792 1028.68 345.206 1028.68 350.62C1028.68 356.034 1013.95 372.277 1017.85 375.092L1021.96 377.691C1032.28 378.439 1042.35 381.159 1051.63 385.704H1058.35C1050.33 400.647 1049.9 410.609 1058.35 407.36C1077.68 402.441 1097.28 398.609 1117.04 395.882C1138.31 424.009 1157.22 453.853 1173.56 485.107C1127.87 483.375 1080.22 491.821 1036.69 491.821C980.656 488.182 924.499 496.753 872.101 516.943C873.617 506.114 873.617 484.458 887.044 477.744C904.015 472.099 922.193 471.126 939.67 474.929C955.912 477.744 971.938 476.228 965.225 462.801C958.511 449.374 937.071 421.004 913.898 435.73C899.794 446.69 886.743 458.943 874.917 472.33C862.038 481.762 847.988 489.479 833.119 495.286C826.189 495.286 810.163 503.299 801.934 500.7C793.704 498.101 773.78 499.184 768.366 484.458C762.952 469.731 775.08 477.744 748.009 451.973C720.938 426.202 720.072 436.38 703.18 422.736C754.506 401.08 805.616 379.423 856.725 359.283C858.674 368.162 862.356 374.442 870.802 373.576Z" fill="#4FDD3A"/>
<path d="M668.31 370.979C666.101 358.474 665.23 345.769 665.711 333.08C668.31 325.067 657.698 312.939 679.138 312.939C700.578 312.939 761.433 316.837 770.962 315.538C780.491 314.238 850.659 331.78 853.257 339.793C854.557 343.691 854.99 351.921 856.722 359.284C805.613 378.775 754.503 402.597 703.177 422.738C701.661 421.222 699.929 420.139 698.196 418.19C683.293 406.186 672.784 389.585 668.31 370.979Z" fill="#70FF61"/>
<path d="M1036.69 491.821C1080 491.821 1127.86 483.375 1173.56 485.107C1202.12 539.569 1222.48 597.949 1233.98 658.36C1160.78 609.416 1066.36 597.288 1019.14 632.805C1005.72 643.2 992.29 654.462 978.863 663.558C975.456 663.399 972.123 662.504 969.095 660.933C966.066 659.363 963.414 657.155 961.321 654.462C958.262 649.922 956.4 644.683 955.908 639.231C955.416 633.779 956.31 628.291 958.506 623.276C961.321 613.964 969.334 609.849 939.665 603.136C909.995 596.422 891.154 594.906 888.339 588.193C885.523 581.479 879.026 562.638 874.912 553.109C871.233 541.35 870.27 528.91 872.096 516.726C924.511 496.61 980.667 488.113 1036.69 491.821Z" fill="#00BA35"/>
<path opacity="0.2" d="M448.495 178.885C417.02 286.003 414.948 399.616 442.495 507.811C470.042 616.005 526.195 714.794 605.063 793.817C683.931 872.841 782.609 929.187 890.75 956.946C998.89 984.706 1112.51 982.857 1219.69 951.592C1189.28 1055.3 1132.4 1149.31 1054.63 1224.36C976.868 1299.41 880.899 1352.92 776.174 1379.62C671.448 1406.32 561.576 1405.29 457.369 1376.63C353.162 1347.98 258.214 1292.68 181.868 1216.18C105.522 1139.69 50.4105 1044.63 21.9574 940.366C-6.49573 836.104 -7.30969 726.229 19.5955 621.556C46.5006 516.883 100.198 421.02 175.402 343.401C250.606 265.783 344.725 209.084 448.495 178.885Z" fill="url(#paint0_linear_5_2045)"/>
<path opacity="0.7" d="M783.742 297.126C765.117 321.815 783.742 368.16 827.055 400.645C870.368 433.13 919.962 439.41 938.586 414.722C957.211 390.033 938.586 343.471 895.273 310.986C851.96 278.502 802.583 272.438 783.742 297.126Z" fill="white"/>
<defs>
<linearGradient id="paint0_linear_5_2045" x1="965.871" y1="510.231" x2="-86.639" y2="1328.85" gradientUnits="userSpaceOnUse">
<stop/>
<stop offset="0.57"/>
<stop offset="0.61"/>
<stop offset="1" stop-color="#404040"/>
</linearGradient>
</defs>
</svg>
