<svg width="783" height="769" viewBox="0 0 783 769" fill="none" xmlns="http://www.w3.org/2000/svg">
<path d="M362.697 705.884C352.037 710.159 340.463 711.291 329.439 709.136C318.414 706.981 308.434 701.638 300.76 693.78C293.087 685.923 288.064 675.905 286.328 664.993C284.592 654.081 286.22 642.765 291.006 632.476C295.792 622.188 303.522 613.389 313.218 607.192C322.914 600.994 334.14 597.678 345.477 597.661C356.814 597.644 367.753 600.927 376.91 607.096C386.067 613.265 393.031 622.042 396.921 632.318C399.521 639.138 400.697 646.456 400.383 653.849C400.068 661.243 398.27 668.568 395.09 675.403C391.91 682.238 387.411 688.45 381.852 693.68C376.294 698.911 369.784 703.058 362.697 705.884Z" fill="#0CB0C1"/>
<path opacity="0.2" d="M400.097 646.734C395.12 656.786 387.306 665.315 377.625 671.264C367.944 677.213 356.821 680.32 345.632 680.201C334.444 680.082 323.682 676.743 314.68 670.595C305.678 664.448 298.831 655.764 294.987 645.617C293.346 641.214 292.285 636.601 291.829 631.888C287.873 639.841 285.817 648.506 285.823 657.199C285.828 665.892 287.895 674.376 291.86 681.981C295.825 689.586 301.579 696.104 308.67 701.022C315.761 705.94 323.993 709.122 332.719 710.319C341.445 711.515 350.424 710.693 358.95 707.916C367.476 705.14 375.314 700.486 381.848 694.32C388.381 688.155 393.43 680.647 396.597 672.389C399.764 664.131 400.962 655.348 400.097 646.734Z" fill="black"/>
<path d="M132.099 107.127C123.676 110.651 114.484 111.682 105.693 110.088C96.9024 108.495 88.9101 104.348 82.7335 98.1768C76.5569 92.0054 72.4753 84.0881 71.0082 75.4324C69.541 66.7768 70.7547 57.7743 74.4946 49.5706C78.2346 41.3669 84.3319 34.3329 92.0104 29.3639C99.6888 24.3949 108.601 21.7155 117.614 21.6667C126.626 21.6179 135.331 24.202 142.62 29.09C149.909 33.978 155.453 40.9489 158.546 49.1156C162.639 59.9203 162.159 72.0598 157.211 82.9134C152.263 93.767 143.243 102.464 132.099 107.127Z" fill="#FFD685"/>
<path opacity="0.2" d="M161.744 60.2809C157.816 68.2574 151.636 75.0302 143.969 79.7593C136.303 84.4884 127.489 86.9657 118.619 86.8841C109.749 86.8025 101.214 84.1655 94.0722 79.3002C86.9305 74.4348 81.4964 67.5552 78.4437 59.5144C77.0797 55.9123 76.2053 52.1313 75.8423 48.2657C72.7141 54.5684 71.0908 61.4335 71.1006 68.3197C71.1104 75.2059 72.7531 81.9248 75.8989 87.9466C79.0447 93.9684 83.6076 99.1283 89.2279 103.02C94.8483 106.911 101.372 109.427 108.285 110.369C115.198 111.312 122.312 110.655 129.064 108.451C135.816 106.246 142.023 102.555 147.195 97.6668C152.367 92.779 156.362 86.8288 158.866 80.2853C161.37 73.7418 162.314 66.7841 161.623 59.9607L161.744 60.2809Z" fill="black"/>
<path d="M260.103 14.469C257.727 19.5687 253.893 23.9295 249.085 27.0002C244.277 30.0708 238.711 31.7134 233.09 31.7205C227.47 31.7275 222.047 30.0985 217.508 27.0396C212.968 23.9806 209.516 19.6289 207.587 14.5346C205.658 9.44026 205.339 3.83199 206.671 -1.58133C208.003 -6.99464 210.925 -11.97 215.068 -15.8784C219.211 -19.7869 224.39 -22.453 229.949 -23.5398C235.508 -24.6265 241.199 -24.0852 246.301 -21.9841C249.691 -20.5878 252.738 -18.537 255.267 -15.9488C257.796 -13.3607 259.757 -10.286 261.039 -6.9005C262.321 -3.51503 262.898 0.114843 262.737 3.78157C262.577 7.44831 261.681 11.08 260.103 14.469Z" fill="#0CB0C1"/>
<path opacity="0.2" d="M252.516 -17.691C254.321 -12.6096 254.535 -7.0528 253.131 -1.71391C251.727 3.62499 248.768 8.50953 244.622 12.3302C240.476 16.1509 235.328 18.7386 229.819 19.7703C224.311 20.802 218.685 20.2321 213.646 18.1316C211.483 17.2385 209.458 16.0715 207.622 14.6591C209.043 18.6537 211.404 22.2298 214.52 25.1073C217.636 27.9847 221.421 30.0852 225.58 31.2442C229.739 32.4031 234.158 32.589 238.491 31.7872C242.824 30.9855 246.953 29.2178 250.554 26.6229C254.155 24.0279 257.131 20.6762 259.248 16.8305C261.365 12.9848 262.565 8.74957 262.755 4.45682C262.945 0.164078 262.12 -4.06951 260.343 -7.91207C258.567 -11.7546 255.888 -15.1017 252.516 -17.691Z" fill="black"/>
<path d="M153.321 224.694C150.946 229.794 147.112 234.154 142.304 237.225C137.495 240.296 131.929 241.938 126.309 241.945C120.688 241.952 115.265 240.324 110.726 237.265C106.186 234.206 102.734 229.854 100.805 224.759C98.8764 219.665 98.5576 214.057 99.8892 208.643C101.221 203.23 104.143 198.255 108.286 194.346C112.43 190.438 117.608 187.771 123.168 186.685C128.727 185.598 134.417 186.139 139.519 188.24C146.345 191.085 151.627 196.514 154.212 203.342C156.798 210.171 156.478 217.846 153.321 224.694Z" fill="#EDB656"/>
<path opacity="0.2" d="M145.53 191.984C147.335 197.065 147.549 202.622 146.145 207.961C144.741 213.3 141.782 218.184 137.636 222.005C133.49 225.825 128.342 228.413 122.833 229.445C117.324 230.476 111.699 229.907 106.66 227.806C104.282 227.023 102.051 225.891 100.043 224.449C101.449 228.454 103.798 232.043 106.906 234.935C110.015 237.826 113.797 239.942 117.956 241.114C122.115 242.287 126.538 242.485 130.877 241.694C135.216 240.902 139.353 239.142 142.963 236.551C146.573 233.961 149.558 230.61 151.683 226.764C153.808 222.917 155.016 218.679 155.211 214.381C155.406 210.084 154.584 205.845 152.808 201.997C151.033 198.149 148.352 194.798 144.978 192.205L145.53 191.984Z" fill="black"/>
<path d="M192.09 386.817C189.703 391.904 185.862 396.25 181.054 399.306C176.246 402.363 170.684 403.993 165.071 403.992C159.458 403.991 154.045 402.359 149.514 399.3C144.982 396.242 141.536 391.894 139.61 386.807C137.683 381.719 137.363 376.118 138.689 370.711C140.015 365.304 142.928 360.332 147.06 356.423C151.193 352.513 156.36 349.842 161.91 348.744C167.46 347.647 173.145 348.173 178.247 350.257C181.655 351.648 184.719 353.7 187.261 356.294C189.804 358.888 191.775 361.973 193.062 365.371C194.349 368.77 194.925 372.414 194.758 376.095C194.592 379.775 193.685 383.419 192.09 386.817Z" fill="#0CB0C1"/>
<path opacity="0.2" d="M184.421 354.44C186.856 361.08 186.467 368.512 183.34 375.112C181.774 378.507 179.552 381.593 176.802 384.194C174.052 386.795 170.828 388.859 167.315 390.267C163.803 391.676 160.071 392.4 156.336 392.399C152.6 392.399 148.935 391.673 145.55 390.263C143.387 389.37 141.362 388.203 139.526 386.79C140.947 390.785 143.308 394.361 146.424 397.239C149.54 400.116 153.325 402.217 157.484 403.376C161.643 404.535 166.062 404.72 170.395 403.919C174.728 403.117 178.857 401.349 182.458 398.754C186.059 396.159 189.035 392.808 191.152 388.962C193.269 385.116 194.469 380.881 194.659 376.588C194.849 372.295 194.024 368.062 192.248 364.219C190.471 360.377 187.792 357.03 184.421 354.44Z" fill="black"/>
<path d="M503.564 677.221C501.189 682.321 497.355 686.682 492.547 689.753C487.739 692.823 482.173 694.466 476.552 694.473C470.932 694.48 465.509 692.851 460.969 689.792C456.43 686.733 452.978 682.381 451.049 677.287C449.12 672.193 448.801 666.584 450.133 661.171C451.464 655.758 454.387 650.782 458.53 646.874C462.673 642.966 467.852 640.299 473.411 639.213C478.97 638.126 484.66 638.667 489.762 640.768C493.153 642.165 496.2 644.215 498.729 646.804C501.258 649.392 503.219 652.466 504.501 655.852C505.783 659.237 506.36 662.867 506.199 666.534C506.038 670.201 505.143 673.832 503.564 677.221Z" fill="#0CB0C1"/>
<path opacity="0.2" d="M496.306 644.937C498.111 650.018 498.325 655.575 496.921 660.914C495.517 666.253 492.557 671.137 488.412 674.958C484.266 678.779 479.117 681.366 473.609 682.398C468.1 683.43 462.475 682.86 457.435 680.759C455.272 679.866 453.248 678.699 451.411 677.287C452.833 681.282 455.194 684.858 458.309 687.735C461.425 690.613 465.211 692.713 469.37 693.872C473.529 695.031 477.948 695.217 482.281 694.415C486.613 693.613 490.742 691.846 494.343 689.251C497.945 686.656 500.92 683.304 503.037 679.458C505.154 675.613 506.355 671.377 506.545 667.085C506.735 662.792 505.909 658.558 504.133 654.716C502.356 650.873 499.677 647.526 496.306 644.937Z" fill="black"/>
<path d="M434.405 -38.3705C334.702 173.786 429.006 420.42 607.253 552.751C612.094 558.518 615.947 565.021 618.674 572.026C632.327 568.939 645.818 565.087 659.077 560.489C472.834 418.866 373.123 212.763 460.096 -28.2447C464.854 -35.717 467.734 -44.1146 468.491 -52.7247C469.247 -61.3347 467.858 -69.9029 464.441 -77.7019C453.93 -74.7796 444.741 -71.1351 434.984 -67.2656C432.489 -66.2758 429.879 -65.2409 427.383 -64.251C433.336 -54.1489 438.648 -46.4094 434.405 -38.3705Z" fill="#D69630"/>
<path d="M337.664 -9.53564C301.022 21.1737 270.942 58.5411 249.278 100.265C352.1 236.854 449.042 394.735 470.1 571.116C494.945 576.292 520.425 578.78 546.081 578.536C454.104 396.978 323.48 201.612 337.664 -9.53564Z" fill="#FFD685"/>
<path d="M608.544 552.263C430.041 419.871 335.606 173.131 435.458 -39.1147C439.707 -47.157 434.388 -54.8999 428.426 -65.0064C394.317 -50.6467 362.531 -31.2367 334.25 -7.49727C320.126 203.452 450.417 398.583 542.133 580.443C568.206 580.272 594.306 577.251 619.939 571.438C617.21 564.47 613.366 558.002 608.544 552.263Z" fill="#EDB656"/>
<path d="M250.587 99.2444C247.217 105.568 244.003 111.955 241.102 118.469C335.358 245.412 426.619 402.269 429.734 559.085C443.545 563.85 457.695 567.754 472.098 570.772C451.295 394.057 353.896 235.993 250.587 99.2444Z" fill="#EDB656"/>
<path d="M228.701 337.287C231.497 347.66 234.677 358.007 238.581 368.191C249.083 395.983 263.508 422.096 281.458 445.812C283.823 424.361 280.168 402.946 270.879 383.84C261.591 364.734 247.016 348.648 228.701 337.287Z" fill="#D69630"/>
<path d="M219.006 290.313C220.75 306.018 223.712 321.523 227.866 336.698C246.216 347.984 260.846 364.013 270.204 383.082C279.562 402.151 283.298 423.549 281.016 445.006C290.76 457.815 301.506 469.863 313.165 481.05C315.475 443.466 308.072 406.333 291.629 373.024C275.185 339.714 250.222 311.284 219.006 290.313Z" fill="#EDB656"/>
<path d="M312.185 481.474C327.329 496.434 343.98 509.893 361.912 521.666C363.54 406.892 300.227 292.247 218.498 211.958C215.143 238.13 214.939 264.457 217.89 290.405C249.184 311.391 274.205 339.868 290.675 373.241C307.145 406.613 314.539 443.821 312.185 481.474Z" fill="#FFD685"/>
<path d="M243.588 117.938C229.958 148.435 220.921 180.502 216.764 213.123C298.147 293.179 361.815 408.06 360.188 522.837C382.272 536.928 406.071 548.437 431.116 557.136C427.871 401.255 337.216 244.664 243.588 117.938Z" fill="#0CB0C1"/>
<path d="M457.707 -26.2204C371.602 213.944 470.861 419.868 656.087 561.211C660.599 559.415 665.225 557.573 669.851 555.732C711.094 539.367 749.1 515.623 781.833 485.77C538.353 436.039 561.847 157.732 562.396 -27.3461C562.877 -49.2211 559.065 -70.7993 551.164 -90.9212C521.223 -89.5885 491.413 -84.4941 462.476 -75.7645C465.837 -67.9225 467.159 -59.3189 466.328 -50.6905C465.498 -42.062 462.54 -33.6657 457.707 -26.2204Z" fill="#0CB0C1"/>
<path d="M844.304 404.797C848.746 396.928 852.991 388.888 856.895 380.983C726.76 314.158 683.925 123.224 735.795 -24.4825C736.848 -29.0014 737.37 -33.5996 737.35 -38.1874C717.878 -49.9546 697.145 -59.734 675.466 -67.3774C679.916 108.983 665.786 307.169 844.304 404.797Z" fill="#D69630"/>
<path d="M826.271 434.632C833.402 424.826 840.139 414.676 846.253 404.273C666.708 306.667 681.08 107.702 676.79 -68.4139C667.356 -71.7975 657.706 -74.7209 647.911 -77.3375C672.331 104.048 641.5 355.563 826.271 434.632Z" fill="#EDB656"/>
<path d="M794.443 473.478C806.419 460.97 817.476 447.673 827.525 433.691C643.147 354.672 673.903 103.301 649.529 -77.9803C628.416 -83.4727 606.725 -86.9934 584.745 -88.4956C608.456 101.653 597.125 380.502 794.443 473.478Z" fill="#FFD685"/>
<path d="M587.081 -89.72C574.203 -90.7324 561.241 -91.0136 548.261 -90.562C556.222 -70.3883 560.061 -48.755 559.574 -26.8246C559.424 158.804 535.716 437.815 780.519 487.921C785.933 482.91 791.15 477.726 796.212 472.48C599.461 379.278 610.792 100.429 587.081 -89.72Z" fill="#EDB656"/>
<path d="M884.423 294.616C856.03 262.928 832.61 222.415 805.958 191.53C754.267 127.501 772.947 64.7836 784.635 -0.884919C769.599 -14.3573 753.326 -26.478 735.999 -37.1097C736.019 -32.526 735.499 -27.9319 734.449 -23.4169C682.731 124.161 725.566 314.88 855.227 381.686C868.844 353.883 878.662 324.601 884.423 294.616Z" fill="#0CB0C1"/>
<path d="M888.365 236.683C811.986 208.291 807.568 100.655 806.095 21.9113C798.887 14.0378 791.534 6.47093 783.582 -0.609172C771.717 65.203 752.938 128.014 804.998 192.099C831.44 223.167 854.975 263.743 883.849 295.345C887.082 275.878 888.593 256.252 888.365 236.683Z" fill="#D69630"/>
<path d="M885.32 201.748C826.951 189.294 831.41 123.291 841.025 71.0879C830.497 53.7808 818.301 37.5204 804.592 22.5125C806.406 101.127 810.484 208.908 886.886 237.302C887.195 225.454 886.77 213.398 885.32 201.748Z" fill="#EDB656"/>
<path d="M530.385 164.708C523.691 167.388 515.252 161.737 511.588 152.071C507.924 142.404 510.418 132.375 517.112 129.694C523.805 127.013 532.244 132.665 535.908 142.331C539.572 151.997 537.078 162.027 530.385 164.708Z" fill="#007272"/>
<path d="M556.793 358.764C550.21 361.4 541.772 355.748 538.107 346.082C534.443 336.415 536.978 326.493 543.56 323.857C550.142 321.221 558.652 326.72 562.316 336.386C565.981 346.053 563.486 356.083 556.793 358.764Z" fill="#007272"/>
<path d="M641.313 489.959C634.619 492.64 626.292 486.944 622.627 477.277C618.962 467.61 621.345 457.625 628.039 454.944C634.733 452.263 643.173 457.915 646.837 467.581C650.502 477.248 648.007 487.278 641.313 489.959Z" fill="#007272"/>
<path d="M774.697 206.228C768.003 208.909 759.676 203.213 756.011 193.546C752.347 183.88 754.77 174.002 761.464 171.321C768.158 168.64 776.556 174.184 780.22 183.851C783.885 193.517 781.39 203.547 774.697 206.228Z" fill="#007272"/>
<path d="M732.865 68.3601C730.522 69.2984 727.567 67.2652 726.264 63.8281C724.961 60.3909 725.799 56.8386 728.142 55.9003C730.485 54.962 733.552 56.9504 734.855 60.3876C736.158 63.8248 735.32 67.3771 732.865 68.3601Z" fill="#007272"/>
<path d="M754.975 96.3545C752.521 97.3374 749.565 95.3043 748.262 91.8671C746.959 88.4299 747.797 84.8776 750.252 83.8947C752.707 82.9117 755.55 84.9895 756.853 88.4267C758.156 91.8639 757.318 95.4162 754.975 96.3545Z" fill="#007272"/>
<path d="M751.25 -0.174152C748.907 0.764065 745.841 -1.22421 744.579 -4.55368C743.316 -7.88315 744.225 -11.5872 746.568 -12.5254C748.911 -13.4636 751.866 -11.4307 753.169 -7.99381C754.471 -4.55693 753.593 -1.11237 751.25 -0.174152Z" fill="#007272"/>
<path d="M537.399 29.8315C535.056 30.7698 531.989 28.7814 530.686 25.3442C529.383 21.907 530.333 18.31 532.676 17.3717C535.019 16.4334 537.974 18.4665 539.277 21.9037C540.58 25.3409 539.742 28.8932 537.399 29.8315Z" fill="#007272"/>
<path d="M495.405 79.3656C493.063 80.3039 490.148 78.3783 488.845 74.9414C487.543 71.5046 488.38 67.9526 490.723 67.0144C493.066 66.0762 496.132 68.0644 497.435 71.5013C498.738 74.9382 497.86 78.3827 495.405 79.3656Z" fill="#007272"/>
<path d="M465.785 57.8203C463.442 58.7586 460.375 56.7701 459.072 53.3329C457.769 49.8957 458.718 46.2988 461.061 45.3605C463.404 44.4222 466.36 46.4553 467.663 49.8925C468.966 53.3297 468.128 56.882 465.785 57.8203Z" fill="#007272"/>
<path d="M495.68 176.363C493.337 177.301 490.27 175.313 488.968 171.876C487.665 168.439 488.655 164.95 490.998 164.012C493.34 163.073 496.255 164.999 497.557 168.436C498.86 171.873 498.246 175.335 495.68 176.363Z" fill="#007272"/>
<path d="M544.532 115.494C542.078 116.477 539.164 114.552 537.861 111.115C536.558 107.678 537.396 104.126 539.85 103.143C542.305 102.16 545.148 104.238 546.451 107.675C547.754 111.112 546.875 114.556 544.532 115.494Z" fill="#007272"/>
<path d="M467.514 179.721C465.058 180.704 462.1 178.67 460.797 175.232C459.493 171.793 460.331 168.239 462.788 167.256C465.244 166.272 467.632 168.163 469.058 171.924C470.484 175.685 469.858 178.782 467.514 179.721Z" fill="#007272"/>
<path d="M510.528 257.381C508.185 258.319 505.23 256.287 503.927 252.85C502.625 249.413 503.503 245.968 505.846 245.03C508.189 244.092 511.214 245.973 512.517 249.41C513.82 252.846 512.871 256.443 510.528 257.381Z" fill="#007272"/>
<path d="M484.094 329.061C481.75 329.999 478.794 327.966 477.491 324.528C476.188 321.091 477.026 317.538 479.369 316.599C481.713 315.661 484.669 317.694 485.972 321.132C487.275 324.57 486.437 328.123 484.094 329.061Z" fill="#007272"/>
<path d="M325.567 267.566C323.223 268.505 320.267 266.471 318.964 263.034C317.661 259.596 318.499 256.043 320.843 255.105C323.186 254.166 326.142 256.2 327.445 259.637C328.749 263.075 327.91 266.628 325.567 267.566Z" fill="#007272"/>
<path d="M248.312 153.353C245.858 154.336 242.903 152.303 241.6 148.866C240.297 145.429 241.176 141.985 243.63 141.002C246.085 140.019 248.928 142.097 250.19 145.426C251.452 148.756 250.209 152.594 248.312 153.353Z" fill="#007272"/>
<path d="M343.006 344.934C340.663 345.872 337.749 343.947 336.446 340.51C335.143 337.073 335.981 333.521 338.324 332.583C340.666 331.645 343.733 333.633 345.036 337.07C346.339 340.507 345.46 343.951 343.006 344.934Z" fill="#007272"/>
<path d="M344.283 370.029C341.94 370.967 338.985 368.934 337.682 365.498C336.38 362.061 337.258 358.616 339.601 357.678C341.944 356.74 344.969 358.621 346.272 362.057C347.575 365.494 346.737 369.046 344.283 370.029Z" fill="#007272"/>
<path d="M365.494 415.307C363.04 416.29 360.126 414.364 358.823 410.927C357.52 407.49 358.358 403.938 360.812 402.956C363.267 401.973 366.11 404.05 367.413 407.487C368.716 410.924 367.837 414.369 365.494 415.307Z" fill="#007272"/>
<path d="M385.202 398.32C382.859 399.259 379.792 397.27 378.489 393.833C377.186 390.396 378.135 386.799 380.478 385.86C382.822 384.922 385.777 386.955 387.08 390.392C388.383 393.83 387.545 397.382 385.202 398.32Z" fill="#007272"/>
<path d="M408.725 471.681C406.382 472.62 403.427 470.587 402.124 467.149C400.821 463.712 401.659 460.16 404.002 459.222C406.345 458.283 409.412 460.272 410.715 463.709C412.018 467.146 411.068 470.743 408.725 471.681Z" fill="#007272"/>
<path d="M384.042 519.595C381.699 520.533 378.744 518.5 377.441 515.064C376.138 511.627 377.017 508.182 379.36 507.244C381.703 506.306 384.769 508.294 386.031 511.623C387.293 514.953 386.385 518.657 384.042 519.595Z" fill="#007272"/>
<path d="M291.112 223.068C288.769 224.006 285.814 221.973 284.552 218.644C283.29 215.314 284.087 211.655 286.43 210.717C288.773 209.778 291.839 211.767 293.142 215.203C294.445 218.64 293.566 222.085 291.112 223.068Z" fill="#007272"/>
<path d="M303.858 299.007C301.403 299.99 298.448 297.957 297.146 294.52C295.843 291.083 296.721 287.639 299.176 286.656C301.63 285.673 304.433 287.643 305.735 291.08C307.038 294.517 306.2 298.069 303.858 299.007Z" fill="#007272"/>
<path d="M317.649 294.497C315.306 295.435 312.349 293.402 311.046 289.964C309.743 286.527 310.581 282.974 312.925 282.035C315.268 281.097 318.224 283.131 319.527 286.568C320.831 290.006 319.993 293.559 317.649 294.497Z" fill="#007272"/>
<path d="M519.751 320.146C517.409 321.084 514.454 319.051 513.192 315.722C511.93 312.392 512.727 308.733 515.069 307.795C517.412 306.856 520.479 308.845 521.782 312.282C523.084 315.718 522.094 319.208 519.751 320.146Z" fill="#007272"/>
<path d="M593.738 367.884C591.395 368.823 588.439 366.789 587.135 363.352C585.832 359.914 586.67 356.361 589.014 355.423C591.357 354.484 594.313 356.518 595.617 359.955C596.92 363.393 596.082 366.946 593.738 367.884Z" fill="#007272"/>
<path d="M591.676 389.893C589.333 390.831 586.418 388.905 585.115 385.468C583.812 382.031 584.65 378.478 586.993 377.54C589.336 376.601 592.292 378.635 593.595 382.072C594.898 385.509 593.685 389.088 591.676 389.893Z" fill="#007272"/>
<path d="M749.389 504.526C747.047 505.464 744.092 503.432 742.789 499.995C741.486 496.558 742.365 493.113 744.707 492.175C747.05 491.237 750.076 493.118 751.379 496.555C752.681 499.991 751.732 503.588 749.389 504.526Z" fill="#007272"/>
<path d="M689.785 512.514C687.442 513.452 684.375 511.463 683.072 508.026C681.769 504.589 682.718 500.992 685.061 500.054C687.404 499.116 690.36 501.149 691.663 504.586C692.966 508.023 692.574 511.397 689.785 512.514Z" fill="#007272"/>
<path d="M602.416 492.57C600.057 493.512 596.507 489.961 594.539 484.785C592.571 479.61 592.842 474.534 595.201 473.593C597.561 472.651 601.182 476.049 603.191 481.332C605.199 486.616 604.888 491.583 602.416 492.57Z" fill="#007272"/>
<path d="M485.753 29.459C481.291 31.2461 475.767 27.5203 473.364 21.1835C470.962 14.8466 472.578 8.26149 477.04 6.47438C481.503 4.68726 486.915 8.45765 489.318 14.7945C491.72 21.1314 490.104 27.7165 485.753 29.459Z" fill="#007272"/>
<path d="M530.989 71.375C526.637 73.1175 521.112 69.3915 518.71 63.0542C516.308 56.7168 517.923 50.1312 522.275 48.3887C526.626 46.6461 532.151 50.3721 534.553 56.7094C536.956 63.0468 535.452 69.5877 530.989 71.375Z" fill="#007272"/>
<path d="M458.61 119.235C454.258 120.977 448.733 117.251 446.331 110.914C443.928 104.577 445.544 97.9911 449.896 96.2485C454.247 94.506 459.772 98.232 462.174 104.569C464.577 110.907 463.072 117.448 458.61 119.235Z" fill="#007272"/>
<path d="M520.934 219.961C516.583 221.703 511.059 217.978 508.657 211.641C506.255 205.305 507.911 198.827 512.262 197.085C516.612 195.342 522.207 198.916 524.609 205.253C527.011 211.589 525.396 218.174 520.934 219.961Z" fill="#007272"/>
<path d="M477.318 280.416C472.967 282.159 467.442 278.433 465.039 272.095C462.636 265.758 464.293 259.28 468.645 257.537C472.996 255.794 478.369 259.458 480.771 265.795C483.174 272.133 481.781 278.629 477.318 280.416Z" fill="#007272"/>
<path d="M545.132 290.548C540.782 292.29 535.257 288.564 532.855 282.227C530.453 275.891 532.069 269.305 536.419 267.563C540.77 265.821 546.406 269.502 548.808 275.838C551.21 282.175 549.595 288.76 545.132 290.548Z" fill="#007272"/>
<path d="M617.523 438.527C613.061 440.314 607.536 436.588 605.134 430.251C602.732 423.914 604.348 417.329 608.81 415.542C613.272 413.755 618.685 417.526 621.087 423.862C623.49 430.199 621.874 436.784 617.523 438.527Z" fill="#007272"/>
<path d="M721.594 506.753C717.242 508.496 711.718 504.77 709.315 498.433C706.913 492.095 708.529 485.51 712.88 483.767C717.231 482.025 722.756 485.751 725.159 492.088C727.561 498.425 725.945 505.011 721.594 506.753Z" fill="#007272"/>
<path d="M657.118 534.711C652.767 536.454 647.242 532.728 644.84 526.391C642.438 520.054 644.054 513.469 648.405 511.727C652.755 509.984 658.391 513.665 660.794 520.002C663.196 526.339 661.58 532.924 657.118 534.711Z" fill="#007272"/>
<path d="M528.331 390.078C523.869 391.865 518.386 388.247 515.984 381.911C513.582 375.574 515.197 368.989 519.659 367.202C524.121 365.415 529.534 369.185 531.936 375.522C534.338 381.859 532.681 388.336 528.331 390.078Z" fill="#007272"/>
<path d="M774.618 262.337C770.268 264.079 764.786 260.461 762.385 254.126C759.983 247.79 761.761 241.635 766.111 239.893C770.461 238.151 775.983 241.876 778.385 248.212C780.787 254.548 778.968 260.595 774.618 262.337Z" fill="#007272"/>
<path d="M760.468 43.1647C756.004 44.9523 750.589 41.1808 748.186 34.8423C745.783 28.5037 747.124 21.5318 751.589 19.7442C756.053 17.9567 761.468 21.7281 763.871 28.0666C766.274 34.4052 764.821 41.4218 760.468 43.1647Z" fill="#007272"/>
<path d="M740.722 136.449C736.371 138.191 730.887 134.573 728.485 128.236C726.082 121.899 727.698 115.314 732.049 113.571C736.4 111.829 741.925 115.554 744.327 121.891C746.729 128.229 745.073 134.706 740.722 136.449Z" fill="#007272"/>
<path d="M267.744 187.179C263.282 188.966 257.758 185.24 255.397 179.011C253.035 172.782 254.61 166.09 259.072 164.303C263.534 162.516 268.906 166.179 271.349 172.623C273.791 179.067 272.095 185.437 267.744 187.179Z" fill="#007272"/>
<path d="M293.232 270.061C288.881 271.803 283.356 268.077 280.954 261.741C278.552 255.404 280.168 248.819 284.519 247.076C288.869 245.334 294.505 249.015 296.907 255.352C299.31 261.689 297.694 268.274 293.232 270.061Z" fill="#007272"/>
<path d="M370.047 377.04C365.585 378.827 360.061 375.101 357.659 368.764C355.256 362.427 356.872 355.842 361.334 354.055C365.797 352.268 371.21 356.038 373.612 362.375C376.014 368.712 374.398 375.297 370.047 377.04Z" fill="#007272"/>
<path d="M381.922 477.411C377.571 479.154 372.047 475.428 369.644 469.091C367.242 462.754 368.858 456.169 373.209 454.427C377.56 452.684 383.195 456.365 385.598 462.702C388 469.039 386.83 475.446 381.922 477.411Z" fill="#007272"/>
<path d="M396.856 441.464C392.505 443.206 386.981 439.48 384.578 433.143C382.176 426.806 383.833 420.328 388.184 418.586C392.535 416.843 398.018 420.462 400.421 426.799C402.823 433.136 401.319 439.676 396.856 441.464Z" fill="#007272"/>
<path d="M405.245 515.156C402.121 516.407 398.171 513.783 396.42 509.164C394.669 504.546 395.892 499.973 399.016 498.722C402.139 497.471 406.09 500.096 407.8 504.607C409.51 509.118 408.369 513.905 405.245 515.156Z" fill="#007272"/>
<path d="M345.354 318.254C342.23 319.505 338.279 316.881 336.569 312.37C334.859 307.859 336 303.072 339.124 301.821C342.248 300.57 346.239 303.301 347.949 307.812C349.659 312.323 348.477 317.003 345.354 318.254Z" fill="#007272"/>
<path d="M245.346 188.849C242.221 190.1 238.382 187.431 236.631 182.812C234.88 178.193 235.991 173.665 239.115 172.414C242.239 171.163 246.19 173.787 247.901 178.299C249.611 182.811 248.581 187.553 245.346 188.849Z" fill="#007272"/>
<path d="M246.567 226.636C243.443 227.887 239.493 225.263 237.783 220.752C236.072 216.241 237.213 211.454 240.337 210.203C243.461 208.952 247.452 211.684 249.162 216.195C250.872 220.706 249.691 225.385 246.567 226.636Z" fill="#007272"/>
<path d="M450.683 143.475C447.559 144.726 443.608 142.102 441.898 137.591C440.188 133.08 441.329 128.293 444.453 127.042C447.577 125.791 451.527 128.415 453.278 133.034C455.029 137.652 453.806 142.224 450.683 143.475Z" fill="#007272"/>
<path d="M483.523 131.52C480.399 132.771 476.449 130.146 474.698 125.528C472.947 120.909 474.17 116.337 477.293 115.086C480.417 113.835 484.368 116.459 486.078 120.971C487.788 125.482 486.647 130.269 483.523 131.52Z" fill="#007272"/>
<path d="M542.535 236.928C539.411 238.179 535.461 235.555 533.751 231.044C532.042 226.533 533.223 221.854 536.347 220.603C539.47 219.352 543.42 221.976 545.13 226.487C546.84 230.998 545.658 235.677 542.535 236.928Z" fill="#007272"/>
<path d="M574.797 426.056C571.562 427.352 567.723 424.683 566.013 420.172C564.303 415.661 565.332 410.919 568.567 409.623C571.803 408.327 575.682 411.103 577.392 415.615C579.102 420.126 577.921 424.805 574.797 426.056Z" fill="#007272"/>
<path d="M595.184 452.216C592.06 453.467 588.069 450.736 586.359 446.225C584.649 441.714 585.83 437.034 588.954 435.783C592.078 434.532 596.028 437.156 597.738 441.667C599.448 446.178 598.308 450.965 595.184 452.216Z" fill="#007272"/>
<path d="M685.687 485.725C682.563 486.976 678.724 484.307 677.014 479.796C675.304 475.285 676.374 470.65 679.498 469.399C682.622 468.148 686.572 470.772 688.282 475.283C689.993 479.795 688.922 484.43 685.687 485.725Z" fill="#007272"/>
<path d="M688.011 540.142C684.887 541.393 680.937 538.769 679.227 534.258C677.516 529.747 678.88 524.87 681.781 523.709C684.682 522.547 688.896 525.189 690.606 529.701C692.316 534.212 691.358 538.802 688.011 540.142Z" fill="#007272"/>
<path d="M453.816 218.908C450.693 220.159 446.701 217.427 444.991 212.916C443.281 208.405 444.463 203.725 447.587 202.474C450.711 201.223 454.661 203.848 456.371 208.359C458.081 212.87 456.94 217.657 453.816 218.908Z" fill="#007272"/>
<path opacity="0.2" d="M891.268 208.045C842.113 245.617 784.16 270.013 723.487 278.677C662.814 287.341 601.655 279.953 546.423 257.287C491.191 234.621 443.921 197.513 409.568 149.854C375.215 102.194 355.045 45.7381 351.174 -13.5943C303.56 22.753 265.852 70.1771 241.759 124.01C217.666 177.843 208.02 236.23 213.771 293.422C219.521 350.615 240.469 404.642 274.554 450.186C308.638 495.73 354.683 531.221 408.158 553.165C461.632 575.11 520.691 582.751 579.523 575.337C638.355 567.923 694.931 545.71 743.683 510.883C792.434 476.056 831.68 429.817 857.558 376.717C883.436 323.617 895.054 265.485 891.268 208.045Z" fill="url(#paint0_linear_5_2107)"/>
<path opacity="0.7" d="M735.206 49.7975C725.917 64.1287 698.451 63.9171 673.878 49.7188C649.306 35.5205 636.706 11.7118 645.884 -2.57479C655.063 -16.8614 682.437 -17.2297 707.101 -2.45149C731.766 12.3268 744.91 35.5469 735.206 49.7975Z" fill="white"/>
<defs>
<linearGradient id="paint0_linear_5_2107" x1="625.138" y1="20.9" x2="436.92" y2="718.662" gradientUnits="userSpaceOnUse">
<stop/>
<stop offset="0.57"/>
<stop offset="0.61"/>
<stop offset="1" stop-color="#404040"/>
</linearGradient>
</defs>
</svg>
