<svg width="897" height="808" viewBox="0 0 897 808" fill="none" xmlns="http://www.w3.org/2000/svg">
<path d="M271.162 225.282L278.522 224.058C290.278 222.675 302.11 222.044 313.946 222.167C320.883 222.339 328.01 222.68 334.947 223.465C341.883 224.25 348.756 225.183 355.65 226.476C329.02 238.098 294.187 240.242 271.162 225.282Z" fill="#FFF871"/>
<path d="M228.946 235.037C233.917 233.051 239.12 231.953 244.09 230.58C253.016 228.345 262.052 226.576 271.162 225.281C294.315 240.559 329.444 237.928 355.735 226.686L360.324 227.428C373.262 230.134 385.974 233.829 398.346 238.482C355.228 284.041 275.67 277.076 228.946 235.037Z" fill="#FFA727"/>
<path d="M204.43 244.587L215.006 240.361C219.765 238.46 224.525 236.558 229.178 234.699C275.901 276.738 355.46 283.703 398.577 238.143C410.268 242.659 421.623 247.999 432.558 254.123C375.689 313.149 265.571 303.677 204.43 244.587Z" fill="#9E713B"/>
<path d="M273.895 330.645C235.239 318.005 193.182 297.159 165.7 266.441C170.312 263.249 175.388 259.994 179.915 257.204L189.942 251.603C194.807 249.659 199.439 246.827 204.325 244.629C265.466 303.719 375.584 313.191 432.22 254.503C437.59 257.508 442.94 260.767 448.289 264.026C411.892 322.721 333.106 343.165 273.895 330.645Z" fill="#B75F00"/>
<path d="M157.069 272.465C159.946 270.457 162.78 268.343 165.699 266.441C193.287 297.117 235.345 317.963 273.894 330.645C333.106 343.165 412.103 322.637 448.183 264.068C450.805 265.719 453.469 267.475 455.921 269.316C462.391 273.844 468.565 278.858 474.717 284.127C478.861 287.745 482.984 291.616 487.001 295.53L490.806 299.529C395.649 383.666 242.052 369.124 157.069 272.465Z" fill="#FFA727"/>
<path d="M126.563 299.25C135.504 290.066 145.083 281.525 155.228 273.691L157.026 272.36C242.052 369.124 395.649 383.666 490.806 299.529C496.818 305.567 502.479 311.945 507.76 318.632C509.895 321.213 511.904 324.09 513.869 326.861C399.55 414.608 217.59 407.352 126.563 299.25Z" fill="#FFF871"/>
<path d="M103.776 326.629C110.192 317.624 117.226 309.076 124.828 301.047L126.563 299.25C217.59 407.352 399.551 414.608 514.039 327.284C515.561 329.252 517.083 331.219 518.499 333.229C523.001 339.892 527.165 346.936 531.117 354.065C405.863 446.672 230.276 416.387 103.776 326.629Z" fill="#FFA727"/>
<path d="M84.35 357.817C87.4398 352.044 90.5718 346.377 94.1056 340.796C97.6395 335.214 100.369 331.302 103.776 326.629C230.276 416.387 405.862 446.672 531.117 354.065C533.78 358.888 536.612 364.133 538.831 368.766C541.05 373.398 542.338 377.544 544.071 381.88C545.085 384.418 546.057 386.851 547.029 389.283C548.001 391.715 548.55 393.09 549.311 394.994C417.5 490.221 213.403 464.706 84.35 357.817Z" fill="#9E713B"/>
<path d="M72.773 383.17C73.2175 382.134 73.4505 381.182 73.7892 380.188C76.9854 372.534 80.1391 365.386 84.3504 357.817C213.403 464.706 417.5 490.221 549.1 395.079C550.368 398.251 551.593 401.318 552.226 404.745C554.043 411.132 555.606 417.498 556.957 423.949C557.928 428.222 558.688 432.579 559.3 436.872C412.92 524.184 203.264 491.202 72.773 383.17Z" fill="#B75F00"/>
<path d="M62.4611 415.988C65.1645 404.831 68.6092 393.867 72.7723 383.169C203.263 491.201 412.919 524.184 559.299 436.871C559.827 440.34 560.312 443.703 560.691 447.108C561.894 457.299 562.469 467.554 562.414 477.816C562.334 478.561 562.306 479.31 562.329 480.058C448.628 554.312 311.377 543.541 190.87 491.493C145.868 470.267 102.888 444.995 62.4611 415.988Z" fill="#FFF871"/>
<path d="M55.563 488.039C54.9613 476.776 55.1208 465.485 56.0405 454.244C56.9642 443.642 58.5288 433.105 60.7257 422.692L62.4623 415.988C102.854 445.004 145.798 470.29 190.765 491.535C311.061 543.054 448.841 554.228 562.224 480.1C562.074 487.396 561.606 494.82 560.842 502.116C559.841 511.674 558.312 521.169 556.263 530.559C395.458 624.126 205.894 587.407 55.563 488.039Z" fill="#FFA727"/>
<path d="M72.3259 568.051C66.3421 552.76 61.8987 536.91 59.0615 520.736C58.365 516.845 57.732 512.805 57.3738 509.146C177.349 628.616 390.819 644.131 543.665 572.386C541.4 578.074 538.881 583.741 536.172 589.239C532.123 597.345 527.608 605.21 522.649 612.794C379.492 676.252 221.984 658.367 83.1876 592.164C79.6794 585.226 76.277 578.246 73.3188 570.843C72.7694 569.468 72.5794 568.685 72.3259 568.051Z" fill="#FFA727"/>
<path d="M522.311 611.948C520.174 615.5 517.994 618.947 515.667 622.33C508.44 632.641 500.448 642.394 491.758 651.506L487.189 656.03C363.455 694.434 213.195 691.927 106.057 628.527C97.2827 616.849 89.5321 604.435 82.8917 591.424C221.645 657.521 379.154 675.406 522.311 611.948Z" fill="#FFF871"/>
<path d="M321.78 729.484C282.851 731.354 244.012 724.257 208.261 708.738C269.228 722.274 335.47 710.645 398.745 713.079C374.103 722.529 348.134 728.064 321.78 729.484Z" fill="#FFA727"/>
<path d="M152.589 675.917C255.389 704.447 364.079 703.974 466.626 674.55C459.016 680.676 451.033 686.324 442.722 691.46C430.24 699.307 417.071 706.006 403.378 711.474L399.254 713.122C335.978 710.688 269.736 722.317 208.769 708.781C188.852 700.331 170.134 689.295 153.097 675.96L152.589 675.917Z" fill="#9E713B"/>
<path d="M487.188 656.03C480.521 662.619 473.516 668.856 466.202 674.718C363.771 704.007 255.239 704.422 152.588 675.917C136.233 663.164 121.501 648.457 108.72 632.123C108.171 630.748 106.881 629.669 105.972 628.315C213.321 692.244 363.455 694.434 487.188 656.03Z" fill="#FFA727"/>
<path d="M57.0352 508.914C56.3814 503.901 55.7911 498.741 55.4968 493.707C54.8207 492.015 55.3501 489.964 55.3508 488.124C205.47 587.576 395.245 624.211 555.84 530.728L554.462 537.41C552.383 545.605 549.881 553.686 546.967 561.623C545.866 565.006 544.469 568.263 543.115 571.625C390.691 643.814 177.222 628.299 57.0352 508.914Z" fill="#9E713B"/>
<path opacity="0.2" d="M152.373 276.672C154.763 300.675 160.499 324.225 169.415 346.638C194.514 408.963 243.297 458.797 305.074 485.217C366.851 511.637 436.583 512.489 498.987 487.585C521.415 478.604 542.471 466.516 561.536 451.676C565.855 495.566 558.664 539.824 540.674 580.089C522.683 620.355 494.513 655.239 458.939 681.305C423.365 707.371 381.613 723.72 337.798 728.74C293.983 733.761 249.616 727.281 209.067 709.938C168.519 692.595 133.188 664.987 106.555 629.835C79.9225 594.683 62.907 553.199 57.1849 509.47C51.4628 465.741 57.2315 421.276 73.9227 380.454C90.6139 339.633 117.652 303.864 152.373 276.672Z" fill="url(#paint0_linear_30_75)"/>
<path d="M176.066 256.78C161.549 265.874 148.022 276.459 135.703 288.362C-28.2564 271.828 -148.536 291.559 -160.948 343.982C-173.36 396.405 -80.9011 464.199 64.4327 522.515C134.793 550.411 207.067 573.217 280.695 590.755C354.195 608.692 428.901 621.265 504.223 628.374C660.232 642.198 773.765 622.465 786.029 571.205C798.292 519.945 699.364 446.397 546.502 387.041C540.815 370.856 533.523 355.281 524.735 340.548C745.944 416.256 894.688 518.097 876.495 592.577C859.296 664.328 692.044 688.969 472.065 661.461C404.958 652.842 338.367 640.598 272.583 624.78C206.735 609.306 141.788 590.22 78.0362 567.609C-130.462 492.097 -268.465 394.425 -251.308 322.568C-233.496 248.364 -55.0772 224.657 176.066 256.78Z" fill="#FFA727"/>
<path d="M135.703 288.362C128.711 294.971 122.146 302.018 116.049 309.461C113.721 312.231 111.542 315.064 109.363 317.897C1.40093 311.979 -74.0841 327.179 -82.5987 362.959C-91.1133 398.74 -34.599 443.489 58.8205 485.757C132.555 518.265 209.161 543.824 287.643 562.101C365.797 581.375 445.581 593.306 525.954 597.738C628.566 602.237 699.525 586.76 707.891 552.143C716.258 517.526 656.044 468.735 557.062 425.133C556.514 421.51 555.838 417.978 555.036 414.537C552.859 405.166 550.187 395.917 547.031 386.83C700.549 446.291 799.202 518.232 786.558 570.994C773.913 623.755 660.761 641.987 504.752 628.163C429.43 621.054 354.724 608.481 281.224 590.544C207.283 573.173 134.69 550.495 64.0099 522.684C-81.8527 464.579 -173.571 395.263 -161.371 344.151C-149.171 293.039 -28.2562 271.828 135.703 288.362Z" fill="#FFF871"/>
<path d="M109.531 318.32C105.913 323.077 102.38 328.045 99.0998 333.035C94.6349 339.97 90.4026 347.181 86.6143 354.581C28.0329 353.461 -10.1645 361.61 -14.4853 379.648C-18.8061 397.687 9.7574 420.982 59.8286 445.617C135.767 480.525 215.172 507.334 296.728 525.601C377.705 546.291 460.64 558.372 544.155 561.643C599.966 562.276 635.921 554.041 640.2 536.511C644.478 518.98 614.181 493.802 561.467 468.384C561.343 460.093 560.923 451.676 559.974 443.47C559.405 437.442 558.604 431.753 557.421 425.725C656.403 469.327 716.596 517.145 708.25 552.735C699.905 588.325 628.925 602.829 526.313 598.33C445.8 593.726 365.895 581.597 287.642 562.101C209.16 543.823 132.554 518.265 58.8202 485.756C-34.6839 443.277 -91.0497 397.365 -82.6836 362.747C-74.3174 328.13 1.5696 312.401 109.531 318.32Z" fill="#B75F00"/>
<path opacity="0.7" d="M396.188 296.006C388.317 307 397.721 326.545 416.792 339.897C435.863 353.248 457.498 354.906 465.115 343.89C472.733 332.874 463.477 313.393 444.448 300.147C425.419 286.901 403.805 284.99 396.188 296.006Z" fill="white"/>
<path d="M-94.6747 714.255C-81.9969 745.983 -56.2839 756.313 -24.6621 743.677C-4.88524 735.775 30.9863 726.101 35.1173 706.667C37.617 695.121 21.214 671.873 16.4809 660.028C9.29683 642.049 -12.1658 632.842 -29.3577 627.569C-42.405 623.462 -54.3796 635.851 -68.0224 641.302C-83.8862 647.641 -108.463 653.66 -114.686 668.165C-120.909 682.671 -100.971 698.497 -94.6747 714.255Z" fill="#FFB208"/>
<path d="M-37.109 659.733C-42.0168 663.411 -56.5253 664.548 -59.6137 666.641C-62.7022 668.733 -64.5843 668.627 -61.7308 673.006C-58.8773 677.384 -55.3245 677.682 -54.7979 683.604C-54.7261 688.701 -56.3662 693.675 -59.4557 697.729C-61.466 700.985 -62.4608 703.1 -60.2004 710.291C-57.9401 717.483 -25.4125 714.787 -18.749 710.285C-12.0856 705.783 -0.87147 690.877 -3.19463 681.994C-5.51779 673.11 -3.12297 659.153 -10.948 659.214C-18.773 659.275 -29.451 653.73 -37.109 659.733Z" fill="#FFD00B"/>
<path opacity="0.5" d="M-15.8249 694.89C-17.979 686.43 -15.7955 671.944 -23.4725 672.068C-31.1495 672.192 -41.8701 667.155 -49.6126 672.947C-52.4147 674.668 -55.4909 675.897 -58.7078 676.581C-59.8215 675.584 -60.8084 674.455 -61.6463 673.217C-64.4152 669.05 -62.5118 668.902 -59.5291 666.852C-56.5464 664.802 -41.9322 663.623 -37.0244 659.945C-29.3664 653.941 -19.492 659.316 -10.9902 659.108C-2.48835 658.9 -5.24292 673.491 -3.23682 681.888C-1.23071 690.285 -12.2335 705.719 -18.7912 710.179L-20.5891 710.898C-17.1382 706.303 -15.448 700.624 -15.8249 694.89Z" fill="#FFFA94"/>
<path d="M5.93169 650.506C5.93169 650.506 0.985175 644.266 -3.68966 646.992C-8.36449 649.719 -5.80621 651.517 -4.96169 655.472C-4.11716 659.427 -3.69391 658.645 -2.19492 665.773C-0.377747 671.897 0.70619 678.216 1.03409 684.596C0.989849 690.01 -2.98711 692.949 -3.22097 696.353C-3.45483 699.758 -10.6274 708.511 -0.41266 708.599C9.80211 708.688 27.3151 703.407 28.5859 697.993C29.8568 692.58 28.272 688.92 23.7697 682.257C20.0829 676.544 17.1293 670.389 14.9784 663.939C12.5333 659.103 9.49429 654.59 5.93169 650.506Z" fill="#FFD00B"/>
<path opacity="0.5" d="M18.2443 698.201C19.6209 692.746 17.9303 689.129 13.4281 682.465C9.79051 676.724 6.83983 670.576 4.63677 664.147C2.19164 659.311 -0.847389 654.798 -4.40998 650.714C-4.96464 650.045 -5.58042 649.429 -6.24929 648.874C-5.6768 647.914 -4.82919 647.148 -3.81635 646.675C0.858481 643.949 5.805 650.189 5.805 650.189C9.36759 654.273 12.4066 658.786 14.8517 663.622C17.0026 670.073 19.9562 676.227 23.643 681.94C28.1453 688.603 29.5611 691.84 28.4593 697.676C27.3574 703.513 9.84466 708.181 -0.539368 708.283L-3.07709 708.07C6.69407 706.741 17.3544 702.727 18.2443 698.201Z" fill="#FFFA94"/>
<path d="M27.924 713.834C23.0939 718.936 17.4897 723.245 11.3178 726.602C7.341 728.927 -4.9697 734.95 -5.941 730.677C-6.9123 726.405 -5.49516 725.961 -5.1551 721.288C-4.81504 716.614 -9.36155 715.365 -8.00683 712.002C-6.65211 708.64 -5.78592 711.115 -0.371656 710.546C5.86684 711.033 12.1426 710.434 18.1763 708.776C22.4281 706.219 24.0993 705.183 28.1606 703.07C32.2219 700.956 30.1881 710.599 27.924 713.834Z" fill="#FFD00B"/>
<g opacity="0.5">
<path d="M-6.12881 725.602C-0.515873 725.117 4.89008 723.252 9.60773 720.172C15.6912 716.787 21.2086 712.472 25.9602 707.383C26.758 706.038 27.377 704.595 27.8017 703.091C31.7148 701.527 29.7236 710.662 27.4595 713.897C22.6294 719 17.0251 723.308 10.8532 726.665C6.87639 728.99 -5.54007 735.055 -6.40562 730.741C-6.76761 729.033 -6.6721 727.26 -6.12881 725.602Z" fill="#FFFA94"/>
</g>
<path opacity="0.7" d="M1.09234 698.555C1.85301 700.458 4.8133 701.728 8.34537 701.053C11.8774 700.377 14.7966 698.475 14.29 695.979C13.7833 693.484 10.5267 692.7 6.88891 693.418C3.25109 694.135 0.606688 696.418 1.09234 698.555Z" fill="white"/>
<path opacity="0.7" d="M-3.21132 727.992C-2.78873 729.05 -0.90654 729.156 0.849095 728.332C2.60473 727.508 3.70507 725.964 3.28247 724.907C2.85988 723.849 0.977669 723.743 -0.883724 724.609C-2.74512 725.476 -3.63391 726.935 -3.21132 727.992Z" fill="white"/>
<path opacity="0.5" d="M226.67 154.756C229.051 151.448 230.573 147.6 231.098 143.558C231.624 139.516 231.137 135.406 229.681 131.599C231.902 130.712 233.277 130.162 234.926 131.22C236.575 132.278 239.467 147.189 233.162 155.35C224.626 164.9 214.018 172.369 202.15 177.186C199.401 178.285 197.751 177.227 197.117 176.254C208.294 171.114 218.339 163.807 226.67 154.756Z" fill="#FFFA94"/>
<path d="M155.161 165.178C180.045 188.471 207.666 187.001 231.001 162.223C245.6 146.578 273.926 122.627 269.513 103.296C266.979 92.0436 242.029 77.4843 232.833 68.8947C218.668 55.5448 195.087 56.3823 177.511 58.7446C164.018 60.5797 158.26 76.8621 148.316 87.5809C136.595 99.9909 116.815 115.866 116.958 131.876C117.1 147.886 142.667 153.245 155.161 165.178Z" fill="#FFB208"/>
<path d="M200.351 61.2697C208.345 62.8588 205.507 74.1723 199.52 79.1401C196.495 81.2294 192.949 82.4362 189.277 82.6253C185.606 82.8145 181.954 81.9786 178.731 80.2112C172.218 76.1906 167.823 67.0317 176.727 63.8414C184.408 61.6977 192.389 60.8289 200.351 61.2697Z" fill="#FFD00B"/>
<path opacity="0.5" d="M197.685 66.8725C189.76 66.4295 181.816 67.2839 174.166 69.4019C173.191 69.5983 172.259 69.9706 171.417 70.5007C171.236 69.6768 171.22 68.8253 171.371 67.9954C171.521 67.1655 171.835 66.3736 172.293 65.6657C172.752 64.9578 173.346 64.3479 174.042 63.8712C174.738 63.3946 175.521 63.0607 176.347 62.8889C183.999 60.7848 191.941 59.9307 199.865 60.3595C206.104 61.5461 205.974 68.5885 202.652 74.086C202.931 72.473 202.567 70.815 201.639 69.4668C200.71 68.1186 199.291 67.1875 197.685 66.8725Z" fill="#FFFA94"/>
<path d="M164.563 73.607C168.117 71.4511 174.143 76.4021 174.606 81.8586C175.069 87.3151 178.452 91.4826 173.247 97.487C170.113 100.908 166.334 103.675 162.126 105.63C157.919 107.585 153.367 108.688 148.731 108.877C142.133 107.712 136.001 105.87 139.323 100.372C142.646 94.8747 148.505 92.6562 153.201 87.836C160.543 80.1194 160.904 75.8052 164.563 73.607Z" fill="#FFD00B"/>
<path opacity="0.5" d="M173.482 89.7892C172.892 84.0154 166.803 79.2125 163.44 81.5376C160.076 83.8628 159.483 87.902 152.268 95.9359C148.608 99.9739 143.532 102.002 139.998 106.358C139.493 106.079 139.059 105.687 138.73 105.214C138.4 104.74 138.184 104.197 138.099 103.626C138.013 103.055 138.06 102.473 138.236 101.923C138.411 101.374 138.711 100.872 139.112 100.457C142.625 94.5154 148.293 92.741 152.948 87.815C160.31 79.8446 160.354 75.6572 164.225 73.3745C168.096 71.0919 173.91 76.1273 174.374 81.5839C174.837 87.0404 177.797 90.1503 174.517 95.1402C174.327 93.7443 173.714 91.9042 173.482 89.7892Z" fill="#FFFA94"/>
<path d="M140.863 112.513C139.28 111.75 137.541 111.365 135.784 111.386C134.026 111.407 132.297 111.835 130.733 112.636C128.433 114.196 126.497 116.233 125.055 118.608C123.612 120.983 122.698 123.641 122.374 126.401C122.101 130.088 122.889 133.777 124.645 137.031C126.402 140.284 129.053 142.967 132.286 144.761C140.681 148.275 145.567 147.304 149.732 150.055C153.897 152.806 157.47 158.369 165.319 148.242C173.169 138.114 181.104 126.358 173.048 120.624C164.993 114.89 159.514 117.447 153.339 117.339C148.812 116.925 144.49 115.254 140.863 112.513Z" fill="#FFD00B"/>
<path opacity="0.5" d="M170.19 130.351C162.367 124.279 156.698 127.28 150.628 127.129C146.128 126.934 141.772 125.49 138.046 122.959C136.46 122.219 134.725 121.855 132.976 121.895C131.226 121.935 129.509 122.377 127.958 123.188C125.876 124.584 124.093 126.381 122.712 128.473C122.5 127.944 122.331 127.521 122.162 127.098C122.612 124.294 123.659 121.62 125.233 119.256C126.806 116.892 128.869 114.894 131.282 113.397C132.836 112.62 134.548 112.208 136.285 112.194C138.023 112.18 139.74 112.564 141.307 113.316C145.089 115.853 149.488 117.317 154.037 117.55C160.635 117.489 165.817 114.805 173.64 120.878C178.63 124.771 177.613 130.819 173.782 137.501C173.844 136.101 173.546 134.709 172.917 133.458C172.288 132.206 171.349 131.137 170.19 130.351Z" fill="#FFFA94"/>
<path d="M184.417 91.0622C181.56 96.4964 168.847 103.661 167.048 106.833C165.249 110.005 163.493 110.829 167.764 113.537C172.036 116.246 175.462 114.999 178.4 120.203C180.599 124.742 181.229 129.882 180.192 134.817C179.726 138.56 179.682 140.908 184.798 146.345C189.915 151.782 218.196 135.698 222.301 128.784C226.407 121.87 229.48 103.472 223.539 96.8922C217.599 90.3128 213.924 76.2053 206.944 79.6078C199.964 83.0102 188.501 82.5619 184.417 91.0622Z" fill="#FFD00B"/>
<path opacity="0.5" d="M218.119 114.021C212.644 107.378 208.504 93.3337 201.312 96.2073C194.121 99.081 182.489 99.4363 178.087 108.063C176.232 110.8 173.903 113.184 171.211 115.103C169.804 114.643 168.45 114.032 167.172 113.283C162.901 110.575 164.509 109.687 166.456 106.579C168.402 103.471 181.242 96.6231 184.416 91.0621C188.818 82.4351 199.964 83.0101 207.684 79.3119C215.405 75.6136 218.804 89.9536 224.491 97.1251C230.177 104.296 226.554 122.546 222.407 129.355L221.201 130.941C222.352 125.114 221.251 119.067 218.119 114.021Z" fill="#FFFA94"/>
<path d="M173.422 143.042C173.422 143.042 175.58 141.075 177.905 143.826C180.709 147.147 184.072 149.954 187.842 152.119C191.373 153.897 197.253 152.652 195.029 161.512C192.805 170.373 189.737 175.891 183.202 176.418C179.92 176.979 176.549 176.709 173.399 175.633C170.248 174.557 167.417 172.709 165.164 170.257C161.634 165.413 153.746 162.555 157.428 158.263C161.109 153.971 160.495 157.037 165.551 152.809C168.721 150.034 171.384 146.729 173.422 143.042Z" fill="#FFD00B"/>
<path opacity="0.5" d="M188.283 159.056C184.553 156.86 181.228 154.041 178.452 150.72C176.021 148.012 173.969 149.936 173.969 149.936C171.914 153.855 169.161 157.366 165.844 160.296C161.211 164.354 161.297 162.113 158.314 164.776C156.517 163.042 155.544 161.222 157.258 159.066C160.707 154.499 160.325 157.84 165.381 153.612C168.698 150.683 171.451 147.172 173.506 143.252C173.506 143.252 175.664 141.286 177.989 144.037C180.794 147.358 184.157 150.165 187.926 152.33C191.457 154.108 197.337 152.863 195.113 161.723C193.612 160.115 190.546 160.114 188.283 159.056Z" fill="#FFFA94"/>
<path d="M218.469 138.533C209.056 144.134 203.854 141.552 200.065 152.019C197.942 158.613 196.549 165.421 195.912 172.32C195.213 175.788 195.297 178.453 201.155 177.461C212.997 172.595 223.594 165.133 232.167 155.626C238.472 147.464 237.378 133.675 233.931 131.496C230.485 129.316 227.776 132.974 218.469 138.533Z" fill="#FFD00B"/>
<path d="M219.193 64.5329C219.193 64.5329 212.025 61.0196 208.894 65.4597C205.762 69.8998 208.934 70.472 211.323 73.6874C213.711 76.9029 213.881 76.0993 218.362 81.7899C222.592 86.6001 226.232 91.8979 229.206 97.5707C231.192 102.541 229.097 106.813 230.048 109.499C230.998 112.185 228.393 123.774 237.552 118.765C246.711 113.756 260.483 102.488 259.364 96.9259C258.245 91.3634 255.18 88.9091 248.371 84.7615C242.773 81.4121 237.616 77.3746 233.022 72.7435C228.752 69.4719 224.11 66.7159 219.193 64.5329Z" fill="#FFD00B"/>
<path opacity="0.5" d="M250.353 102.612C249.276 97.1553 246.274 94.553 239.36 90.4476C233.588 86.8083 228.303 82.4501 223.63 77.4779C219.498 74.3418 215.022 71.6866 210.288 69.5635C209.481 69.1812 208.628 68.9037 207.751 68.7377C207.878 67.6243 208.302 66.5654 208.978 65.6716C212.11 61.2315 219.278 64.7448 219.278 64.7448C224.155 66.8672 228.768 69.5518 233.022 72.7439C237.676 77.7357 242.964 82.0961 248.752 85.7137C255.56 89.8613 258.668 92.4214 259.745 97.8781C260.821 103.335 247.705 115.935 237.975 119.823L235.648 120.752C243.2 115.404 252.086 106.948 250.353 102.612Z" fill="#FFFA94"/>
<path d="M265.915 112.705C263.717 119.368 260.466 125.635 256.286 131.27C253.725 134.991 245.05 145.816 242.387 142.22C239.724 138.624 240.654 137.884 238.922 133.548C237.189 129.212 232.578 129.95 232.368 126.355C232.158 122.759 234.061 124.452 238.63 121.768C244.482 119.526 249.916 116.318 254.706 112.278C256.756 109.024 258.981 105.883 261.371 102.869C264.439 99.1903 266.424 108.454 265.915 112.705Z" fill="#FFD00B"/>
<g opacity="0.5">
<path d="M239.893 137.821C244.857 135.096 249.066 131.18 252.142 126.426C256.25 120.715 259.481 114.421 261.729 107.755C261.914 106.22 261.872 104.667 261.604 103.145C264.333 99.8463 266.466 109.174 265.576 113.086C263.439 119.799 260.199 126.109 255.989 131.757C253.429 135.478 244.712 146.197 242.09 142.707C240.872 141.343 240.105 139.637 239.893 137.821Z" fill="#FFFA94"/>
</g>
<path opacity="0.7" d="M185.097 138.499C185.858 140.403 188.713 141.715 192.393 141.103C196.073 140.491 198.844 138.525 198.274 136.177C197.704 133.83 194.764 132.919 191.084 133.531C187.404 134.143 184.717 136.321 185.097 138.499Z" fill="white"/>
<path opacity="0.7" d="M235.103 110.177C236.392 111.869 239.797 111.49 242.843 109.292C245.89 107.093 247.223 103.985 245.934 102.293C244.644 100.6 241.197 100.874 238.256 103.03C235.316 105.186 233.919 108.443 235.103 110.177Z" fill="white"/>
<path opacity="0.7" d="M191.146 77.2119C192.499 78.143 194.995 77.023 196.857 74.9299C198.719 72.8369 198.868 69.8338 197.515 68.9028C196.162 67.9718 193.624 68.986 191.804 71.1848C189.984 73.3836 190.724 76.1543 191.146 77.2119Z" fill="white"/>
<path opacity="0.7" d="M160.856 93.4854C162.251 94.5222 164.747 93.4022 166.567 91.2034C168.386 89.0046 168.577 86.1073 167.224 85.1762C165.871 84.2452 163.333 85.2594 161.513 87.4582C159.694 89.657 159.502 92.5543 160.856 93.4854Z" fill="white"/>
<path opacity="0.7" d="M133.495 137.042C134.975 136.451 136.52 134.484 136.352 131.608C136.183 128.732 134.852 126.32 133.16 126.383C131.468 126.446 130.135 128.941 130.303 131.817C130.471 134.694 131.76 136.999 133.495 137.042Z" fill="white"/>
<path opacity="0.7" d="M175.294 170.134C175.886 171.614 178.085 172.82 180.982 172.399C183.88 171.977 186.059 170.37 185.806 168.509C185.553 166.648 182.909 165.864 180.012 166.286C177.114 166.708 174.978 168.42 175.294 170.134Z" fill="white"/>
<path opacity="0.7" d="M222.122 154.733C223.411 155.812 225.992 154.903 227.833 152.451C229.673 149.998 230.288 147.545 228.998 146.466C227.708 145.387 225.128 146.296 223.287 148.748C221.446 151.201 221.572 153.358 222.122 154.733Z" fill="white"/>
<path opacity="0.7" d="M243.657 138.647C244.037 139.599 246.258 138.711 247.57 137.083C248.882 135.455 249.073 133.784 248.269 133.002C247.466 132.219 245.668 132.937 244.462 134.523C243.256 136.109 242.853 137.864 243.657 138.647Z" fill="white"/>
<path d="M167.546 215V203.156H161.624V199.88H176.744V203.156H170.822V215H167.546ZM177.81 215V202.82H181.023V215H177.81ZM177.81 202.064V198.83H181.023V202.064H177.81ZM185.686 215C185.126 215 184.615 214.86 184.153 214.58C183.691 214.3 183.32 213.929 183.04 213.467C182.76 213.005 182.62 212.501 182.62 211.955V199.208H185.833V202.82H190.348V206.033H185.833V211.787H190.348V215H185.686ZM195.335 215C194.775 215 194.264 214.86 193.802 214.58C193.34 214.3 192.969 213.929 192.689 213.467C192.423 213.005 192.29 212.501 192.29 211.955V207.293H201.425V206.033H192.29V202.82H201.593C202.153 202.82 202.664 202.96 203.126 203.24C203.588 203.52 203.952 203.891 204.218 204.353C204.498 204.815 204.638 205.319 204.638 205.865V215H195.335ZM195.503 211.787H201.425V210.107H195.503V211.787ZM206.308 215V202.82H215.611C216.171 202.82 216.682 202.96 217.144 203.24C217.606 203.52 217.97 203.891 218.236 204.353C218.516 204.815 218.656 205.319 218.656 205.865V215H215.443V206.033H209.521V215H206.308Z" fill="white"/>
<defs>
<linearGradient id="paint0_linear_30_75" x1="398.167" y1="323.055" x2="123.573" y2="792.372" gradientUnits="userSpaceOnUse">
<stop/>
<stop offset="0.57"/>
<stop offset="0.61"/>
<stop offset="1" stop-color="#404040"/>
</linearGradient>
</defs>
</svg>
