<svg width="521" height="706" viewBox="0 0 521 706" fill="none" xmlns="http://www.w3.org/2000/svg">
<circle opacity="0.1" cx="168" cy="353" r="353" fill="#D9D9D9"/>
<circle opacity="0.3" cx="168" cy="353" r="338" fill="#D9D9D9"/>
<path d="M183.106 31.2959C177.469 31.2959 171.832 31.2959 166.194 31.2959C101.929 31.2959 41.0467 50.496 -9.68883 83.2493C-1.79664 86.6375 4.96809 90.0258 11.7328 93.4141C74.8704 116.002 136.88 86.6375 183.106 31.2959Z" fill="#FCFCFC"/>
<path d="M182.102 31.2959C137.004 86.6375 73.8666 116.002 11.8565 92.2846C5.09181 88.8964 -1.67294 85.5081 -9.56512 82.1199C-38.879 101.32 -63.683 123.908 -85.1047 149.885C-68.1928 141.979 -50.1535 135.203 -33.2417 128.426C31.0233 110.355 104.308 192.803 140.387 137.462C178.72 88.8964 228.328 60.6609 279.064 50.4961C247.495 40.3313 215.926 33.5547 182.102 31.2959Z" fill="#EFEFEF"/>
<path d="M279.944 48.6155C229.208 58.7803 179.6 88.1452 141.267 135.581C104.06 190.923 30.7758 108.475 -32.3617 126.546C-49.2735 133.322 -67.3128 140.099 -84.2247 148.005C-89.8619 155.91 -96.6267 163.816 -101.137 171.722C-74.0776 160.428 -41.3813 168.334 -23.342 181.887C22.8837 208.993 77.0015 264.335 141.267 237.229C196.512 210.123 214.551 136.71 260.777 109.604C304.748 82.4981 347.591 107.345 391.562 119.769C359.993 88.1452 321.659 64.4274 279.944 48.6155Z" fill="#E5E5E5"/>
<path d="M391.561 118.639C347.59 106.216 304.747 81.3685 260.776 108.475C214.55 135.581 196.511 208.993 141.265 236.099C77.0004 263.205 21.7551 208.993 -23.3432 180.758C-42.5099 169.463 -74.0787 160.428 -101.138 171.722C-115.795 194.311 -128.197 219.158 -137.216 245.135C-90.9905 222.546 -41.3825 271.111 -4.17641 300.476C87.1475 364.853 233.717 346.782 279.943 227.064C307.001 162.687 380.286 236.099 426.512 218.028C436.659 213.511 445.678 206.734 453.571 198.828C436.659 169.463 416.365 142.357 391.561 118.639Z" fill="#DBDBDB"/>
<path d="M65.2299 651.354C99.0536 662.648 134.005 669.424 171.211 669.424C179.103 669.424 188.123 669.424 196.015 668.295C152.044 657.001 105.818 637.801 65.2299 651.354Z" fill="#8C8C8C"/>
<path d="M263.787 598.145C208.541 598.145 163.443 662.522 108.198 625.251C70.9916 602.662 21.3835 592.497 -24.8422 603.792C2.21679 624.121 31.5306 639.933 64.2269 651.227C105.943 638.804 151.041 656.874 196.139 668.169C237.855 664.78 277.316 653.486 313.395 636.545C297.61 618.474 284.081 598.145 263.787 598.145Z" fill="#9B9B9B"/>
<path d="M456.829 494.112C406.094 511.054 355.358 577.689 308.005 588.984C252.76 598.019 197.515 542.677 161.436 552.842C70.1121 561.878 -12.1923 588.984 -85.4769 506.536C-91.1142 506.536 -102.389 503.148 -112.536 506.536C-91.1142 544.936 -61.8003 578.819 -25.7217 604.796C20.504 593.501 70.112 603.666 107.318 626.255C162.563 662.396 207.662 599.148 262.907 599.148C283.201 599.148 296.731 619.478 312.515 638.678C373.398 607.054 425.261 556.23 456.829 494.112Z" fill="#AAAAAA"/>
<path d="M380.163 426.221C353.104 472.527 342.957 517.704 297.858 535.775C242.613 553.845 215.554 499.633 178.348 489.468C87.0241 471.398 -14.4469 562.881 -87.7316 443.162C-94.4963 436.385 -122.683 418.315 -144.104 435.256C-136.212 461.233 -126.065 484.951 -113.663 507.539C-103.516 505.28 -92.2414 507.539 -86.6041 507.539C-13.3195 589.987 68.9848 562.881 160.309 553.845C197.515 544.81 251.633 600.152 306.878 589.987C354.231 577.563 406.094 512.057 455.702 495.115C470.359 466.88 480.506 435.256 486.144 402.503C448.938 407.021 411.731 386.691 380.163 426.221Z" fill="#B7B7B7"/>
<path d="M481.882 276.885C451.44 283.661 417.617 288.179 397.322 308.509C360.116 344.65 342.077 399.992 286.832 418.062C231.586 436.133 186.488 371.756 140.262 371.756C75.9974 371.756 29.7717 445.169 -52.5325 418.062C-111.16 393.215 -101.013 314.156 -155.131 308.509C-156.258 322.062 -157.386 336.744 -157.386 350.297C-157.386 380.792 -152.876 410.156 -144.984 437.263C-123.562 420.321 -95.3759 438.392 -88.6111 445.169C-15.3265 563.758 85.0171 472.275 177.468 491.475C214.674 500.51 241.733 555.852 296.979 537.781C343.204 519.71 352.224 473.404 379.283 428.227C409.724 389.827 448.058 409.027 486.391 405.639C489.774 387.568 490.901 369.497 490.901 351.427C489.774 325.45 487.519 300.603 481.882 276.885Z" fill="#C1C1C1"/>
<path d="M-51.5288 419.066C30.7755 446.172 77.0012 372.76 141.266 372.76C187.492 372.76 232.59 437.137 287.836 419.066C343.081 400.996 361.12 345.654 398.326 309.512C418.62 289.183 452.444 284.665 482.885 277.889C476.121 249.653 465.974 223.676 453.572 198.829C445.679 206.735 436.66 212.382 426.513 218.029C380.287 236.1 307.002 162.688 279.943 227.065C233.718 345.654 87.1483 364.854 -4.17561 300.477C-41.3817 271.112 -90.9897 222.547 -137.215 245.135C-143.98 265.465 -149.617 286.924 -153 309.512C-98.8819 315.159 -110.156 394.219 -51.5288 419.066Z" fill="#CCCCCC"/>
<path d="M490.778 288.053C489.65 288.053 490.777 288.053 493.032 290.312C491.905 288.053 490.778 288.053 490.778 288.053Z" fill="black"/>
<path opacity="0.1" d="M257.702 42.2283C265.594 70.4638 271.231 100.958 271.231 132.582C271.231 311.031 125.789 455.596 -52.3487 455.596C-83.9175 455.596 -114.359 451.079 -143.673 442.043C-104.212 576.445 19.8085 674.704 167.505 674.704C346.771 674.704 491.085 530.138 491.085 351.69C491.085 205.994 392.996 81.758 257.702 42.2283Z" fill="url(#paint0_linear_5_3163)"/>
<path opacity="0.7" d="M-0.126324 160.185C7.02946 168.946 -0.126324 186.468 -16.028 198.415C-31.9298 210.362 -50.2168 212.752 -57.3725 203.194C-64.5283 194.433 -57.3725 176.911 -41.4708 164.963C-24.774 153.016 -6.48701 150.627 -0.126324 160.185Z" fill="white"/>
<defs>
<linearGradient id="paint0_linear_5_3163" x1="-11.2259" y1="213.744" x2="536.665" y2="639.259" gradientUnits="userSpaceOnUse">
<stop/>
<stop offset="0.5688"/>
<stop offset="0.6061"/>
<stop offset="1" stop-color="#404040"/>
</linearGradient>
</defs>
</svg>
